<svg width="133" height="39" viewBox="0 0 133 39" fill="none" xmlns="http://www.w3.org/2000/svg">
<path d="M47.933 23.866H43.931V31H39.233V9.54H47.933C52.312 9.54 55.241 12.411 55.241 16.703C55.241 20.995 52.312 23.866 47.933 23.866ZM46.889 13.716H43.931V19.69H46.889C49.151 19.69 50.282 18.704 50.282 16.703C50.282 14.702 49.151 13.716 46.889 13.716ZM69.0826 16.5V20.705H67.6616C65.1096 20.705 63.5726 21.836 63.5726 24.707V31H59.1066V16.529H63.3116L63.5436 18.675C64.1526 17.254 65.4286 16.297 67.3716 16.297C67.8936 16.297 68.4736 16.355 69.0826 16.5ZM74.995 14.238C73.574 14.238 72.443 13.107 72.443 11.686C72.443 10.265 73.574 9.163 74.995 9.163C76.387 9.163 77.518 10.265 77.518 11.686C77.518 13.107 76.387 14.238 74.995 14.238ZM72.791 31V16.5H77.257V31H72.791ZM86.5234 31H82.0574V16.5H86.2624L86.5524 18.008C87.4514 16.761 89.1044 16.036 90.9894 16.036C94.4404 16.036 96.4414 18.24 96.4414 22.039V31H91.9754V23.112C91.9754 21.285 90.9604 20.096 89.4234 20.096C87.6544 20.096 86.5234 21.256 86.5234 23.054V31ZM100.311 23.721C100.311 19.139 103.675 16.065 108.315 16.065C112.926 16.065 116.29 19.139 116.29 23.721C116.29 28.303 112.926 31.348 108.315 31.348C103.675 31.348 100.311 28.303 100.311 23.721ZM104.806 23.692C104.806 25.896 106.227 27.346 108.315 27.346C110.374 27.346 111.795 25.896 111.795 23.692C111.795 21.517 110.374 20.067 108.315 20.067C106.227 20.067 104.806 21.517 104.806 23.692ZM131.842 31H119.691V27.288L126.187 20.212H119.691V16.5H131.842V20.212L125.172 27.288H131.842V31Z" fill="white"/>
<path d="M3.53249 14.6643C4.58769 18.0477 8.18585 19.935 11.5692 18.8798C14.9526 17.8246 22.966 12.3159 21.9108 8.93251C20.8556 5.54915 11.1314 5.57241 7.74799 6.62761C4.36463 7.68281 2.47729 11.281 3.53249 14.6643Z" fill="url(#paint0_radial_717_1544)"/>
<path d="M1.4894 33.2159C3.47526 35.2018 6.69462 35.2018 8.68048 33.2159C10.6663 31.2301 14.2617 24.415 12.2762 22.4291C10.2903 20.4434 3.47526 24.039 1.4894 26.0246C-0.496465 28.0105 -0.496465 31.2301 1.4894 33.2159Z" fill="url(#paint1_radial_717_1544)"/>
<path d="M20.4907 35.1693C23.9141 36.0865 27.4328 34.055 28.3502 30.6317C29.2673 27.2083 28.8968 17.4912 25.4734 16.5738C22.0501 15.6566 16.8706 23.8865 15.9532 27.3099C15.0358 30.7331 17.0673 34.2519 20.4907 35.1693Z" fill="url(#paint2_linear_717_1544)"/>
<defs>
<radialGradient id="paint0_radial_717_1544" cx="0" cy="0" r="1" gradientUnits="userSpaceOnUse" gradientTransform="translate(21.9989 8.77286) rotate(162.759) scale(27.0629 38.5547)">
<stop stop-color="#3E96F7"/>
<stop offset="0.48585" stop-color="#9301FF"/>
<stop offset="0.71428" stop-color="#CC01FE"/>
</radialGradient>
<radialGradient id="paint1_radial_717_1544" cx="0" cy="0" r="1" gradientUnits="userSpaceOnUse" gradientTransform="translate(13.9365 21.6856) rotate(146.921) scale(23.1881 53.7511)">
<stop offset="0.0977501" stop-color="#D730A2"/>
<stop offset="0.467786" stop-color="#FD291C"/>
<stop offset="0.700031" stop-color="#FCA13D"/>
</radialGradient>
<linearGradient id="paint2_linear_717_1544" x1="23.918" y1="17.2302" x2="23.918" y2="35.5904" gradientUnits="userSpaceOnUse">
<stop stop-color="#9F58EE"/>
<stop offset="1" stop-color="#56F77C"/>
</linearGradient>
</defs>
</svg>
