<svg width="21" height="20" viewBox="0 0 21 20" fill="none" xmlns="http://www.w3.org/2000/svg">
<path d="M16.416 11.0833C17.2731 11.0833 18.1109 11.3375 18.8235 11.8136C19.5361 12.2898 20.0915 12.9666 20.4195 13.7584C20.7475 14.5502 20.8333 15.4215 20.6661 16.2621C20.4989 17.1026 20.0862 17.8748 19.4801 18.4808C18.8741 19.0868 18.102 19.4995 17.2614 19.6667C16.4208 19.8339 15.5495 19.7481 14.7577 19.4201C13.9659 19.0922 13.2891 18.5368 12.813 17.8241C12.3368 17.1115 12.0827 16.2737 12.0827 15.4167H9.91602C9.91561 16.468 9.53301 17.4833 8.83952 18.2734C8.14603 19.0636 7.18894 19.5747 6.14656 19.7115C5.10419 19.8483 4.04762 19.6015 3.17373 19.017C2.29983 18.4326 1.66821 17.5504 1.39653 16.5348C1.12486 15.5192 1.23167 14.4394 1.69705 13.4967C2.16244 12.554 2.95466 11.8127 3.92613 11.4108C4.89759 11.0089 5.98203 10.9739 6.9774 11.3122C7.97277 11.6506 8.81118 12.3393 9.33643 13.25H12.6623C13.0425 12.591 13.5897 12.0437 14.2486 11.6634C14.9076 11.283 15.6551 11.0829 16.416 11.0833ZM5.58268 13.25C5.00805 13.25 4.45695 13.4783 4.05062 13.8846C3.64429 14.2909 3.41602 14.842 3.41602 15.4167C3.41602 15.9913 3.64429 16.5424 4.05062 16.9487C4.45695 17.3551 5.00805 17.5833 5.58268 17.5833C6.15732 17.5833 6.70842 17.3551 7.11475 16.9487C7.52108 16.5424 7.74935 15.9913 7.74935 15.4167C7.74935 14.842 7.52108 14.2909 7.11475 13.8846C6.70842 13.4783 6.15732 13.25 5.58268 13.25ZM16.416 13.25C15.8414 13.25 15.2903 13.4783 14.884 13.8846C14.4776 14.2909 14.2493 14.842 14.2493 15.4167C14.2493 15.9913 14.4776 16.5424 14.884 16.9487C15.2903 17.3551 15.8414 17.5833 16.416 17.5833C16.9907 17.5833 17.5418 17.3551 17.9481 16.9487C18.3544 16.5424 18.5827 15.9913 18.5827 15.4167C18.5827 14.842 18.3544 14.2909 17.9481 13.8846C17.5418 13.4783 16.9907 13.25 16.416 13.25ZM15.3327 0.25C16.482 0.25 17.5842 0.706546 18.3968 1.5192C19.2095 2.33186 19.666 3.43406 19.666 4.58333V7.83333H21.8327V10H0.166016V7.83333H2.33268V4.58333C2.33268 3.43406 2.78923 2.33186 3.60189 1.5192C4.41454 0.706546 5.51674 0.25 6.66602 0.25H15.3327ZM15.3327 2.41667H6.66602C5.52418 2.41667 4.49935 3.44583 4.49935 4.58333V7.83333H17.4993V4.58333C17.4993 3.4415 16.4702 2.41667 15.3327 2.41667Z" fill="black"/>
</svg>
