<svg width="55" height="49" viewBox="0 0 55 49" fill="none" xmlns="http://www.w3.org/2000/svg">
<path d="M8.80043 1.91127C9.92321 -0.233732 12.9935 -0.23373 14.1162 1.91128L21.9931 16.9597C23.0387 18.9571 21.5898 21.3509 19.3352 21.3509H3.58144C1.32689 21.3509 -0.122003 18.9571 0.923544 16.9596L8.80043 1.91127Z" fill="#6865FF"/>
<path d="M40.8838 1.91127C42.0065 -0.233732 45.0768 -0.23373 46.1996 1.91128L54.0765 16.9597C55.122 18.9571 53.6731 21.3509 51.4186 21.3509H35.6648C33.4102 21.3509 31.9613 18.9571 33.0069 16.9596L40.8838 1.91127Z" fill="#6865FF"/>
<path d="M35.3769 48.1668C37.6314 48.1668 39.0803 45.773 38.0348 43.7756L30.1579 28.7272C29.0351 26.5822 25.9649 26.5822 24.8421 28.7272L16.9652 43.7756C15.9197 45.773 17.3685 48.1668 19.6231 48.1668H35.3769Z" fill="#6865FF"/>
<path d="M8.80043 43.089C9.92321 45.234 12.9935 45.234 14.1162 43.089L21.9931 28.0406C23.0387 26.0432 21.5898 23.6494 19.3352 23.6494H3.58144C1.32689 23.6494 -0.122003 26.0432 0.923544 28.0407L8.80043 43.089Z" fill="#6865FF"/>
<path d="M51.4186 23.6494C53.6731 23.6494 55.122 26.0432 54.0765 28.0407L46.1996 43.089C45.0768 45.234 42.0065 45.234 40.8838 43.089L33.0069 28.0406C31.9613 26.0432 33.4102 23.6494 35.6648 23.6494H51.4186Z" fill="#6865FF"/>
</svg>
