<svg width="55" height="55" viewBox="0 0 55 55" fill="none" xmlns="http://www.w3.org/2000/svg">
<path d="M54.9365 22.8782L47.2021 3.9719C47.1552 3.85714 47.0842 3.75387 46.9937 3.66917C46.9032 3.58447 46.7955 3.52035 46.6779 3.4812L36.3654 0.0436946C36.1726 -0.0202343 35.9634 -0.0138408 35.775 0.0617414C30.4647 2.19558 24.5354 2.19558 19.2251 0.0617414C19.0366 -0.0138408 18.8275 -0.0202343 18.6347 0.0436946L8.32222 3.4812C8.20463 3.52035 8.09689 3.58447 8.00641 3.66917C7.91592 3.75387 7.84483 3.85714 7.798 3.9719L0.0636255 22.8782C0.0145928 22.9984 -0.00655611 23.1282 0.0017676 23.2578C0.0100913 23.3873 0.0476712 23.5133 0.111684 23.6263C0.175697 23.7393 0.264479 23.8363 0.371359 23.91C0.47824 23.9838 0.600441 24.0323 0.728782 24.0521L11.1719 25.6591V47.2655C11.1719 47.4934 11.2625 47.712 11.4236 47.8732C11.5848 48.0343 11.8034 48.1249 12.0313 48.1249H30.9375C31.1655 48.1249 31.384 48.0343 31.5452 47.8732C31.7064 47.712 31.7969 47.4934 31.7969 47.2655C31.7969 47.0376 31.7064 46.819 31.5452 46.6578C31.384 46.4967 31.1655 46.4061 30.9375 46.4061H12.8907V14.6092C12.8907 14.3813 12.8001 14.1627 12.639 14.0016C12.4778 13.8404 12.2592 13.7499 12.0313 13.7499C11.8034 13.7499 11.5848 13.8404 11.4236 14.0016C11.2625 14.1627 11.1719 14.3813 11.1719 14.6092V23.9197L2.06769 22.5198L9.24003 4.98424L18.1268 2.02541C18.4126 4.31098 19.5224 6.41378 21.2481 7.93945C22.9737 9.46511 25.1967 10.3088 27.5 10.3124C28.9291 10.3161 30.3402 9.9927 31.625 9.36706C31.7266 9.31779 31.8175 9.24901 31.8925 9.16463C31.9675 9.08025 32.0251 8.98193 32.0621 8.87527C32.0991 8.76862 32.1147 8.65573 32.108 8.54304C32.1014 8.43035 32.0726 8.32007 32.0234 8.2185C31.9741 8.11693 31.9053 8.02606 31.8209 7.95107C31.7366 7.87609 31.6382 7.81846 31.5316 7.78147C31.4249 7.74448 31.312 7.72886 31.1993 7.7355C31.0867 7.74215 30.9764 7.77092 30.8748 7.82018C29.8237 8.33222 28.6693 8.59679 27.5 8.59362C25.671 8.59032 23.9023 7.93952 22.5073 6.75659C21.1123 5.57366 20.1812 3.935 19.8791 2.13112C24.8263 3.79917 30.184 3.79917 35.1313 2.13112C34.9299 3.35437 34.4345 4.51042 33.6875 5.49987C33.6198 5.59015 33.5706 5.69289 33.5426 5.80221C33.5145 5.91154 33.5083 6.02531 33.5243 6.13703C33.5403 6.24875 33.5781 6.35623 33.6356 6.45334C33.6931 6.55045 33.7691 6.63528 33.8594 6.70299C33.9497 6.77071 34.0524 6.81997 34.1618 6.84798C34.2711 6.87599 34.3849 6.88219 34.4966 6.86623C34.6083 6.85027 34.7158 6.81246 34.8129 6.75496C34.91 6.69746 34.9948 6.6214 35.0625 6.53112C36.0525 5.21456 36.6774 3.66 36.8741 2.02455L45.76 4.98424L52.9324 22.5155L43.8282 23.9197V14.6092C43.8282 14.3813 43.7376 14.1627 43.5765 14.0016C43.4153 13.8404 43.1967 13.7499 42.9688 13.7499C42.7409 13.7499 42.5223 13.8404 42.3611 14.0016C42.2 14.1627 42.1094 14.3813 42.1094 14.6092V33.5155C42.1094 33.7434 42.2 33.962 42.3611 34.1232C42.5223 34.2843 42.7409 34.3749 42.9688 34.3749C43.1967 34.3749 43.4153 34.2843 43.5765 34.1232C43.7376 33.962 43.8282 33.7434 43.8282 33.5155V25.6591L54.2713 24.0521C54.3996 24.0323 54.5218 23.9838 54.6287 23.91C54.7356 23.8363 54.8244 23.7393 54.8884 23.6263C54.9524 23.5133 54.99 23.3873 54.9983 23.2578C55.0066 23.1282 54.9855 22.9984 54.9365 22.8782Z" fill="black"/>
<path d="M30.0781 41.25H24.9219C24.694 41.25 24.4754 41.3405 24.3142 41.5017C24.153 41.6629 24.0625 41.8815 24.0625 42.1094C24.0625 42.3373 24.153 42.5559 24.3142 42.717C24.4754 42.8782 24.694 42.9688 24.9219 42.9688H30.0781C30.306 42.9688 30.5246 42.8782 30.6858 42.717C30.847 42.5559 30.9375 42.3373 30.9375 42.1094C30.9375 41.8815 30.847 41.6629 30.6858 41.5017C30.5246 41.3405 30.306 41.25 30.0781 41.25Z" fill="black"/>
<path d="M16.3281 42.1094C16.3281 42.3373 16.4187 42.5559 16.5798 42.717C16.741 42.8782 16.9596 42.9688 17.1875 42.9688H19.7656C19.9935 42.9688 20.2121 42.8782 20.3733 42.717C20.5345 42.5559 20.625 42.3373 20.625 42.1094C20.625 41.8815 20.5345 41.6629 20.3733 41.5017C20.2121 41.3405 19.9935 41.25 19.7656 41.25H18.0469V39.5312C18.0469 39.3033 17.9563 39.0847 17.7952 38.9236C17.634 38.7624 17.4154 38.6719 17.1875 38.6719C16.9596 38.6719 16.741 38.7624 16.5798 38.9236C16.4187 39.0847 16.3281 39.3033 16.3281 39.5312V42.1094Z" fill="black"/>
<path d="M16.3281 35.0625C16.3281 35.2904 16.4187 35.509 16.5798 35.6702C16.741 35.8313 16.9596 35.9219 17.1875 35.9219C17.4154 35.9219 17.634 35.8313 17.7952 35.6702C17.9563 35.509 18.0469 35.2904 18.0469 35.0625V30.5937C18.0469 30.3658 17.9563 30.1472 17.7952 29.9861C17.634 29.8249 17.4154 29.7344 17.1875 29.7344C16.9596 29.7344 16.741 29.8249 16.5798 29.9861C16.4187 30.1472 16.3281 30.3658 16.3281 30.5937V35.0625Z" fill="black"/>
<path d="M17.1875 26.9844C17.4154 26.9844 17.634 26.8938 17.7952 26.7327C17.9563 26.5715 18.0469 26.3529 18.0469 26.125V21.6562C18.0469 21.4283 17.9563 21.2097 17.7952 21.0486C17.634 20.8874 17.4154 20.7969 17.1875 20.7969C16.9596 20.7969 16.741 20.8874 16.5798 21.0486C16.4187 21.2097 16.3281 21.4283 16.3281 21.6562V26.125C16.3281 26.3529 16.4187 26.5715 16.5798 26.7327C16.741 26.8938 16.9596 26.9844 17.1875 26.9844Z" fill="black"/>
<path d="M19.7656 13.75H17.1875C16.9596 13.75 16.741 13.8405 16.5798 14.0017C16.4187 14.1629 16.3281 14.3815 16.3281 14.6094V17.1875C16.3281 17.4154 16.4187 17.634 16.5798 17.7952C16.741 17.9563 16.9596 18.0469 17.1875 18.0469C17.4154 18.0469 17.634 17.9563 17.7952 17.7952C17.9563 17.634 18.0469 17.4154 18.0469 17.1875V15.4688H19.7656C19.9935 15.4688 20.2121 15.3782 20.3733 15.217C20.5345 15.0559 20.625 14.8373 20.625 14.6094C20.625 14.3815 20.5345 14.1629 20.3733 14.0017C20.2121 13.8405 19.9935 13.75 19.7656 13.75Z" fill="black"/>
<path d="M30.0781 13.75H24.9219C24.694 13.75 24.4754 13.8405 24.3142 14.0017C24.153 14.1629 24.0625 14.3815 24.0625 14.6094C24.0625 14.8373 24.153 15.0559 24.3142 15.217C24.4754 15.3782 24.694 15.4688 24.9219 15.4688H30.0781C30.306 15.4688 30.5246 15.3782 30.6858 15.217C30.847 15.0559 30.9375 14.8373 30.9375 14.6094C30.9375 14.3815 30.847 14.1629 30.6858 14.0017C30.5246 13.8405 30.306 13.75 30.0781 13.75Z" fill="black"/>
<path d="M38.6719 14.6094C38.6719 14.3815 38.5813 14.1629 38.4202 14.0017C38.259 13.8405 38.0404 13.75 37.8125 13.75H35.2344C35.0065 13.75 34.7879 13.8405 34.6267 14.0017C34.4655 14.1629 34.375 14.3815 34.375 14.6094C34.375 14.8373 34.4655 15.0559 34.6267 15.217C34.7879 15.3782 35.0065 15.4688 35.2344 15.4688H36.9531V17.1875C36.9531 17.4154 37.0437 17.634 37.2048 17.7952C37.366 17.9563 37.5846 18.0469 37.8125 18.0469C38.0404 18.0469 38.259 17.9563 38.4202 17.7952C38.5813 17.634 38.6719 17.4154 38.6719 17.1875V14.6094Z" fill="black"/>
<path d="M38.6719 21.6562C38.6719 21.4283 38.5813 21.2097 38.4202 21.0486C38.259 20.8874 38.0404 20.7969 37.8125 20.7969C37.5846 20.7969 37.366 20.8874 37.2048 21.0486C37.0437 21.2097 36.9531 21.4283 36.9531 21.6562V26.125C36.9531 26.3529 37.0437 26.5715 37.2048 26.7327C37.366 26.8938 37.5846 26.9844 37.8125 26.9844C38.0404 26.9844 38.259 26.8938 38.4202 26.7327C38.5813 26.5715 38.6719 26.3529 38.6719 26.125V21.6562Z" fill="black"/>
<path d="M37.8125 29.7344C37.5846 29.7344 37.366 29.8249 37.2048 29.9861C37.0437 30.1472 36.9531 30.3658 36.9531 30.5938V34.375C36.9531 34.6029 37.0437 34.8215 37.2048 34.9827C37.366 35.1438 37.5846 35.2344 37.8125 35.2344C38.0404 35.2344 38.259 35.1438 38.4202 34.9827C38.5813 34.8215 38.6719 34.6029 38.6719 34.375V30.5938C38.6719 30.3658 38.5813 30.1472 38.4202 29.9861C38.259 29.8249 38.0404 29.7344 37.8125 29.7344Z" fill="black"/>
<path d="M42.9688 36.0938C41.0991 36.0938 39.2714 36.6482 37.7169 37.6869C36.1623 38.7256 34.9507 40.202 34.2352 41.9293C33.5197 43.6567 33.3325 45.5574 33.6973 47.3911C34.062 49.2248 34.9623 50.9092 36.2844 52.2312C37.6064 53.5533 39.2908 54.4536 41.1245 54.8184C42.9583 55.1831 44.859 54.9959 46.5863 54.2804C48.3136 53.5649 49.79 52.3533 50.8287 50.7987C51.8675 49.2442 52.4219 47.4165 52.4219 45.5469C52.4189 43.0407 51.422 40.6379 49.6499 38.8658C47.8777 37.0936 45.475 36.0967 42.9688 36.0938ZM42.9688 53.2813C41.439 53.2813 39.9437 52.8276 38.6718 51.9778C37.3999 51.1279 36.4085 49.92 35.8231 48.5067C35.2377 47.0934 35.0846 45.5383 35.383 44.038C35.6814 42.5377 36.4181 41.1595 37.4997 40.0778C38.5814 38.9962 39.9595 38.2595 41.4599 37.9611C42.9602 37.6627 44.5153 37.8158 45.9286 38.4012C47.3418 38.9866 48.5498 39.978 49.3997 41.2499C50.2495 42.5218 50.7031 44.0172 50.7031 45.5469C50.7009 47.5975 49.8853 49.5634 48.4353 51.0134C46.9853 52.4634 45.0193 53.279 42.9688 53.2813Z" fill="black"/>
<path d="M46.4062 44.6875H43.8281V42.1094C43.8281 41.8815 43.7376 41.6629 43.5764 41.5017C43.4153 41.3405 43.1967 41.25 42.9688 41.25C42.7408 41.25 42.5222 41.3405 42.3611 41.5017C42.1999 41.6629 42.1094 41.8815 42.1094 42.1094V44.6875H39.5312C39.3033 44.6875 39.0847 44.778 38.9236 44.9392C38.7624 45.1004 38.6719 45.319 38.6719 45.5469C38.6719 45.7748 38.7624 45.9934 38.9236 46.1545C39.0847 46.3157 39.3033 46.4062 39.5312 46.4062H42.1094V48.9844C42.1094 49.2123 42.1999 49.4309 42.3611 49.592C42.5222 49.7532 42.7408 49.8438 42.9688 49.8438C43.1967 49.8438 43.4153 49.7532 43.5764 49.592C43.7376 49.4309 43.8281 49.2123 43.8281 48.9844V46.4062H46.4062C46.6342 46.4062 46.8528 46.3157 47.0139 46.1545C47.1751 45.9934 47.2656 45.7748 47.2656 45.5469C47.2656 45.319 47.1751 45.1004 47.0139 44.9392C46.8528 44.778 46.6342 44.6875 46.4062 44.6875Z" fill="black"/>
</svg>
