<svg width="50" height="50" viewBox="0 0 50 50" fill="none" xmlns="http://www.w3.org/2000/svg">
<path d="M44.4321 15.0454H43.4094V7.88603C43.4094 7.32098 42.9517 6.8633 42.3867 6.8633H37.273V1.74967C37.273 1.37126 37.0659 1.02607 36.7336 0.847115C36.4012 0.668136 35.9972 0.688591 35.6827 0.898251L33.108 2.61388L29.5489 0.834302C29.2625 0.69112 28.9225 0.69112 28.6336 0.834302L25.0003 2.65217L21.3671 0.834302C21.0807 0.69112 20.7406 0.69112 20.4517 0.834302L16.8926 2.61388L14.3179 0.898251C14.0034 0.688594 13.5994 0.670692 13.2671 0.847115C12.9347 1.02609 12.7276 1.37126 12.7276 1.74967V6.8633H7.61393C7.04887 6.8633 6.5912 7.32098 6.5912 7.88603V15.0454H5.56847C2.7483 15.0454 0.454834 17.3389 0.454834 20.1591V36.5227C0.454834 39.3429 2.7483 41.6364 5.56847 41.6364H12.7279V48.7958C12.7279 49.3608 13.1856 49.8185 13.7506 49.8185H36.2506C36.8157 49.8185 37.2733 49.3608 37.2733 48.7958V41.6364H44.4328C47.2529 41.6364 49.5464 39.3429 49.5464 36.5227V20.1591C49.5464 17.3389 47.2523 15.0454 44.4321 15.0454ZM37.2727 8.90909H41.3636V15.0454H37.2727V8.90909ZM14.7727 3.65996L16.2505 4.64688C16.5574 4.84887 16.946 4.87444 17.2758 4.7108L20.9091 2.89293L24.5423 4.7108C24.8287 4.85398 25.1687 4.85398 25.4576 4.7108L29.0909 2.89293L32.7241 4.7108C33.054 4.87444 33.4426 4.84887 33.7494 4.64688L35.2273 3.65996V15.0458H14.7727V3.65996ZM8.63635 8.90909H12.7273V15.0454H8.63635V8.90909ZM35.2273 47.7727H14.7727V29.3636H35.2273V47.7727ZM36.25 27.3182H13.75C13.1849 27.3182 12.7273 27.7758 12.7273 28.3409V31.4091H10.6818V25.2727H39.3182V31.4091H37.2727V28.3409C37.2727 27.7758 36.815 27.3182 36.25 27.3182ZM47.5003 36.5224C47.5003 38.215 46.1247 39.5906 44.4321 39.5906H37.2727V33.4542H40.3409C40.906 33.4542 41.3636 32.9965 41.3636 32.4315V24.2497C41.3636 23.6846 40.906 23.2269 40.3409 23.2269H9.65908C9.09402 23.2269 8.63635 23.6846 8.63635 24.2497V32.4315C8.63635 32.9965 9.09402 33.4542 9.65908 33.4542H12.7273V39.5906H5.56784C3.87525 39.5906 2.49966 38.215 2.49966 36.5224V20.1588C2.49966 18.4662 3.87525 17.0906 5.56784 17.0906H44.4315C46.1241 17.0906 47.4997 18.4662 47.4997 20.1588L47.5003 36.5224Z" fill="black"/>
<path d="M41.3638 20.1594C41.3638 21.5222 39.3184 21.5222 39.3184 20.1594C39.3184 18.7966 41.3638 18.7966 41.3638 20.1594Z" fill="black"/>
<path d="M37.2727 20.1594C37.2727 21.5222 35.2273 21.5222 35.2273 20.1594C35.2273 18.7966 37.2727 18.7966 37.2727 20.1594Z" fill="black"/>
<path d="M13.7496 19.1364H9.65871C9.09366 19.1364 8.63599 19.594 8.63599 20.1591C8.63599 20.7241 9.09366 21.1818 9.65871 21.1818H13.7496C14.3147 21.1818 14.7724 20.7241 14.7724 20.1591C14.7724 19.594 14.3147 19.1364 13.7496 19.1364Z" fill="black"/>
<path d="M25.0001 41.6364H22.9546C22.3896 41.6364 21.9319 42.094 21.9319 42.6591C21.9319 43.2241 22.3896 43.6818 22.9546 43.6818H23.9773V44.7045C23.9773 45.2696 24.435 45.7273 25.0001 45.7273C25.5651 45.7273 26.0228 45.2696 26.0228 44.7045V43.4926C27.2117 43.0682 28.0682 41.9431 28.0682 40.6136C28.0682 38.921 26.6927 37.5455 25.0001 37.5455C24.435 37.5455 23.9773 37.0878 23.9773 36.5227C23.9773 35.9577 24.435 35.5 25.0001 35.5H27.0455C27.6106 35.5 28.0682 35.0423 28.0682 34.4773C28.0682 33.9122 27.6106 33.4545 27.0455 33.4545H26.0228V32.4318C26.0228 31.8668 25.5651 31.4091 25.0001 31.4091C24.435 31.4091 23.9773 31.8668 23.9773 32.4318V33.6438C22.7884 34.0682 21.9319 35.1932 21.9319 36.5227C21.9319 38.2153 23.3075 39.5909 25.0001 39.5909C25.5651 39.5909 26.0228 40.0486 26.0228 40.6136C26.0228 41.1787 25.5651 41.6364 25.0001 41.6364Z" fill="black"/>
</svg>
