<svg width="69" height="71" viewBox="0 0 69 71" fill="none" xmlns="http://www.w3.org/2000/svg">
<path d="M54.1713 43.6313C52.7692 42.1504 51.0779 41.3587 49.2855 41.3587C47.5076 41.3587 45.8019 42.1358 44.3419 43.6166L39.7742 48.2349C39.3984 48.0297 39.0225 47.8391 38.6612 47.6485C38.1408 47.3846 37.6493 47.1353 37.2301 46.8714C32.9515 44.1151 29.0631 40.523 25.3337 35.8754C23.5269 33.5588 22.3126 31.6089 21.4309 29.6296C22.6162 28.53 23.7148 27.3864 24.7844 26.2868C25.1892 25.8763 25.5939 25.4511 25.9986 25.0406C29.0342 21.9617 29.0342 17.9737 25.9986 14.8948L22.0524 10.8923C21.6043 10.4378 21.1418 9.96861 20.7081 9.49944C19.8408 8.59044 18.9302 7.6521 17.9906 6.77242C16.5885 5.36492 14.9117 4.61719 13.1482 4.61719C11.3847 4.61719 9.67903 5.36492 8.23354 6.77242C8.21908 6.78708 8.21908 6.78708 8.20463 6.80174L3.28995 11.8306C1.43972 13.7073 0.384509 15.9945 0.15323 18.6482C-0.193688 22.9293 1.04944 26.9172 2.00346 29.527C4.34516 35.934 7.84325 41.8719 13.0615 48.2349C19.3927 55.9029 27.0105 61.958 35.7124 66.2245C39.037 67.8226 43.4747 69.7139 48.4327 70.0365C48.7363 70.0511 49.0543 70.0658 49.3434 70.0658C52.6824 70.0658 55.4867 68.8489 57.6839 66.4298C57.6983 66.4005 57.7272 66.3858 57.7417 66.3565C58.4933 65.4328 59.3606 64.5971 60.2713 63.7027C60.8928 63.1016 61.5289 62.4712 62.1504 61.8114C63.5815 60.3013 64.3331 58.5419 64.3331 56.7386C64.3331 54.9206 63.567 53.1758 62.1071 51.7097L54.1713 43.6313ZM59.3462 59.0697C59.3317 59.0697 59.3317 59.0844 59.3462 59.0697C58.7824 59.6855 58.2042 60.2427 57.5827 60.8584C56.6431 61.7674 55.6891 62.7204 54.7929 63.7907C53.3329 65.3742 51.6128 66.1219 49.3578 66.1219C49.141 66.1219 48.9097 66.1219 48.6929 66.1072C44.3998 65.8287 40.4102 64.1279 37.418 62.6764C29.2365 58.6592 22.0524 52.9559 16.0826 45.7278C11.1534 39.702 7.85771 34.1306 5.67501 28.1488C4.3307 24.4981 3.83924 21.6538 4.05606 18.9707C4.20061 17.2553 4.85108 15.8332 6.05084 14.6163L10.98 9.61673C11.6883 8.94231 12.4399 8.57577 13.1771 8.57577C14.0878 8.57577 14.825 9.13291 15.2875 9.60207C15.302 9.61674 15.3165 9.6314 15.3309 9.64606C16.2127 10.4818 17.051 11.3468 17.9328 12.2705C18.3809 12.7396 18.8435 13.2088 19.306 13.6926L23.2522 17.6952C24.7844 19.2493 24.7844 20.6861 23.2522 22.2402C22.833 22.6654 22.4283 23.0906 22.0091 23.5011C20.7949 24.762 19.6385 25.9349 18.3809 27.0785C18.352 27.1078 18.3231 27.1225 18.3086 27.1518C17.0655 28.4127 17.2968 29.6442 17.557 30.4799C17.5714 30.5239 17.5859 30.5679 17.6003 30.6119C18.6266 33.1337 20.0721 35.5088 22.2693 38.3385L22.2837 38.3531C26.2733 43.338 30.4797 47.2233 35.1197 50.1996C35.7124 50.5808 36.3195 50.8887 36.8977 51.1819C37.418 51.4458 37.9095 51.695 38.3287 51.9589C38.3865 51.9883 38.4443 52.0323 38.5022 52.0616C38.9936 52.3108 39.4562 52.4281 39.9332 52.4281C41.133 52.4281 41.8846 51.6657 42.1303 51.4165L47.0739 46.4023C47.5654 45.9038 48.346 45.3027 49.2566 45.3027C50.1528 45.3027 50.89 45.8744 51.3381 46.3729C51.3526 46.3876 51.3526 46.3876 51.367 46.4023L59.3317 54.4807C60.8206 55.9762 60.8206 57.5156 59.3462 59.0697Z" fill="#600EE4"/>
<path d="M37.0574 17.1239C40.8446 17.7691 44.2849 19.5871 47.0313 22.3727C49.7778 25.1584 51.5557 28.6478 52.2062 32.4891C52.3652 33.4568 53.1891 34.1312 54.1287 34.1312C54.2444 34.1312 54.3455 34.1165 54.4612 34.1019C55.5308 33.9259 56.2391 32.8997 56.0657 31.8147C55.2851 27.167 53.1169 22.9299 49.8067 19.5724C46.4965 16.2149 42.319 14.0157 37.7368 13.224C36.6672 13.0481 35.6698 13.7665 35.4818 14.8368C35.2939 15.9071 35.9878 16.948 37.0574 17.1239Z" fill="#600EE4"/>
<path d="M68.4534 31.2429C67.1669 23.5896 63.611 16.6254 58.147 11.0834C52.6831 5.54136 45.817 1.93465 38.2715 0.629785C37.2163 0.439186 36.2189 1.17226 36.031 2.24254C35.8575 3.32749 36.5658 4.33913 37.6355 4.52973C44.3715 5.68798 50.5148 8.92815 55.4006 13.8691C60.2864 18.8246 63.4665 25.0557 64.6084 31.888C64.7674 32.8556 65.5913 33.53 66.5309 33.53C66.6465 33.53 66.7477 33.5154 66.8634 33.5007C67.9186 33.3394 68.6413 32.3131 68.4534 31.2429Z" fill="#600EE4"/>
</svg>
