<svg width="77" height="68" viewBox="0 0 77 68" fill="none" xmlns="http://www.w3.org/2000/svg">
<path d="M76.0438 21.6077L65.0787 13.7519V2.27697C64.9687 1.14027 64.1054 0.227943 62.99 0.0703125H14.9527C13.8375 0.228112 12.974 1.14027 12.8641 2.27697V13.6635L1.46388 21.6075C1.01231 21.94 0.726304 22.4558 0.680664 23.0198V64.9468C0.828911 66.0976 1.72173 67.0033 2.85624 67.1535H75.0865C76.0438 67.1535 76.3919 66.006 76.3919 64.9468V23.0199C76.3919 22.4903 76.4789 21.9606 76.0438 21.6077ZM65.0787 17.9886L72.5628 23.1963L65.0787 28.9337V17.9886ZM16.3451 3.60102H61.5977V31.6702L38.9713 48.9706L16.3449 31.6702V3.60102H16.3451ZM12.8641 17.9004V29.0222L5.37994 23.1965L12.8641 17.9004ZM4.16165 26.8154L28.5285 45.5281L4.16165 62.2107V26.8154ZM8.33889 63.623L31.4873 47.8231L37.6661 52.5895C38.0159 52.8637 38.4424 53.0183 38.8843 53.0308C39.2325 53.0308 39.4065 52.8543 39.7545 52.5895L46.1943 47.5582L69.6039 63.623H8.33889ZM72.911 61.5929L49.0663 45.3515L72.911 26.8154V61.5929Z" fill="#600EE4"/>
<path d="M25.0462 15.0758H32.8783C33.8396 15.0758 34.6188 14.2854 34.6188 13.3104C34.6188 12.3354 33.8396 11.545 32.8783 11.545H25.0462C24.0849 11.545 23.3057 12.3354 23.3057 13.3104C23.3057 14.2854 24.0849 15.0758 25.0462 15.0758Z" fill="#600EE4"/>
<path d="M25.0462 23.019H52.894C53.8553 23.019 54.6345 22.2286 54.6345 21.2536C54.6345 20.2786 53.8553 19.4883 52.894 19.4883H25.0462C24.0849 19.4883 23.3057 20.2786 23.3057 21.2536C23.3057 22.2286 24.0849 23.019 25.0462 23.019Z" fill="#600EE4"/>
<path d="M54.6343 29.199C54.6343 28.2239 53.8551 27.4336 52.8939 27.4336H25.0462C24.0849 27.4336 23.3057 28.2239 23.3057 29.199C23.3057 30.174 24.0849 30.9643 25.0462 30.9643H52.894C53.8551 30.9643 54.6343 30.174 54.6343 29.199Z" fill="#600EE4"/>
</svg>
