<svg width="60" height="60" viewBox="0 0 60 60" fill="none" xmlns="http://www.w3.org/2000/svg">
<path fill-rule="evenodd" clip-rule="evenodd" d="M5.88462 16.8462V8.07692C5.88462 6.86677 6.86677 5.88462 8.07692 5.88462H16.8462C18.0563 5.88462 19.0385 4.90247 19.0385 3.69231C19.0385 2.48215 18.0563 1.5 16.8462 1.5H8.07692C4.44427 1.5 1.5 4.44427 1.5 8.07692V16.8462C1.5 18.0563 2.48215 19.0385 3.69231 19.0385C4.90247 19.0385 5.88462 18.0563 5.88462 16.8462Z" fill="#08BDC9"/>
<path fill-rule="evenodd" clip-rule="evenodd" d="M1.5 43.1539V51.9231C1.5 55.5557 4.44427 58.5 8.07692 58.5H16.8462C18.0563 58.5 19.0385 57.5179 19.0385 56.3077C19.0385 55.0975 18.0563 54.1154 16.8462 54.1154H8.07692C6.86677 54.1154 5.88462 53.1332 5.88462 51.9231V43.1539C5.88462 41.9437 4.90247 40.9615 3.69231 40.9615C2.48215 40.9615 1.5 41.9437 1.5 43.1539Z" fill="#08BDC9"/>
<path fill-rule="evenodd" clip-rule="evenodd" d="M58.5004 16.8462V8.07692C58.5004 4.44427 55.5561 1.5 51.9235 1.5H43.1542C41.9441 1.5 40.9619 2.48215 40.9619 3.69231C40.9619 4.90247 41.9441 5.88462 43.1542 5.88462H51.9235C53.1336 5.88462 54.1158 6.86677 54.1158 8.07692V16.8462C54.1158 18.0563 55.0979 19.0385 56.3081 19.0385C57.5182 19.0385 58.5004 18.0563 58.5004 16.8462Z" fill="#08BDC9"/>
<path fill-rule="evenodd" clip-rule="evenodd" d="M54.1158 43.1539V51.9231C54.1158 53.1332 53.1336 54.1154 51.9235 54.1154H43.1542C41.9441 54.1154 40.9619 55.0975 40.9619 56.3077C40.9619 57.5179 41.9441 58.5 43.1542 58.5H51.9235C55.5561 58.5 58.5004 55.5557 58.5004 51.9231V43.1539C58.5004 41.9437 57.5182 40.9615 56.3081 40.9615C55.0979 40.9615 54.1158 41.9437 54.1158 43.1539Z" fill="#08BDC9"/>
<path fill-rule="evenodd" clip-rule="evenodd" d="M49.7308 36.5309L10.2692 36.566V47.5385C10.2692 48.1194 10.4994 48.6784 10.9116 49.0884C11.3215 49.5006 11.8806 49.7308 12.4615 49.7308H47.5385C48.1194 49.7308 48.6785 49.5006 49.0884 49.0884C49.5006 48.6784 49.7308 48.1194 49.7308 47.5385V36.5309ZM10.2692 27.7967L3.69012 27.8077C2.47996 27.8099 1.5 28.792 1.5 30.0022C1.50219 31.2123 2.48434 32.1945 3.6945 32.1923L56.3099 32.1353C57.52 32.1353 58.5 31.151 58.5 29.9408C58.4978 28.7306 57.5157 27.7507 56.3055 27.7507L49.7308 27.7616V12.4615C49.7308 11.8806 49.5006 11.3215 49.0884 10.9116C48.6785 10.4994 48.1194 10.2692 47.5385 10.2692H12.4615C11.8806 10.2692 11.3215 10.4994 10.9116 10.9116C10.4994 11.3215 10.2692 11.8806 10.2692 12.4615V27.7967Z" fill="#08BDC9"/>
</svg>
