<svg width="66" height="66" viewBox="0 0 66 66" fill="none" xmlns="http://www.w3.org/2000/svg">
<path d="M29.6996 31.9C30.3071 31.9 30.7996 31.4075 30.7996 30.8C30.7996 30.1925 30.3071 29.7 29.6996 29.7C29.0921 29.7 28.5996 30.1925 28.5996 30.8C28.5996 31.4075 29.0921 31.9 29.6996 31.9Z" fill="#08BDC9"/>
<path d="M29.2514 38.5231L24.2002 43.2355V45.1H35.9515L29.3702 38.5297C29.3548 38.5139 29.3341 38.5045 29.3121 38.5033C29.2901 38.5021 29.2684 38.5091 29.2514 38.5231Z" fill="#08BDC9"/>
<path d="M24.2002 40.227L27.751 36.9149C28.184 36.5088 28.7585 36.2877 29.352 36.2988C29.9456 36.3099 30.5114 36.5523 30.9289 36.9743L33.6668 39.71L36.6599 36.9171C37.0937 36.5168 37.6647 36.2987 38.2549 36.3079C38.845 36.3171 39.409 36.553 39.8301 36.9666L41.8002 38.9312V25.3H24.2002V40.227ZM29.7002 27.5C30.3529 27.5 30.9909 27.6935 31.5336 28.0561C32.0763 28.4187 32.4992 28.9341 32.749 29.5371C32.9988 30.1401 33.0641 30.8037 32.9368 31.4438C32.8095 32.0839 32.4952 32.6719 32.0336 33.1334C31.5721 33.595 30.9841 33.9092 30.344 34.0366C29.7039 34.1639 29.0403 34.0986 28.4373 33.8488C27.8343 33.599 27.319 33.1761 26.9563 32.6334C26.5937 32.0907 26.4002 31.4527 26.4002 30.8C26.4002 29.9248 26.7479 29.0854 27.3667 28.4665C27.9856 27.8477 28.825 27.5 29.7002 27.5Z" fill="#08BDC9"/>
<path d="M38.1594 38.5242L35.2246 41.2643L39.0647 45.1H41.8004V42.0376L38.2804 38.5308C38.2647 38.5149 38.2436 38.5054 38.2212 38.5042C38.1988 38.5029 38.1768 38.5101 38.1594 38.5242Z" fill="#08BDC9"/>
<path d="M33.0001 7.70001C34.3646 7.69576 35.6786 7.18329 36.6858 6.26259C37.6929 5.34189 38.3209 4.07901 38.4473 2.72031C36.6654 3.1549 34.8335 3.34985 33.0001 3.30001C31.1658 3.353 29.3329 3.15613 27.5518 2.71481C27.6773 4.07449 28.3051 5.33859 29.3125 6.26035C30.3199 7.18212 31.6346 7.6954 33.0001 7.70001Z" fill="#08BDC9"/>
<path d="M16.5001 4.92358C15.4614 5.21499 14.5316 5.80612 13.8271 6.62308L2.75885 19.4458C2.39662 19.8681 2.19895 20.4069 2.20219 20.9632C2.20542 21.5196 2.40933 22.056 2.77645 22.4741L7.02355 27.28C7.32278 27.6189 7.71517 27.8622 8.15179 27.9796C8.58841 28.097 9.04992 28.0832 9.47875 27.94L13.2001 26.7069V20.9C13.2001 20.6082 13.3159 20.3285 13.5222 20.1222C13.7285 19.9159 14.0083 19.8 14.3001 19.8C14.5918 19.8 14.8716 19.9159 15.0779 20.1222C15.2842 20.3285 15.4001 20.6082 15.4001 20.9V62.7C15.4001 62.9917 15.5159 63.2715 15.7222 63.4778C15.9285 63.6841 16.2083 63.8 16.5001 63.8H49.5C49.7918 63.8 50.0716 63.6841 50.2779 63.4778C50.4842 63.2715 50.6001 62.9917 50.6001 62.7V20.9C50.6001 20.6082 50.7159 20.3285 50.9222 20.1222C51.1285 19.9159 51.4083 19.8 51.7001 19.8C51.9918 19.8 52.2716 19.9159 52.4779 20.1222C52.6842 20.3285 52.8001 20.6082 52.8001 20.9V26.7069L56.5203 27.94C56.9495 28.0845 57.4118 28.0989 57.8492 27.9815C58.2867 27.8641 58.6796 27.62 58.9788 27.28L63.2237 22.4708C63.5903 22.0527 63.7939 21.5164 63.7969 20.9603C63.7999 20.4042 63.6022 19.8657 63.2402 19.4436L52.173 6.62308C51.4685 5.80607 50.5388 5.21493 49.5 4.92358L40.688 2.44308C40.6244 4.43694 39.7887 6.32812 38.3572 7.71745C36.9257 9.10679 35.0104 9.88557 33.0155 9.88942C31.0206 9.89328 29.1023 9.1219 27.6654 7.73811C26.2286 6.35432 25.3856 4.46638 25.3144 2.47278L16.5001 4.92358ZM17.6001 20.9C17.6001 20.3165 17.8318 19.7569 18.2444 19.3443C18.657 18.9318 19.2166 18.7 19.8001 18.7H23.1001C23.3918 18.7 23.6716 18.8159 23.8779 19.0222C24.0842 19.2285 24.2001 19.5082 24.2001 19.8C24.2001 20.0917 24.0842 20.3715 23.8779 20.5778C23.6716 20.7841 23.3918 20.9 23.1001 20.9H19.8001V24.2C19.8001 24.4917 19.6842 24.7715 19.4779 24.9778C19.2716 25.1841 18.9918 25.3 18.7001 25.3C18.4083 25.3 18.1285 25.1841 17.9222 24.9778C17.7159 24.7715 17.6001 24.4917 17.6001 24.2V20.9ZM23.1001 51.7H19.8001C19.2166 51.7 18.657 51.4682 18.2444 51.0556C17.8318 50.643 17.6001 50.0835 17.6001 49.5V46.2C17.6001 45.9082 17.7159 45.6285 17.9222 45.4222C18.1285 45.2159 18.4083 45.1 18.7001 45.1C18.9918 45.1 19.2716 45.2159 19.4779 45.4222C19.6842 45.6285 19.8001 45.9082 19.8001 46.2V49.5H23.1001C23.3918 49.5 23.6716 49.6159 23.8779 49.8222C24.0842 50.0285 24.2001 50.3082 24.2001 50.6C24.2001 50.8917 24.0842 51.1715 23.8779 51.3778C23.6716 51.5841 23.3918 51.7 23.1001 51.7ZM48.4001 49.5C48.4001 50.0835 48.1683 50.643 47.7557 51.0556C47.3431 51.4682 46.7835 51.7 46.2001 51.7H42.9001C42.6083 51.7 42.3285 51.5841 42.1222 51.3778C41.9159 51.1715 41.8001 50.8917 41.8001 50.6C41.8001 50.3082 41.9159 50.0285 42.1222 49.8222C42.3285 49.6159 42.6083 49.5 42.9001 49.5H46.2001V46.2C46.2001 45.9082 46.3159 45.6285 46.5222 45.4222C46.7285 45.2159 47.0083 45.1 47.3001 45.1C47.5918 45.1 47.8716 45.2159 48.0779 45.4222C48.2842 45.6285 48.4001 45.9082 48.4001 46.2V49.5ZM42.9001 18.7H46.2001C46.7835 18.7 47.3431 18.9318 47.7557 19.3443C48.1683 19.7569 48.4001 20.3165 48.4001 20.9V24.2C48.4001 24.4917 48.2842 24.7715 48.0779 24.9778C47.8716 25.1841 47.5918 25.3 47.3001 25.3C47.0083 25.3 46.7285 25.1841 46.5222 24.9778C46.3159 24.7715 46.2001 24.4917 46.2001 24.2V20.9H42.9001C42.6083 20.9 42.3285 20.7841 42.1222 20.5778C41.9159 20.3715 41.8001 20.0917 41.8001 19.8C41.8001 19.5082 41.9159 19.2285 42.1222 19.0222C42.3285 18.8159 42.6083 18.7 42.9001 18.7ZM41.8001 23.1C42.3835 23.1 42.9431 23.3318 43.3557 23.7443C43.7683 24.1569 44 24.7165 44 25.3V45.1C44 45.6835 43.7683 46.243 43.3557 46.6556C42.9431 47.0682 42.3835 47.3 41.8001 47.3H24.2001C23.6166 47.3 23.057 47.0682 22.6444 46.6556C22.2318 46.243 22.0001 45.6835 22.0001 45.1V25.3C22.0001 24.7165 22.2318 24.1569 22.6444 23.7443C23.057 23.3318 23.6166 23.1 24.2001 23.1H41.8001Z" fill="#08BDC9"/>
</svg>
