<svg width="19" height="15" viewBox="0 0 19 15" fill="none" xmlns="http://www.w3.org/2000/svg">
<path d="M18.6143 1.33566L8.03634 13.9351C7.9906 13.9898 7.94241 14.0421 7.89422 14.0919C7.81173 14.2021 7.71944 14.3042 7.61816 14.3973C7.22693 14.7289 6.72053 14.8899 6.21006 14.8457C5.69959 14.8008 5.22832 14.555 4.89998 14.1613L0.644561 9.08666C0.317856 8.69624 0.158591 8.19232 0.203504 7.6851C0.24761 7.17789 0.49182 6.70907 0.882234 6.38155C1.69491 5.70037 2.90536 5.80655 3.58662 6.61922L6.72298 10.3494L17.7379 0.436402C17.8596 0.312254 18.0262 0.242012 18.2002 0.242012C18.3741 0.242012 18.5408 0.312254 18.6625 0.436402C18.8666 0.708387 18.8462 1.08736 18.6143 1.33566Z" fill="#FF1B1B"/>
</svg>
