<svg width="1000" height="1000" viewBox="0 0 1000 1000" fill="none" xmlns="http://www.w3.org/2000/svg">
<ellipse opacity="0.17" cx="267.756" cy="994.89" rx="52.0885" ry="5.10994" fill="#8982BC"/>
<path opacity="0.17" d="M208.107 896.246C208.107 899.134 184.793 901.356 156.018 901.356C127.243 901.356 103.93 899.134 103.93 896.246C103.93 893.357 127.243 891.136 156.018 891.136C184.793 891.136 208.107 893.357 208.107 896.246Z" fill="#8982BC"/>
<ellipse opacity="0.17" cx="811.116" cy="905.132" rx="64.6905" ry="5.10994" fill="#8982BC"/>
<path opacity="0.17" d="M473.38 894.468C473.38 896.912 452.796 898.912 427.592 898.912C402.388 898.912 381.805 896.912 381.805 894.468C381.805 892.024 402.388 890.025 427.592 890.025C453.006 889.802 473.38 891.802 473.38 894.468Z" fill="#8982BC"/>
<path d="M212.938 324.154V889.803H781.08V343.039L212.938 324.154Z" fill="#DDD6FF"/>
<path opacity="0.18" d="M365.003 740.281L356.602 893.802L641.828 888.914L365.003 740.281Z" fill="#8982BC"/>
<path d="M368.781 893.135L365 740.281L636.994 724.507L641.825 888.914L368.781 893.135Z" fill="#8982BC"/>
<path opacity="0.18" d="M462.668 521.22L465.818 664.076L746.634 661.632L733.612 494.781L462.668 521.22Z" fill="#8982BC"/>
<path d="M210.207 357.257L781.08 361.479V337.04L210.207 323.043V357.257Z" fill="#EFF3FB"/>
<path d="M210.207 357.258V406.802H781.08V361.479L210.207 357.258Z" fill="#624FB5"/>
<ellipse cx="17.5026" cy="16.6444" rx="17.5026" ry="16.6444" transform="matrix(0.217101 -0.976149 0.970404 0.241488 271.625 396.177)" fill="white"/>
<path d="M303.043 376.143V382.141V388.14H386.216V376.143" fill="white"/>
<path d="M432.637 367.7V399.693H643.091V370.366L432.637 367.7Z" fill="white"/>
<path d="M447.112 379.098V378.317H452.566V379.098H450.279V385.59H449.399V379.098H447.112ZM455.308 385.703C454.782 385.703 454.329 385.587 453.948 385.355C453.569 385.121 453.277 384.794 453.071 384.375C452.867 383.954 452.765 383.464 452.765 382.905C452.765 382.346 452.867 381.854 453.071 381.428C453.277 380.999 453.563 380.666 453.93 380.426C454.299 380.185 454.73 380.064 455.223 380.064C455.507 380.064 455.787 380.112 456.064 380.206C456.341 380.301 456.593 380.455 456.821 380.668C457.048 380.879 457.229 381.158 457.364 381.506C457.499 381.854 457.566 382.283 457.566 382.792V383.147H453.362V382.422H456.714C456.714 382.114 456.653 381.84 456.529 381.598C456.409 381.357 456.236 381.166 456.011 381.027C455.788 380.887 455.526 380.817 455.223 380.817C454.889 380.817 454.6 380.9 454.356 381.066C454.115 381.229 453.929 381.442 453.799 381.705C453.668 381.968 453.603 382.249 453.603 382.55V383.033C453.603 383.445 453.674 383.794 453.816 384.081C453.961 384.365 454.161 384.581 454.417 384.73C454.672 384.877 454.969 384.951 455.308 384.951C455.528 384.951 455.727 384.92 455.904 384.858C456.084 384.794 456.239 384.7 456.37 384.574C456.5 384.446 456.6 384.288 456.672 384.098L457.481 384.326C457.396 384.6 457.253 384.842 457.051 385.05C456.85 385.256 456.602 385.417 456.306 385.533C456.01 385.647 455.677 385.703 455.308 385.703ZM459.32 380.135L460.627 382.365L461.933 380.135H462.899L461.138 382.863L462.899 385.59H461.933L460.627 383.473L459.32 385.59H458.354L460.087 382.863L458.354 380.135H459.32ZM466.467 380.135V380.846H463.641V380.135H466.467ZM464.464 378.828H465.303V384.027C465.303 384.264 465.337 384.442 465.406 384.56C465.477 384.676 465.567 384.754 465.675 384.794C465.787 384.832 465.904 384.851 466.027 384.851C466.119 384.851 466.195 384.846 466.254 384.837C466.313 384.825 466.361 384.816 466.396 384.809L466.567 385.561C466.51 385.583 466.431 385.604 466.329 385.625C466.227 385.649 466.098 385.661 465.942 385.661C465.705 385.661 465.473 385.61 465.246 385.508C465.021 385.406 464.834 385.251 464.685 385.043C464.538 384.835 464.464 384.572 464.464 384.255V378.828Z" fill="#4D7EB7"/>
<ellipse cx="229.532" cy="342.373" rx="3.57058" ry="3.77692" fill="#FC846D"/>
<ellipse cx="245.914" cy="342.373" rx="3.57058" ry="3.77692" fill="#F9D452"/>
<path d="M265.868 342.373C265.868 344.372 264.397 346.15 262.297 346.15C260.407 346.15 258.727 344.594 258.727 342.373C258.727 340.373 260.197 338.596 262.297 338.596C264.397 338.596 265.868 340.151 265.868 342.373Z" fill="#57BE8B"/>
<rect x="258.723" y="446.126" width="7.56123" height="101.31" fill="#C4B9FF"/>
<path d="M282.461 453.68V462.122H386.218L387.478 452.347L282.461 453.68Z" fill="#8982BC"/>
<path d="M457.625 442.349V450.792H746.842L750.413 441.238L457.625 442.349Z" fill="#8982BC"/>
<path d="M457.625 672.296V680.739H746.842L750.413 671.186L457.625 672.296Z" fill="#8982BC"/>
<path d="M457.625 471.454V479.896H567.683L569.153 470.343L457.625 471.454Z" fill="#8982BC"/>
<path d="M457.625 701.845V710.287H567.683L569.153 700.512L457.625 701.845Z" fill="#8982BC"/>
<path d="M283.508 479.896V488.561H387.055L387.475 480.785L283.508 479.896Z" fill="#8982BC"/>
<path d="M283.086 508.111V516.554H386.633L387.053 508.778L283.086 508.111Z" fill="#8982BC"/>
<path d="M283.086 538.994V547.659H386.633L387.053 539.883L283.086 538.994Z" fill="#8982BC"/>
<path d="M462.668 513.444L474.43 664.298L745.584 640.748L733.612 486.783L462.668 513.444Z" fill="#FE9887"/>
<g opacity="0.18">
<path d="M706.309 644.749C703.998 639.861 702.528 634.529 701.478 629.197C701.268 628.308 701.268 627.419 701.478 626.531C701.898 624.531 704.208 623.42 706.099 623.642C707.989 623.864 709.669 625.197 710.929 626.753C712.19 628.308 713.45 630.085 714.71 631.418C715.76 632.307 716.81 633.196 717.86 633.862C720.381 635.417 723.321 636.75 726.052 637.861C727.942 638.528 729.832 638.972 731.093 640.305C729.202 641.194 726.892 641.194 724.792 641.194C718.281 640.972 711.769 641.86 705.258 643.416C705.679 642.971 706.519 642.749 707.149 642.971" fill="#8982BC"/>
</g>
<g opacity="0.18">
<path d="M744.535 608.533C739.285 605.645 737.814 598.758 736.344 592.759C733.824 581.651 729.623 570.987 723.952 561.211C722.902 559.434 721.852 557.656 721.432 555.657C720.802 551.658 722.902 547.658 726.262 545.659C729.623 543.659 733.614 543.437 737.184 544.326L744.535 608.533Z" fill="#8982BC"/>
</g>
<path d="M769.32 844.924L772.681 850.7L776.882 848.479L773.101 842.258L769.32 844.924Z" fill="#DDD6FF"/>
<path d="M788.436 864.697C788.436 864.697 769.743 860.032 766.803 862.476C763.862 864.92 788.436 868.252 788.436 868.252V864.697Z" fill="#3F327A"/>
<path d="M718.702 640.305C718.702 640.305 718.912 630.307 718.282 630.307C716.602 629.863 716.392 634.973 716.392 634.973C716.392 634.973 713.451 625.197 712.191 625.642C711.351 625.864 712.401 631.64 712.401 631.64C712.401 631.64 710.091 627.197 708.83 627.419C707.78 627.641 710.091 633.862 710.091 633.862C710.091 633.862 707.99 630.974 706.94 631.196C706.1 631.418 713.661 644.748 713.661 644.748L718.702 640.305Z" fill="#F7D3A9"/>
<path d="M758.187 716.51C758.187 716.51 728.572 754.501 743.275 799.158C758.187 843.814 768.059 848.48 768.059 848.48L776.67 843.814C776.67 843.814 760.077 802.046 759.447 786.938C758.817 773.163 781.501 740.727 781.501 740.727L776.88 863.587L787.802 865.143C787.802 865.143 816.997 727.396 813.846 716.732C810.906 705.623 797.884 690.071 758.187 716.51Z" fill="#3F327A"/>
<path d="M751.675 664.299L758.186 716.287L811.325 709.622L789.691 628.529L773.729 631.195L762.387 632.528C755.876 633.417 751.885 634.528 747.264 639.416L728.781 661.855L719.54 638.527L711.559 642.748C711.559 642.748 718.07 685.183 728.571 680.962C735.712 678.074 751.675 664.299 751.675 664.299Z" fill="#FFC359"/>
<path d="M742.649 563.656C742.649 563.656 754.411 594.982 755.881 599.87C757.351 604.758 789.697 628.53 789.697 628.53L773.734 636.306L742.439 605.647L735.508 563.656L742.649 563.656Z" fill="#FFC359"/>
<path d="M754.831 596.759L750.42 613.199C749.37 616.754 751.471 620.753 754.831 621.642L756.931 622.308V634.083H766.383C769.744 634.083 772.474 631.195 772.474 627.641V600.98L754.831 596.759Z" fill="#F7D3A9"/>
<path d="M763.86 623.197C762.179 621.864 759.659 619.42 759.659 616.087C759.659 616.087 766.17 615.865 764.49 610.978C763.44 608.089 759.659 610.311 759.659 610.311C759.659 610.311 761.129 604.312 760.289 602.313C760.289 602.313 748.947 602.313 750.838 595.203C750.838 595.203 753.988 592.093 761.129 591.871C768.27 591.426 772.051 604.09 772.051 604.09L766.17 622.308C765.54 623.419 764.49 623.864 763.86 623.197Z" fill="#353E70"/>
<path d="M735.712 563.655C735.712 563.655 729.831 555.879 730.041 555.435C731.091 553.88 734.241 557.657 734.241 557.657C734.241 557.657 730.671 548.103 732.141 547.437C732.981 547.215 735.292 552.325 735.292 552.325C735.292 552.325 734.451 547.215 735.502 546.548C736.552 546.104 738.232 552.325 738.232 552.325C738.232 552.325 738.232 548.77 739.282 548.325C739.912 548.103 742.013 563.433 742.013 563.433H735.712V563.655Z" fill="#F7D3A9"/>
<path d="M763.65 655.412C763.65 655.635 763.02 655.857 761.76 656.968C760.709 657.856 759.029 659.189 757.349 660.522C753.778 663.188 750.838 665.188 750.628 664.966C750.418 664.744 753.358 662.522 756.719 659.856C758.399 658.523 760.079 657.412 761.34 656.523C762.81 655.412 763.65 655.19 763.65 655.412Z" fill="#D69E43"/>
<path d="M772.469 623.642C772.469 623.642 772.469 623.642 772.679 623.642C772.889 623.642 772.889 624.086 773.099 624.308C773.099 624.975 773.099 625.863 772.889 626.752C772.679 627.863 772.469 628.974 771.629 630.307C771.209 630.973 770.789 631.418 770.159 632.084C769.529 632.528 768.899 632.973 768.058 633.195C765.118 634.084 762.388 634.306 760.287 634.306C758.397 634.306 757.137 634.084 757.137 633.861C757.137 633.639 758.397 633.861 760.287 633.639C762.177 633.417 764.908 633.195 767.638 632.306C769.109 631.862 769.949 630.973 770.789 629.862C771.419 628.751 771.839 627.641 772.049 626.53C772.259 625.641 772.469 624.752 772.469 624.086C772.679 623.864 772.259 623.642 772.469 623.642Z" fill="#D69E43"/>
<path d="M728.154 669.187C728.154 669.187 728.364 669.409 728.364 669.853H727.944C727.734 669.187 727.734 667.631 727.734 666.076C727.944 663.632 728.364 661.633 728.574 661.633C728.785 661.633 728.785 663.632 728.574 666.076C728.574 667.631 728.364 669.187 728.364 669.853H727.944C727.944 669.409 728.154 669.187 728.154 669.187Z" fill="#D69E43"/>
<path d="M730.047 667.41C729.837 667.41 729.417 665.855 728.996 664.077C728.576 662.078 728.576 660.522 728.786 660.522C728.996 660.522 729.416 662.078 729.837 663.855C730.047 665.855 730.257 667.41 730.047 667.41Z" fill="#D69E43"/>
<path d="M720.176 640.748C720.176 640.97 718.286 641.859 715.765 642.97C713.245 643.859 711.145 644.525 711.145 644.303C711.145 644.081 713.035 643.192 715.555 642.081C718.076 641.193 720.176 640.526 720.176 640.748Z" fill="#D69E43"/>
<path d="M808.808 704.734C808.808 704.734 808.178 705.179 807.128 705.845C805.867 706.512 804.187 707.178 801.877 707.845C797.256 709.178 790.745 710.733 783.604 712.066C780.033 712.732 776.673 713.399 773.522 713.843C770.372 714.288 767.641 714.732 765.121 714.954C762.81 715.176 760.71 714.954 759.45 714.51C758.19 714.288 757.349 713.843 757.56 713.843C757.56 713.843 758.19 714.066 759.66 714.288C760.92 714.51 762.81 714.51 765.331 714.288C767.641 714.066 770.582 713.621 773.522 712.955C776.673 712.51 780.033 711.844 783.604 711.177C790.745 709.844 797.256 708.289 801.877 707.178C804.187 706.512 806.077 705.845 807.128 705.401C808.178 705.179 808.808 704.734 808.808 704.734Z" fill="#D69E43"/>
<path opacity="0.25" d="M763.227 654.968C763.227 654.968 760.076 679.185 753.565 682.961L751.465 665.188L763.227 654.968Z" fill="#8982BC"/>
<path d="M753.145 600.98C752.095 599.869 751.045 598.981 750.415 597.648C749.995 596.093 750.625 592.316 751.885 591.427C753.355 590.538 755.246 591.427 756.926 591.649C759.446 592.094 761.967 590.983 764.697 590.76C767.218 590.538 770.368 591.427 771.208 593.871C771.418 594.315 771.418 594.982 772.048 595.204C772.258 595.204 772.468 595.204 772.678 595.204C774.779 594.982 776.039 597.426 776.039 599.647C775.829 601.869 774.779 603.646 774.359 605.646C773.309 610.089 775.199 615.199 773.309 619.421C771.838 622.753 767.218 625.641 764.067 623.198L768.058 604.091L753.145 600.98Z" fill="#353E70"/>
<path d="M776.879 848.479C776.879 848.479 759.447 856.7 758.396 860.477C757.346 864.254 778.98 851.146 778.98 851.146L776.879 848.479Z" fill="#3F327A"/>
<path d="M759.45 781.161C759.66 781.383 757.35 782.938 754.409 784.716C751.469 786.493 748.948 787.382 748.738 787.16C748.738 786.938 751.049 785.604 753.989 783.827C756.93 782.272 759.24 780.939 759.45 781.161Z" fill="#2C2656"/>
<path d="M759.237 786.493C759.237 786.715 757.557 787.382 755.457 788.715C753.356 790.048 751.886 791.159 751.676 790.936C751.466 790.714 752.936 789.159 755.037 787.826C757.137 786.715 759.237 786.271 759.237 786.493Z" fill="#2C2656"/>
<path d="M797.882 796.936C797.882 797.158 794.941 796.714 791.791 795.603C788.43 794.492 785.91 793.159 785.91 792.937C785.91 792.714 788.641 793.603 792.001 794.714C795.152 795.825 797.882 796.714 797.882 796.936Z" fill="#2C2656"/>
<path d="M798.724 795.158C798.724 795.38 795.993 794.714 792.633 793.159C789.482 791.826 787.172 790.048 787.172 789.826C787.382 789.604 789.902 790.937 793.053 792.27C796.203 793.825 798.724 794.936 798.724 795.158Z" fill="#2C2656"/>
<path d="M769.321 845.368C769.531 845.146 769.951 845.59 770.371 846.479C770.791 847.145 771.001 847.812 770.791 848.034C770.581 848.256 770.161 847.812 769.741 846.923C769.321 846.035 769.111 845.368 769.321 845.368Z" fill="#2C2656"/>
<path d="M763.652 834.926C763.862 834.704 764.702 835.814 765.333 837.37C766.173 838.703 766.593 840.036 766.383 840.258C766.173 840.48 765.333 839.369 764.702 837.814C764.072 836.481 763.652 835.148 763.652 834.926Z" fill="#2C2656"/>
<path d="M758.82 824.263C759.03 824.263 759.66 825.374 760.291 826.707C760.921 828.262 761.341 829.373 761.131 829.595C760.921 829.595 760.291 828.484 759.66 827.151C759.03 825.818 758.61 824.485 758.82 824.263Z" fill="#2C2656"/>
<path d="M754.618 813.376C754.828 813.376 755.459 814.487 756.089 816.042C756.719 817.597 756.929 818.93 756.719 818.93C756.509 818.93 755.879 817.819 755.248 816.264C754.828 814.709 754.408 813.376 754.618 813.376Z" fill="#2C2656"/>
<path d="M751.262 802.045C751.472 802.045 752.102 803.156 752.522 804.711C752.942 806.266 753.152 807.599 752.942 807.599C752.732 807.599 752.102 806.488 751.682 804.933C751.262 803.378 751.052 802.045 751.262 802.045Z" fill="#2C2656"/>
<path d="M748.524 790.492C748.735 790.492 749.155 791.603 749.575 793.38C749.995 794.936 749.995 796.269 749.785 796.269C749.575 796.269 749.155 795.158 748.735 793.38C748.524 791.825 748.314 790.492 748.524 790.492Z" fill="#2C2656"/>
<path d="M747.481 778.717C747.691 778.717 747.901 780.05 748.111 781.605C748.111 783.16 748.111 784.493 747.901 784.493C747.691 784.493 747.481 783.16 747.271 781.605C747.061 780.05 747.271 778.717 747.481 778.717Z" fill="#2C2656"/>
<path d="M747.9 766.72C748.11 766.72 748.11 768.053 748.11 769.608C747.9 771.163 747.69 772.496 747.48 772.496C747.27 772.496 747.27 771.163 747.27 769.608C747.48 768.053 747.69 766.72 747.9 766.72Z" fill="#2C2656"/>
<path d="M750.004 755.167C750.214 755.167 750.214 756.5 749.794 758.055C749.374 759.61 748.953 760.943 748.743 760.943C748.533 760.943 748.533 759.61 748.953 758.055C749.374 756.278 749.794 755.167 750.004 755.167Z" fill="#2C2656"/>
<path d="M753.575 743.837C753.785 743.837 753.575 745.17 752.944 746.725C752.314 748.28 751.894 749.391 751.684 749.391C751.474 749.391 751.684 748.058 752.314 746.503C752.734 744.948 753.365 743.837 753.575 743.837Z" fill="#2C2656"/>
<path d="M758.403 733.172C758.613 733.394 758.193 734.505 757.563 736.06C756.933 737.615 756.093 738.504 755.883 738.504C755.673 738.504 756.093 737.171 756.723 735.616C757.563 734.061 758.193 733.172 758.403 733.172Z" fill="#2C2656"/>
<path d="M764.488 723.174C764.698 723.396 764.068 724.507 763.228 725.84C762.388 727.173 761.548 728.284 761.338 728.062C761.128 727.84 761.758 726.729 762.598 725.396C763.438 724.063 764.278 722.952 764.488 723.174Z" fill="#2C2656"/>
<path d="M769.532 716.064C769.742 716.287 769.532 716.953 768.901 717.397C768.481 718.064 767.851 718.508 767.641 718.286C767.431 718.064 767.641 717.397 768.271 716.953C768.901 716.287 769.321 716.064 769.532 716.064Z" fill="#2C2656"/>
<path d="M844.934 905.133C844.304 905.355 836.953 869.363 828.551 824.706C819.94 780.272 813.639 744.058 814.059 743.836C814.689 743.614 822.04 779.606 830.442 824.262C839.053 868.919 845.564 904.91 844.934 905.133Z" fill="#8982BC"/>
<path d="M870.137 905.133C869.507 905.355 862.156 869.363 853.754 824.706C845.143 780.272 838.842 744.058 839.262 743.836C839.892 743.614 847.243 779.606 855.645 824.262C864.256 868.919 870.767 904.91 870.137 905.133Z" fill="#8982BC"/>
<rect x="769.32" y="728.729" width="75.8223" height="15.1077" fill="#8982BC"/>
<path d="M803.346 736.505C803.976 736.505 798.095 774.496 790.534 820.93C782.973 867.586 776.251 905.133 775.831 905.133C775.201 905.133 781.082 867.142 788.644 820.486C796.205 774.052 802.716 736.283 803.346 736.505Z" fill="#8982BC"/>
<path d="M782.971 736.505C783.601 736.505 777.72 774.496 770.159 820.93C762.598 867.586 755.877 905.133 755.456 905.133C754.826 905.133 760.707 867.142 768.269 820.486C775.83 774.052 782.551 736.283 782.971 736.505Z" fill="#8982BC"/>
<path d="M827.082 811.154H852.076L853.336 817.375H828.132L827.082 811.154Z" fill="#8982BC"/>
<path d="M778.981 888.248C778.981 888.914 774.57 890.025 768.689 890.914C763.018 891.803 758.188 892.025 758.188 891.358C758.188 890.692 762.598 889.581 768.479 888.692C774.15 888.026 778.771 887.803 778.981 888.248Z" fill="#8982BC"/>
<path d="M781.082 874.251C781.082 874.917 776.672 876.028 770.791 876.917C765.12 877.806 760.289 878.028 760.289 877.361C760.289 876.695 764.7 875.584 770.581 874.695C776.252 873.806 781.082 873.584 781.082 874.251Z" fill="#8982BC"/>
<path d="M783.395 858.033C783.395 858.7 778.984 859.81 773.103 860.699C767.432 861.588 762.602 861.81 762.602 861.144C762.602 860.477 767.012 859.366 772.893 858.477C778.564 857.589 783.395 857.367 783.395 858.033Z" fill="#8982BC"/>
<path d="M786.122 841.813C786.122 842.48 781.711 843.591 775.83 844.479C770.159 845.368 765.328 845.59 765.328 844.924C765.328 844.257 769.739 843.146 775.62 842.258C781.291 841.369 785.912 841.147 786.122 841.813Z" fill="#8982BC"/>
<path d="M788.012 827.372C788.012 828.038 783.601 829.149 777.721 830.038C772.05 830.927 767.219 831.149 767.219 830.482C767.219 829.816 771.629 828.705 777.51 827.816C783.181 826.928 787.802 826.705 788.012 827.372Z" fill="#8982BC"/>
<path d="M791.379 812.709C791.379 813.375 786.969 814.486 781.088 815.375C775.417 816.264 770.586 816.486 770.586 815.819C770.586 815.153 774.997 814.042 780.878 813.153C786.759 812.264 791.379 812.042 791.379 812.709Z" fill="#8982BC"/>
<path d="M793.684 796.935C793.684 797.602 789.273 798.713 783.392 799.601C777.721 800.49 772.891 800.712 772.891 800.046C772.891 799.379 777.301 798.268 783.182 797.38C788.853 796.491 793.684 796.269 793.684 796.935Z" fill="#8982BC"/>
<path d="M796.414 779.605C796.414 780.272 792.004 781.383 786.123 782.271C780.452 783.16 775.621 783.382 775.621 782.716C775.621 782.049 780.032 780.938 785.913 780.05C791.584 779.161 796.414 778.939 796.414 779.605Z" fill="#8982BC"/>
<path d="M799.989 760.276C799.989 760.943 795.578 762.054 789.697 762.942C784.026 763.831 779.195 764.053 779.195 763.387C779.195 762.72 783.606 761.609 789.487 760.721C795.158 759.832 799.779 759.61 799.989 760.276Z" fill="#8982BC"/>
<path d="M112.963 738.726C112.963 738.726 109.602 749.168 111.913 756.721C114.223 764.275 116.533 761.609 116.533 761.609C116.533 761.609 114.853 758.721 115.273 754.5C115.693 750.278 116.533 748.945 116.533 748.945L118.424 757.832C118.424 757.832 119.054 756.055 119.684 753.389C120.314 750.723 118.424 745.835 118.844 743.169C119.264 740.725 120.104 737.837 120.104 737.837L112.963 738.726Z" fill="#F7D3A9"/>
<path d="M249.906 600.534L250.536 596.535C250.536 596.535 246.755 587.648 247.805 585.871C249.066 583.871 252.846 580.316 252.846 580.316L255.157 580.761C255.157 580.761 259.357 586.537 259.777 588.537C260.197 590.536 257.677 597.424 255.997 602.756L249.906 600.534Z" fill="#F7D3A9"/>
<path d="M250.957 576.095L253.057 594.313L255.368 593.869L253.057 575.873L251.797 572.763L250.957 576.095Z" fill="#7FBBEF"/>
<path d="M250.324 582.76L252.845 580.316C252.845 580.316 254.105 582.982 251.374 585.871L250.324 582.76Z" fill="#F7D3A9"/>
<path d="M192.778 885.357L192.988 892.023L188.577 892.689L188.367 885.357H192.778Z" fill="#F7D3A9"/>
<path d="M188.576 892.689C188.576 892.689 207.479 889.135 210.21 891.579C212.94 894.022 188.156 896.244 188.156 896.244L188.576 892.689Z" fill="#3F327A"/>
<path d="M126.824 861.808L121.573 865.585L118.633 861.808L124.514 857.809L126.824 861.808Z" fill="#F7D3A9"/>
<path d="M118.632 861.808C118.632 861.808 131.234 876.915 130.814 880.914C130.184 884.691 115.691 863.363 115.691 863.363L118.632 861.808Z" fill="#3F327A"/>
<path d="M200.337 719.396C200.337 719.396 216.089 734.725 216.509 792.046C216.719 849.366 197.816 887.357 197.816 887.357H184.584C184.584 887.357 206.428 815.374 181.854 767.829C181.854 767.829 173.662 823.372 130.185 865.807L119.684 854.032C119.684 854.032 151.819 811.375 152.029 758.276C152.029 747.833 153.709 742.279 150.349 730.504L200.337 719.396Z" fill="#624FB5"/>
<path d="M191.308 654.967C191.308 654.967 232.685 643.192 243.186 612.532L249.067 598.535L257.049 601.423C257.049 601.423 254.948 657.633 203.7 672.963L202.86 676.295C199.289 690.959 199.079 706.51 202.44 721.174L207.691 732.505L152.452 745.613C152.452 745.613 145.52 716.953 152.031 686.737C152.031 686.737 140.06 683.849 119.896 743.613L112.125 742.058C112.125 742.058 123.257 661.854 163.373 650.745L191.308 654.967Z" fill="#FE9887"/>
<path d="M192.149 622.085L195.299 637.415C195.929 640.747 193.829 644.302 190.679 644.969L188.788 645.413L188.158 656.077L174.086 654.966L176.186 624.751L192.149 622.085Z" fill="#F7D3A9"/>
<path d="M180.807 646.524C180.807 646.524 186.478 643.858 186.688 639.414C186.688 639.414 179.337 634.527 181.858 632.527C184.378 630.527 188.369 635.415 188.369 635.415C188.369 635.415 186.268 628.528 187.108 626.751C187.108 626.751 197.4 627.417 196.14 620.974C196.14 620.974 193.409 618.086 186.898 617.197C180.387 616.308 175.977 627.639 175.977 627.639L180.807 646.524Z" fill="#353E70"/>
<path d="M185.219 617.863C183.749 616.53 181.649 616.086 179.758 616.086C174.928 616.086 169.887 618.53 166.946 622.529C163.796 626.528 162.536 632.082 163.586 637.192C163.796 638.303 164.216 639.414 164.846 640.525C166.526 643.191 169.467 644.302 172.197 645.19C174.718 646.079 178.918 647.634 181.019 646.079C181.019 646.079 177.868 635.415 179.758 628.972C181.649 622.751 185.219 617.863 185.219 617.863Z" fill="#353E70"/>
<path d="M164.844 629.194C161.064 626.083 154.763 626.972 152.032 630.971C150.142 633.637 149.722 637.414 147.201 639.413C144.261 641.857 140.06 640.746 136.49 640.302C129.979 639.858 123.047 642.746 119.477 648.523C115.906 654.299 116.326 662.742 121.157 667.407C124.308 670.517 128.928 671.628 133.129 671.184C137.33 670.962 141.53 669.185 145.521 667.629C151.192 665.185 157.283 661.409 159.173 655.188C160.434 650.966 159.383 646.079 160.013 641.635C160.224 640.302 160.644 638.747 161.694 638.303C162.534 637.858 163.794 638.303 164.634 638.303C167.155 638.08 168.625 634.97 167.785 632.526C166.945 630.082 164.634 628.527 162.324 627.861" fill="#353E70"/>
<path d="M171.773 651.855C168.202 654.299 164.632 656.743 161.691 660.076C158.751 663.408 156.441 667.407 156.23 672.073C156.23 673.184 156.23 674.517 157.071 675.183C157.491 675.628 158.121 675.85 158.541 676.072C162.952 677.405 167.362 674.517 171.143 671.851C177.444 667.407 183.955 662.964 188.786 656.743C189.206 656.299 189.416 655.632 189.206 655.188C188.996 654.966 188.786 654.744 188.366 654.522C184.165 652.966 176.394 653.188 171.773 651.855Z" fill="#624FB5"/>
<path d="M189.626 657.41C189.626 657.41 189.416 657.633 189.206 658.077C188.995 658.521 188.575 659.188 187.945 659.854C187.735 660.299 187.315 660.743 187.105 661.187C186.685 661.632 186.265 662.076 185.845 662.743C185.425 663.187 185.005 663.853 184.375 664.52C183.955 665.186 183.325 665.631 182.694 666.297C180.384 668.741 177.444 671.629 173.453 674.073C171.563 675.406 169.462 676.295 167.152 677.184C164.842 678.072 162.321 678.739 159.801 678.739C158.541 678.739 157.28 678.739 156.02 678.739C155.39 678.739 154.76 678.517 154.13 678.072C153.5 677.628 153.08 677.184 152.87 676.517C152.45 675.184 152.66 673.851 153.08 672.518C153.5 671.407 153.71 670.074 154.13 669.185C154.97 666.964 156.44 665.186 157.7 663.631C158.961 662.076 160.221 660.743 161.481 659.41C163.791 656.966 165.892 654.966 167.362 653.633C167.992 652.967 168.622 652.523 169.042 652.078C169.462 651.856 169.672 651.634 169.672 651.634C169.672 651.634 169.462 651.856 169.252 652.3C168.832 652.745 168.412 653.189 167.782 653.856C166.522 655.189 164.421 657.188 162.111 659.632C160.851 660.965 159.801 662.298 158.541 663.853C157.28 665.408 156.02 667.186 155.18 669.408C154.76 670.518 154.55 671.629 154.13 672.74C153.71 673.851 153.5 675.184 153.92 676.073C154.34 677.184 155.39 677.628 156.44 677.85C157.7 678.072 158.961 678.072 160.221 677.85C162.741 677.628 165.052 676.961 167.362 676.295C169.672 675.406 171.563 674.295 173.453 673.184C177.234 670.741 180.174 668.074 182.484 665.631C183.115 664.964 183.535 664.52 184.165 663.853C184.585 663.187 185.215 662.742 185.635 662.076C186.055 661.632 186.475 660.965 186.895 660.521C187.315 660.076 187.525 659.632 187.945 659.188C188.575 658.521 188.996 657.855 189.206 657.41C189.416 657.633 189.416 657.41 189.626 657.41Z" fill="#CE6C5F"/>
<path d="M189.625 661.63C189.625 661.63 188.995 662.074 187.734 663.185C186.684 664.296 185.214 665.851 183.744 668.295C182.484 670.739 181.433 673.849 180.173 677.404C179.543 679.182 178.913 680.959 178.073 682.958C177.233 684.736 175.973 686.735 174.502 688.291C172.822 690.068 170.722 691.179 168.831 691.845C167.781 692.29 166.941 692.512 165.891 692.734C164.841 692.956 163.791 692.956 162.74 692.29C161.69 691.845 161.06 690.957 160.85 689.846C160.43 688.957 160.43 687.846 160.43 686.957C160.64 685.18 161.27 683.625 161.69 682.292L162.11 682.514C161.69 683.181 160.85 683.181 160.43 683.181C159.8 683.181 159.38 682.736 158.96 682.292C158.33 681.403 158.33 680.515 158.54 679.848C158.75 679.182 158.96 678.737 159.17 678.515C159.38 678.293 159.59 678.071 159.59 678.071C159.59 678.071 159.17 678.737 158.75 679.848C158.54 680.514 158.75 681.403 159.17 682.07C159.38 682.292 159.8 682.514 160.43 682.736C160.85 682.736 161.48 682.736 161.69 682.292L162.74 680.959L162.11 682.514C161.69 683.847 161.06 685.402 160.85 686.957C160.85 687.846 160.85 688.735 161.27 689.401C161.69 690.29 162.11 690.957 162.95 691.401C163.791 691.845 164.631 691.845 165.681 691.623C166.521 691.401 167.571 691.179 168.621 690.734C170.512 690.068 172.402 688.957 174.082 687.18C175.552 685.624 176.603 683.847 177.443 682.07C178.283 680.292 178.913 678.515 179.753 676.738C181.013 673.183 182.064 670.072 183.534 667.406C185.004 664.962 186.474 663.185 187.734 662.296C187.944 662.074 188.365 661.852 188.575 661.63C188.785 661.408 188.995 661.408 189.205 661.186C189.415 661.63 189.625 661.63 189.625 661.63Z" fill="#CE6C5F"/>
<path opacity="0.18" d="M166.524 693.402C166.524 693.402 162.324 706.732 172.615 699.4C183.117 691.847 184.587 664.52 184.587 664.52C184.587 664.52 177.446 691.847 166.524 693.402Z" fill="#8982BC"/>
<path d="M206.85 821.817C206.85 822.039 204.119 822.039 200.759 822.483C197.398 822.927 194.878 823.594 194.668 823.372C194.668 823.15 197.188 822.039 200.549 821.594C204.119 821.15 206.85 821.594 206.85 821.817Z" fill="#453C87"/>
<path d="M208.528 817.15C208.528 817.15 207.898 817.816 206.848 818.483C205.798 819.15 203.907 819.816 202.017 820.038C200.127 820.26 198.236 820.038 196.976 819.816C195.716 819.372 195.086 819.15 195.086 818.927C195.086 818.705 198.236 819.816 202.017 819.15C205.798 818.705 208.528 816.928 208.528 817.15Z" fill="#453C87"/>
<path d="M159.17 811.375C159.17 811.597 156.86 810.486 154.97 807.82C153.08 805.376 152.659 802.71 152.869 802.71C153.08 802.71 153.92 804.932 155.6 807.376C157.28 809.597 159.17 811.153 159.17 811.375Z" fill="#453C87"/>
<path d="M157.907 812.708C157.697 812.708 157.697 812.264 157.067 811.82C156.437 811.375 155.596 810.709 154.546 810.264C152.446 808.931 150.766 808.043 150.766 807.82C150.766 807.598 152.656 808.265 154.756 809.598C155.806 810.264 156.647 810.931 157.277 811.597C158.117 812.042 158.117 812.708 157.907 812.708Z" fill="#453C87"/>
<path d="M193.827 772.05C193.827 772.05 192.567 772.273 190.466 771.606C188.366 770.94 185.845 769.384 182.905 768.051C179.964 766.496 177.444 765.163 175.554 764.052C173.663 762.941 172.613 762.275 172.613 762.053C172.613 762.053 173.873 762.497 175.764 763.386C177.654 764.274 180.385 765.607 183.115 767.163C186.055 768.718 188.576 770.273 190.466 770.94C192.567 771.828 193.827 771.828 193.827 772.05Z" fill="#453C87"/>
<g opacity="0.18">
<path d="M421.292 324.598C418.352 327.042 417.512 331.93 418.562 335.707C419.612 339.706 421.923 343.039 424.233 346.149C430.114 354.147 436.415 362.145 443.136 369.699C446.287 373.476 449.647 377.031 452.167 381.252C462.459 398.137 459.099 420.354 460.989 440.35C461.409 444.793 463.509 450.57 467.71 450.347C469.39 450.347 470.65 449.459 472.121 448.348C480.942 441.905 486.403 430.796 486.613 419.466C486.613 416.133 486.403 412.8 487.243 409.69C488.713 405.247 492.284 402.358 495.225 399.026C501.315 391.916 504.046 382.585 506.776 373.476C509.717 363.034 512.657 351.481 508.037 341.706C504.676 334.818 497.955 330.597 491.234 327.709C469.18 318.378 444.606 321.932 421.082 325.487" fill="#8982BC"/>
</g>
<path d="M479.683 444.572L479.893 451.237L475.273 451.904L475.062 444.572H479.683Z" fill="#F7D3A9"/>
<path d="M475.272 451.904C475.272 451.904 494.175 448.349 496.905 450.793C499.636 453.237 474.852 455.459 474.852 455.459L475.272 451.904Z" fill="#3F327A"/>
<path d="M493.332 408.134L490.181 413.911L485.98 411.911L489.551 405.69L493.332 408.134Z" fill="#F7D3A9"/>
<path d="M485.979 411.91C485.979 411.91 503.622 419.686 504.672 423.463C505.722 427.24 483.879 414.576 483.879 414.576L485.979 411.91Z" fill="#3F327A"/>
<path d="M485.142 247.06C492.493 242.173 483.041 237.951 491.863 238.618C493.753 238.618 496.063 238.84 497.534 237.729C499.634 236.174 500.054 233.064 499.424 230.398C498.164 223.955 492.493 219.067 486.192 218.845C477.79 218.622 470.649 226.176 462.248 225.732C459.097 225.51 456.157 224.177 453.006 223.288C444.185 220.4 432.633 221.955 428.222 230.62C426.962 232.841 426.542 235.508 425.072 237.729C421.291 244.172 413.31 245.283 407.429 249.282C400.918 253.726 396.927 262.39 397.767 270.611C398.187 273.943 399.238 277.72 401.968 279.72C401.968 279.72 411 291.939 431.373 279.72C451.746 267.5 485.142 247.06 485.142 247.06Z" fill="#FE9887"/>
<path d="M468.129 269.944C471.279 266.167 519.797 322.377 530.299 328.375C540.591 334.374 538.28 328.375 538.28 328.375L517.487 303.936L477.58 256.392L468.129 269.944Z" fill="#624FB5"/>
<path d="M474.222 248.838C465.401 244.394 454.899 245.505 447.338 251.948L447.128 252.17C433.685 263.501 416.883 285.718 421.923 323.709L469.181 317.711C469.181 317.711 462.46 309.268 471.071 284.163C475.692 270.388 479.893 257.502 479.893 257.502L474.222 248.838Z" fill="#C4B9FF"/>
<path d="M449.018 266.833C449.018 266.833 453.009 311.712 468.971 317.711C484.934 323.709 513.709 323.709 513.709 323.709C513.709 323.709 516.019 320.599 485.354 312.823C484.094 312.601 482.834 312.156 481.363 311.934C481.363 311.934 463.93 301.27 464.981 268.833C464.981 267.278 464.981 265.945 464.771 264.389C464.14 259.724 461.83 249.948 455.529 250.837C447.128 251.948 449.018 266.833 449.018 266.833Z" fill="#624FB5"/>
<path d="M421.922 323.71C421.922 323.71 457.838 369.477 465.189 383.03C472.33 396.582 469.18 444.793 471.49 446.126C473.8 447.459 483.042 446.126 483.042 446.126L483.672 409.69L484.092 390.583C484.302 381.474 482.832 372.365 479.681 363.701L470.02 336.596C470.02 336.596 509.716 339.262 502.785 360.368C493.964 386.806 485.982 407.024 485.982 407.024L493.964 410.357C493.964 410.357 531.56 360.368 522.738 338.373C513.917 316.378 469.18 318.155 469.18 318.155L421.922 323.71Z" fill="#FFC359"/>
<path d="M499.636 236.619L493.335 250.838C491.864 253.949 488.294 255.282 485.353 253.726L483.673 252.838L480.733 256.393C478.632 258.836 475.062 259.059 472.751 256.837L471.281 255.504C468.551 252.838 468.341 248.617 470.651 245.728L485.353 228.177L499.636 236.619Z" fill="#F7D3A9"/>
<path d="M476.531 248.838C476.531 248.838 482.412 250.394 485.143 247.061C485.143 247.061 481.992 238.619 485.143 238.396C488.293 238.396 488.503 244.839 488.503 244.839C488.503 244.839 490.814 237.952 492.494 237.285C492.494 237.285 500.265 244.617 502.996 238.619C502.996 238.619 502.575 234.619 497.955 229.732C493.334 224.844 484.093 227.51 484.093 227.51L476.531 248.838Z" fill="#FE9887"/>
<path d="M479.683 257.281C479.683 257.281 479.683 257.503 479.263 257.947C478.843 258.392 478.213 258.614 477.373 258.836C476.533 258.836 475.483 259.058 474.223 258.836C473.592 258.836 472.962 258.614 472.332 258.17C471.702 257.725 471.282 257.281 470.862 256.614C469.182 254.171 468.762 251.504 468.762 249.727C468.762 247.95 469.182 246.839 469.392 246.839C469.602 246.839 469.392 247.95 469.392 249.727C469.392 251.504 470.022 253.948 471.492 256.17C471.912 256.614 472.332 257.059 472.752 257.503C473.172 257.725 473.803 257.947 474.223 257.947C475.273 258.17 476.323 257.947 477.163 257.947C478.003 257.947 478.633 257.725 479.053 257.503C479.473 257.503 479.683 257.281 479.683 257.281Z" fill="#624FB5"/>
<path d="M455.106 262.168C455.106 262.168 454.686 263.057 453.846 264.39C453.006 265.945 451.956 267.944 450.485 270.388C447.755 275.498 443.764 282.608 440.824 290.828C439.354 295.049 438.303 299.048 437.673 303.048C437.043 306.824 436.833 310.379 436.833 313.267C436.833 316.156 437.043 318.6 437.253 320.155C437.463 321.71 437.673 322.599 437.673 322.599C437.673 322.599 437.673 322.376 437.463 321.932C437.463 321.488 437.253 320.821 437.043 320.155C436.623 318.6 436.413 316.156 436.203 313.267C436.203 310.379 436.203 306.824 436.833 302.825C437.463 299.048 438.514 294.827 439.984 290.606C443.134 282.163 447.125 275.054 450.065 270.166C451.536 267.722 452.796 265.723 453.636 264.39C454.476 262.835 454.896 262.168 455.106 262.168Z" fill="#624FB5"/>
<path d="M467.078 245.283C467.078 245.283 471.489 248.615 476.53 248.837C481.57 249.059 484.721 226.62 484.721 226.62L467.078 245.283Z" fill="#FE9887"/>
<path d="M446.919 325.486C446.919 325.486 447.339 326.375 447.129 327.93C447.129 329.485 446.709 331.485 445.869 333.485C445.029 335.484 443.769 337.261 442.718 338.15C441.668 339.039 440.828 339.483 440.828 339.483C440.828 339.483 441.458 338.817 442.298 337.706C443.138 336.595 444.189 335.04 445.029 333.04C445.869 331.041 446.289 329.263 446.499 327.708C446.709 326.375 446.709 325.486 446.919 325.486Z" fill="#DBA246"/>
<path d="M447.547 343.262C447.547 343.262 447.757 343.484 448.177 344.15C448.597 344.817 449.227 345.483 450.067 346.594C451.748 348.816 454.058 351.926 456.998 355.925C459.729 359.925 463.089 365.035 465.82 370.811C467.29 373.699 468.55 377.032 469.6 380.364C470.651 383.919 471.491 387.474 472.121 391.251C474.431 406.358 475.061 420.355 475.271 430.353C475.271 435.463 475.271 439.462 475.061 442.35C475.061 443.683 474.851 444.794 474.851 445.683C474.851 446.349 474.851 446.794 474.641 446.794C474.641 446.794 474.641 446.349 474.641 445.683C474.641 445.016 474.641 443.905 474.641 442.35C474.641 439.462 474.641 435.463 474.431 430.575C474.221 420.577 473.381 406.803 471.071 391.695C470.441 387.918 469.81 384.363 468.76 380.809C467.71 377.476 466.45 374.144 464.98 371.255C462.249 365.257 459.099 360.369 456.368 356.37C453.638 352.371 451.327 349.038 449.647 346.816C448.807 345.706 448.177 344.817 447.757 344.15C447.757 343.706 447.547 343.484 447.547 343.262Z" fill="#DBA246"/>
<path d="M468.548 331.042C468.758 331.042 468.968 332.375 469.598 333.708C470.018 335.263 470.648 336.374 470.438 336.374C470.228 336.596 469.388 335.485 468.758 333.93C468.338 332.375 468.338 331.042 468.548 331.042Z" fill="#DBA246"/>
<path d="M466.662 325.71C466.452 325.932 465.192 324.599 463.511 323.044C461.831 321.489 460.361 320.378 460.571 320.156C460.781 319.934 462.251 320.822 464.141 322.378C465.822 323.933 466.872 325.488 466.662 325.71Z" fill="#DBA246"/>
<path d="M475.055 334.596C475.055 334.596 475.265 334.373 475.895 334.151C476.525 333.929 477.365 333.485 478.625 332.818C481.146 331.93 484.926 331.041 489.757 331.263C492.067 331.485 494.798 331.93 497.318 332.818C500.049 333.707 502.779 335.262 505.09 337.706C506.14 339.039 507.19 340.372 507.82 342.149C508.45 343.705 508.66 345.704 508.87 347.482C509.08 349.259 509.08 351.036 509.08 353.036C509.08 354.813 509.08 356.813 508.87 358.812C508.45 362.589 507.61 366.366 506.35 369.699C505.09 373.031 503.619 376.142 502.359 379.252C499.629 385.251 497.318 390.583 495.428 395.248C493.328 399.692 491.857 403.469 490.597 405.913C489.967 407.246 489.337 408.134 489.127 408.579C488.707 409.245 488.497 409.467 488.497 409.467C488.497 409.467 488.707 409.023 488.917 408.579C489.337 407.912 489.757 407.023 490.387 405.69C491.647 403.247 493.118 399.47 495.008 394.804C496.898 390.138 499.209 384.806 501.939 378.808C503.199 375.697 504.67 372.587 505.93 369.254C507.19 365.922 508.03 362.367 508.45 358.59C508.66 356.813 508.66 354.813 508.66 353.036C508.66 351.258 508.66 349.259 508.45 347.704C508.24 345.926 508.03 344.149 507.4 342.594C506.77 341.039 505.93 339.706 504.88 338.373C502.779 336.151 500.049 334.596 497.528 333.707C495.008 332.818 492.488 332.374 489.967 332.152C485.346 331.93 481.566 332.596 479.045 333.485C476.315 333.929 475.055 334.818 475.055 334.596Z" fill="#DBA246"/>
<g opacity="0.18">
<path d="M464.555 540.106C464.765 538.995 465.395 538.106 466.235 537.662C467.495 536.995 469.385 536.995 470.646 537.662C472.746 538.995 473.796 541.883 474.426 544.327C475.056 546.993 475.476 549.659 476.947 551.881C477.367 552.547 477.997 553.214 478.837 553.436C480.307 553.658 481.357 552.547 482.408 551.437C485.138 548.326 488.289 545.216 492.069 544.105C495.85 542.994 500.681 544.105 502.781 547.882C503.831 549.881 504.041 552.325 504.251 554.547C505.511 572.987 506.562 591.427 507.822 609.868C508.452 618.532 508.872 627.197 506.562 635.417C504.461 642.749 484.298 664.3 474.636 664.3" fill="#8982BC"/>
</g>
<path d="M465.821 725.842L461.201 825.152L447.759 891.36L441.668 889.582L446.918 823.153L436.417 754.946L426.965 818.709L406.172 891.582L400.711 891.804L410.583 819.154L407.852 730.73L465.821 725.842Z" fill="#F7D3A9"/>
<path d="M485.776 559.436L479.685 610.313L449.86 640.973L422.976 641.417L413.314 659.413L417.305 675.632C420.245 687.407 419.195 700.071 414.574 711.179L408.273 731.174L466.873 738.284C468.763 691.184 467.923 687.407 460.572 660.524L495.228 613.202V557.881L485.776 559.436Z" fill="#3F327A"/>
<path d="M460.988 557.658C458.047 559.435 439.354 610.09 439.354 610.09L440.405 642.527L422.762 645.86V608.757L453.427 551.659L460.988 557.658Z" fill="#3F327A"/>
<path d="M445.656 609.646L451.117 624.309C452.377 627.641 450.697 631.196 447.756 632.529L445.866 633.196L446.706 643.86L432.634 645.193L430.113 614.978L445.656 609.646Z" fill="#F7D3A9"/>
<path d="M437.882 637.417C437.882 637.417 443.343 632.529 442.923 628.086C442.923 628.086 434.942 624.531 437.042 622.087C439.143 619.643 443.763 623.864 443.763 623.864C443.763 623.864 440.613 617.421 441.243 615.644C441.243 615.644 451.535 614.755 449.434 608.312C449.434 608.312 446.284 605.868 439.773 606.09C433.262 606.313 430.531 618.31 430.531 618.31L437.882 637.417Z" fill="#FFC359"/>
<path d="M440.824 606.757C434.733 604.98 427.802 606.757 422.971 610.979C418.14 615.2 415.409 622.087 416.04 628.752C416.46 633.418 418.14 638.306 416.46 642.527C415.62 644.749 413.939 646.526 412.259 648.081C407.428 652.747 402.177 657.412 398.397 663.189C394.616 668.965 392.096 676.075 393.146 682.962C393.566 685.85 394.616 688.739 396.506 691.182C397.557 692.293 398.607 693.404 399.447 694.737C402.387 699.403 400.707 705.846 402.597 711.178C404.908 717.843 412.469 720.953 419.19 721.62C428.432 722.509 438.513 720.509 445.444 713.844C452.375 707.179 454.896 695.182 449.645 686.961C447.125 682.962 442.504 679.407 442.924 674.52C443.134 671.409 445.444 669.188 446.494 666.299C449.015 660.745 447.335 653.635 442.714 649.859C441.034 648.525 438.933 647.637 437.463 646.082C435.993 644.526 434.943 642.083 435.783 640.083C436.413 638.528 438.093 637.639 438.933 636.084C439.983 633.862 438.723 630.974 437.043 628.974C435.363 626.975 433.472 624.975 433.262 622.531C433.052 620.532 433.892 618.754 434.943 616.977C436.623 613.645 438.303 610.09 439.983 606.757" fill="#FFC359"/>
<path d="M407.849 730.729L403.648 765.387L435.154 770.719L436.624 756.945L438.304 770.497H469.809L466.449 737.838L407.849 730.729Z" fill="#624FB5"/>
<path d="M401.339 888.691C401.339 888.691 420.452 888.691 422.763 891.58C425.073 894.69 400.289 892.024 400.289 892.024L401.339 888.691Z" fill="#3F327A"/>
<path d="M440.193 890.248C440.193 890.248 459.097 886.693 461.827 889.137C464.557 891.581 439.773 893.803 439.773 893.803L440.193 890.248Z" fill="#3F327A"/>
<path d="M448.804 760.943C448.594 761.166 444.183 758.944 438.302 756.5C432.632 754.056 427.801 752.501 427.801 752.279C427.801 752.057 429.061 752.501 430.951 752.945C432.842 753.612 435.572 754.501 438.512 755.611C441.453 756.722 443.973 758.055 445.864 759.166C447.754 760.277 448.804 760.943 448.804 760.943Z" fill="#453C87"/>
<path d="M435.783 767.164C435.783 767.387 433.892 766.942 431.162 766.276C428.222 765.609 424.231 764.943 419.82 764.276C415.409 763.61 411.209 763.165 408.268 762.721C405.328 762.277 403.438 762.054 403.438 761.832C403.438 761.61 405.328 761.832 408.268 762.054C411.209 762.277 415.409 762.721 419.82 763.388C424.231 764.054 428.432 764.943 431.162 765.609C434.102 766.276 435.783 766.942 435.783 767.164Z" fill="#453C87"/>
<path d="M468.97 765.609C468.97 765.831 467.29 765.831 464.349 766.053C461.409 766.275 457.418 766.498 453.217 766.72C448.807 766.942 444.816 767.386 442.086 767.608C439.355 767.831 437.465 767.831 437.465 767.831C437.465 767.608 439.145 767.386 442.086 766.942C445.026 766.498 449.017 766.053 453.217 765.831C457.628 765.609 461.619 765.387 464.559 765.387C467.08 765.387 468.97 765.387 468.97 765.609Z" fill="#453C87"/>
<path d="M467.706 746.059C467.706 746.059 467.076 746.503 465.815 746.947C464.555 747.17 462.665 747.17 460.775 746.281C458.884 745.392 457.624 743.837 456.994 742.726C456.364 741.615 456.154 740.727 456.364 740.727C456.574 740.727 456.784 741.393 457.414 742.504C458.044 743.615 459.304 744.726 460.985 745.614C462.665 746.503 464.345 746.503 465.605 746.503C466.866 746.059 467.496 745.837 467.706 746.059Z" fill="#453C87"/>
<path d="M465.817 771.163C465.607 771.163 464.767 765.831 464.137 759.166C463.507 752.501 463.087 747.169 463.297 747.169C463.507 747.169 464.347 752.501 464.977 759.166C465.607 765.831 466.027 771.163 465.817 771.163Z" fill="#453C87"/>
<path d="M411 821.153C411 820.93 412.68 821.375 414.781 822.041C416.881 822.708 418.561 823.152 418.561 823.374C418.561 823.596 416.671 823.596 414.571 822.93C412.47 822.263 411 821.375 411 821.153Z" fill="#D3AB84"/>
<path d="M419.19 820.709C419.19 820.931 417.3 821.597 414.99 821.375C412.679 821.375 410.789 820.709 410.789 820.487C410.789 820.264 412.679 820.487 414.99 820.709C417.3 820.709 418.98 820.487 419.19 820.709Z" fill="#D3AB84"/>
<path d="M456.365 821.818C456.365 822.04 454.685 822.706 452.584 822.929C450.484 823.373 448.594 823.151 448.594 822.929C448.594 822.706 450.274 822.262 452.374 822.04C454.475 821.818 456.155 821.595 456.365 821.818Z" fill="#D3AB84"/>
<path d="M454.267 820.041C454.267 820.263 453.217 820.93 451.957 821.596C450.487 822.263 449.437 822.707 449.227 822.485C449.227 822.263 450.067 821.596 451.537 820.93C453.007 820.041 454.057 819.819 454.267 820.041Z" fill="#D3AB84"/>
<path d="M459.306 557.657C459.306 557.657 467.497 552.991 467.497 552.325C467.077 550.547 462.666 552.769 462.666 552.769C462.666 552.769 469.387 545.437 468.337 544.326C467.707 543.66 463.506 547.437 463.506 547.437C463.506 547.437 466.027 542.993 465.187 542.105C464.347 541.216 460.566 546.326 460.566 546.326C460.566 546.326 462.036 542.993 461.196 542.105C460.566 541.438 453.215 554.991 453.215 554.991L459.306 557.657Z" fill="#F7D3A9"/>
<path d="M487.035 559.435C487.035 559.435 483.464 550.326 484.094 549.881C485.354 548.771 487.455 553.436 487.455 553.436C487.455 553.436 486.825 543.216 488.295 542.994C489.135 542.994 489.975 548.548 489.975 548.548C489.975 548.548 490.605 543.438 491.865 543.216C493.126 542.994 492.916 549.659 492.916 549.659C492.916 549.659 493.756 546.104 495.016 546.104C495.856 546.104 493.336 561.434 493.336 561.434L487.035 559.435Z" fill="#F7D3A9"/>
<path d="M301.785 773.386L323.419 717.843C323.419 717.843 383.278 739.171 382.648 740.504C382.018 741.837 356.604 796.936 356.604 796.936L301.785 773.386Z" fill="#F4F3FF"/>
<path d="M333.921 726.952C333.921 726.952 333.921 727.174 333.711 727.397C333.501 727.619 333.291 728.063 333.081 728.507C332.451 729.396 331.821 730.729 330.981 732.284C329.091 735.617 326.78 740.06 324.05 745.17C321.529 750.28 319.429 754.946 317.959 758.501C317.329 760.278 316.699 761.611 316.279 762.5C316.069 762.944 315.858 763.388 315.858 763.61C316.069 763.388 316.069 762.944 316.279 762.5C316.699 761.611 317.119 760.056 317.959 758.278C319.429 754.724 321.529 750.058 324.05 744.948C326.57 739.838 329.091 735.395 330.981 732.062C332.031 730.507 332.661 729.174 333.291 728.285C333.501 727.841 333.711 727.619 333.921 727.174C333.711 726.952 333.921 726.952 333.921 726.952Z" fill="#453C87"/>
<path d="M362.696 742.726C362.696 742.726 362.486 742.726 362.276 742.504C362.065 742.282 361.645 742.282 361.225 742.06C360.385 741.615 359.125 741.171 357.445 740.282C354.294 738.949 350.094 736.728 345.263 734.506C340.642 732.062 336.441 730.063 333.291 728.285C331.821 727.397 330.56 726.73 329.72 726.286C329.3 726.063 329.09 725.841 328.67 725.841C328.88 726.063 329.3 726.063 329.72 726.286C330.56 726.73 331.821 727.397 333.291 728.063C336.441 729.618 340.642 731.84 345.263 734.062C349.883 736.283 354.084 738.505 357.235 740.06C358.705 740.727 359.965 741.393 360.805 741.838C361.225 742.06 361.435 742.282 361.855 742.282C362.486 742.504 362.696 742.726 362.696 742.726Z" fill="#453C87"/>
<path d="M366.262 736.949C366.262 736.949 366.262 737.171 366.052 737.394C365.842 737.838 365.632 738.282 365.422 738.949C364.792 740.282 363.952 742.059 362.692 744.281C360.381 748.724 357.231 754.945 353.87 761.832C350.51 768.72 347.779 775.163 345.889 779.828C344.839 782.05 344.209 784.05 343.578 785.383C343.368 786.049 343.158 786.494 342.948 786.938C342.738 787.382 342.738 787.382 342.738 787.382C342.738 787.382 342.738 787.16 342.948 786.938C343.158 786.494 343.158 786.049 343.578 785.383C343.998 784.05 344.839 782.05 345.679 779.828C347.569 775.163 350.3 768.72 353.66 761.832C357.021 754.945 360.171 748.724 362.481 744.281C363.742 742.059 364.582 740.282 365.212 738.949C365.632 738.282 365.842 737.838 366.052 737.616C366.262 737.171 366.262 736.949 366.262 736.949Z" fill="#453C87"/>
<path d="M364.794 746.947C364.794 746.947 357.233 743.615 347.992 739.172C338.75 734.728 331.189 731.173 331.399 730.951C331.399 730.951 338.96 734.284 348.202 738.727C357.443 743.171 364.794 746.947 364.794 746.947Z" fill="#453C87"/>
<path d="M337.907 740.282C337.907 740.282 336.437 739.393 334.546 738.504C332.656 737.616 330.976 737.171 331.186 736.949C331.186 736.949 332.866 737.171 334.756 738.06C336.647 739.171 337.907 740.282 337.907 740.282Z" fill="#453C87"/>
<path d="M336.65 741.393C336.65 741.393 335.18 740.504 333.289 739.615C331.399 738.727 329.719 738.504 329.719 738.282C329.719 738.282 331.399 738.282 333.499 739.171C335.39 740.06 336.65 741.393 336.65 741.393Z" fill="#453C87"/>
<path d="M336.227 743.393C336.227 743.393 334.757 742.504 332.867 741.615C330.976 740.727 329.296 740.06 329.506 739.838C329.506 739.838 331.186 740.282 333.077 741.171C334.967 742.282 336.227 743.393 336.227 743.393Z" fill="#453C87"/>
<path d="M343.159 740.505C343.159 740.505 343.369 740.282 343.579 740.282C343.789 740.282 344.419 740.06 344.84 740.282C345.47 740.505 346.1 740.949 346.1 741.838C346.1 742.282 346.1 742.726 345.68 743.171C345.47 743.615 345.05 743.837 344.629 744.059C344.209 744.281 343.789 744.281 343.369 744.281C342.949 744.281 342.529 743.837 342.319 743.615C341.689 742.948 341.689 742.06 341.899 741.615C342.529 740.727 342.949 740.505 343.159 740.505C343.579 740.282 343.789 740.282 343.579 740.282C343.789 740.505 343.579 740.505 343.159 740.505C342.949 740.505 342.739 740.949 342.529 741.393C342.319 741.838 342.529 742.504 342.949 742.948C343.369 743.393 344.209 743.615 344.839 743.393C345.47 743.171 346.1 742.504 346.1 741.838C346.1 741.171 345.47 740.727 345.05 740.505C344.629 740.282 344.209 740.282 343.789 740.505C343.369 740.505 343.159 740.505 343.159 740.505Z" fill="#453C87"/>
<path d="M354.713 746.725C354.713 746.725 352.822 746.281 350.722 745.392C348.622 744.503 346.941 743.393 346.941 743.393C346.941 743.393 348.622 744.059 350.722 745.17C353.032 745.836 354.713 746.725 354.713 746.725Z" fill="#453C87"/>
<path d="M349.672 746.281C349.672 746.504 348.832 746.281 347.782 745.837C346.732 745.393 346.102 744.726 346.102 744.504C346.102 744.504 346.942 744.948 347.782 745.393C348.832 745.837 349.672 746.059 349.672 746.281Z" fill="#453C87"/>
<path d="M336.652 754.722H336.862C337.072 754.722 337.282 754.945 337.703 754.945C338.333 755.167 339.383 755.611 340.643 756.055C343.163 757.166 346.734 758.499 350.725 760.277H350.515C352.195 757.388 353.875 754.056 355.765 750.723L355.976 750.501L356.186 750.723C350.935 748.724 346.104 746.724 342.113 745.391H342.323C339.173 750.723 337.282 753.612 336.652 754.722C336.652 754.722 337.072 753.834 338.123 752.056C338.963 750.501 340.433 748.057 342.113 745.391V745.169H342.323C346.314 746.724 351.145 748.501 356.396 750.501H356.606L356.396 750.723L356.185 750.945C354.295 754.278 352.405 757.611 350.935 760.499V760.721H350.725C346.524 758.944 343.163 757.388 340.433 756.278C339.173 755.833 338.333 755.389 337.492 754.945C337.282 754.722 336.862 754.722 336.652 754.5C336.652 754.722 336.652 754.722 336.652 754.722Z" fill="#453C87"/>
<path d="M333.288 757.835C333.288 757.835 333.498 757.612 333.708 757.612C333.918 757.612 334.548 757.39 334.968 757.612C335.599 757.835 336.229 758.279 336.229 759.168C336.229 759.612 336.229 760.056 335.809 760.501C335.599 760.945 335.179 761.167 334.758 761.389C334.338 761.612 333.918 761.612 333.498 761.612C333.078 761.612 332.658 761.167 332.448 760.945C331.818 760.279 331.818 759.39 332.028 758.945C332.658 758.057 333.078 757.612 333.288 757.835C333.078 757.835 332.868 758.279 332.658 758.723C332.448 759.168 332.658 759.834 333.078 760.279C333.498 760.723 334.338 760.945 334.968 760.723C335.599 760.501 336.229 759.834 336.229 759.168C336.229 758.501 335.599 758.057 335.178 757.835C334.758 757.612 334.338 757.612 333.918 757.835C333.498 757.835 333.288 757.835 333.288 757.835Z" fill="#453C87"/>
<path d="M344.842 764.054C344.842 764.054 342.951 763.61 340.851 762.721C338.751 761.833 337.07 760.722 337.07 760.722C337.07 760.722 338.751 761.388 341.061 762.499C343.161 763.166 344.842 763.832 344.842 764.054Z" fill="#453C87"/>
<path d="M339.805 763.387C339.805 763.609 338.965 763.387 337.915 762.942C336.864 762.498 336.234 761.832 336.234 761.609C336.234 761.609 337.075 762.054 337.915 762.498C339.175 762.942 339.805 763.387 339.805 763.387Z" fill="#453C87"/>
<path d="M326.777 771.83H326.987C327.197 771.83 327.407 772.052 327.828 772.052C328.458 772.274 329.508 772.718 330.768 773.163C333.288 774.274 336.859 775.607 340.85 777.384H340.64C342.32 774.496 344 771.163 345.89 767.831L346.101 767.609L346.311 767.831C341.06 765.831 336.229 763.832 332.238 762.499H332.448C329.298 768.053 327.617 770.719 326.777 771.83C326.777 771.83 327.197 770.941 328.248 769.164C329.088 767.609 330.558 765.165 332.238 762.499L332.238 762.276H332.448C336.439 763.832 341.27 765.609 346.521 767.609H346.731L346.521 767.831L346.311 768.053C344.42 771.385 342.53 774.718 341.06 777.606V777.828H340.85C336.649 776.051 333.288 774.496 330.558 773.385C329.298 772.941 328.458 772.496 327.617 772.052C327.407 771.83 326.987 771.83 326.777 771.608C326.987 772.052 326.777 771.83 326.777 771.83Z" fill="#453C87"/>
<path d="M370.464 740.949C370.464 740.949 365.844 750.947 360.173 762.944C354.292 775.164 349.461 784.939 349.461 784.939C349.461 784.939 354.082 774.941 359.753 762.944C365.634 750.725 370.464 740.949 370.464 740.949Z" fill="#453C87"/>
<path d="M373.197 750.28C373.197 750.503 370.676 749.614 367.736 748.503C364.795 747.392 362.275 746.503 362.485 746.281C362.485 746.059 365.005 746.948 367.946 748.059C370.886 749.17 373.197 750.28 373.197 750.28Z" fill="#453C87"/>
<path d="M368.575 753.391C368.575 753.391 367.525 751.613 366.895 749.17C366.265 746.726 365.845 744.726 366.055 744.504C366.265 744.504 366.685 746.503 367.315 748.947C367.945 751.391 368.575 753.169 368.575 753.391Z" fill="#453C87"/>
<path d="M365.427 760.056C365.217 760.056 365.217 759.167 365.427 758.056C365.427 756.945 365.637 756.057 365.847 756.057C366.057 756.057 366.057 756.945 365.847 758.056C365.847 759.167 365.637 760.056 365.427 760.056Z" fill="#453C87"/>
<path d="M368.158 758.055C368.158 758.277 367.108 758.055 366.057 758.277C365.007 758.5 363.957 758.722 363.957 758.5C363.957 758.5 364.797 757.833 366.057 757.833C367.318 757.833 368.158 758.055 368.158 758.055Z" fill="#453C87"/>
<path d="M324.887 728.284C324.887 728.284 326.357 728.951 328.248 730.061C330.138 730.95 331.608 731.617 331.608 731.839C331.608 731.839 329.928 731.394 328.038 730.506C326.147 729.395 324.677 728.284 324.887 728.284Z" fill="#453C87"/>
<path d="M331.192 721.397C331.192 721.397 329.931 724.064 328.251 727.396C326.571 730.507 325.101 733.173 324.891 733.173C324.891 733.173 326.151 730.507 327.831 727.174C329.721 723.841 331.192 721.397 331.192 721.397Z" fill="#453C87"/>
<path d="M325.94 727.396C325.73 727.396 325.73 726.729 325.52 725.84C325.52 724.952 325.52 724.285 325.52 724.285C325.73 724.285 325.73 724.952 325.94 725.84C326.15 726.729 325.94 727.396 325.94 727.396Z" fill="#453C87"/>
<path d="M328.672 725.618C328.672 725.841 327.621 726.063 326.361 726.285C325.101 726.507 324.051 726.729 324.051 726.507C324.051 726.285 325.101 726.063 326.361 725.841C327.621 725.618 328.672 725.396 328.672 725.618Z" fill="#453C87"/>
<path d="M361.641 770.943C361.641 770.943 364.371 761.389 364.791 761.389C366.471 761.389 365.421 766.499 365.421 766.499C365.421 766.499 370.882 758.057 372.142 758.945C372.772 759.39 370.252 764.5 370.252 764.5C370.252 764.5 373.823 760.945 374.873 761.611C375.923 762.278 371.932 767.166 371.932 767.166C371.932 767.166 374.663 764.944 375.713 765.611C376.343 766.055 365.421 776.497 365.421 776.497L361.641 770.943Z" fill="#F7D3A9"/>
<path d="M361.641 770.943C361.641 770.943 364.371 761.389 364.791 761.389C366.471 761.389 365.421 766.499 365.421 766.499C365.421 766.499 370.882 758.057 372.142 758.945C372.772 759.39 370.252 764.5 370.252 764.5C370.252 764.5 373.823 760.945 374.873 761.611C375.923 762.278 371.932 767.166 371.932 767.166C371.932 767.166 374.663 764.944 375.713 765.611C376.343 766.055 365.421 776.497 365.421 776.497L361.641 770.943Z" fill="#F7D3A9"/>
<path d="M304.304 984.227L304.514 990.892L299.894 991.78L299.684 984.449L304.304 984.227Z" fill="#F7D3A9"/>
<path d="M299.893 991.781C299.893 991.781 318.796 988.226 321.526 990.67C324.257 993.114 299.473 995.336 299.473 995.336L299.893 991.781Z" fill="#3F327A"/>
<path d="M238.348 960.899L233.097 964.676L230.156 960.899L236.037 956.899L238.348 960.899Z" fill="#F7D3A9"/>
<path d="M230.159 960.898C230.159 960.898 242.761 976.006 242.341 980.005C241.711 983.782 227.219 962.454 227.219 962.454L230.159 960.898Z" fill="#3F327A"/>
<path d="M311.653 818.487C311.653 818.487 327.406 834.039 327.826 891.137C328.036 948.458 309.133 986.449 309.133 986.449H295.901C295.901 986.449 317.744 914.465 293.17 866.921C293.17 866.921 284.979 922.464 241.502 964.898L231 953.123C231 953.123 263.135 910.466 263.345 857.367C263.345 846.925 265.026 841.371 261.665 829.596L311.653 818.487Z" fill="#3F327A"/>
<path d="M318.373 920.906C318.373 921.128 315.643 921.128 312.282 921.573C308.922 922.017 306.401 922.684 306.191 922.461C306.191 922.239 308.712 921.128 312.072 920.684C315.643 920.018 318.373 920.684 318.373 920.906Z" fill="#232049"/>
<path d="M320.055 916.243C320.055 916.243 319.425 916.909 318.375 917.576C317.325 918.242 315.435 918.909 313.544 919.131C311.654 919.353 309.764 919.131 308.504 918.909C307.243 918.465 306.613 918.242 306.613 918.02C306.613 917.798 309.764 918.909 313.544 918.242C317.115 917.798 319.845 916.021 320.055 916.243Z" fill="#232049"/>
<path d="M270.487 910.466C270.487 910.688 268.177 909.577 266.286 906.911C264.396 904.467 263.976 901.801 264.186 901.801C264.396 901.801 265.236 904.023 266.916 906.466C268.807 908.688 270.697 910.243 270.487 910.466Z" fill="#232049"/>
<path d="M269.438 911.799C269.228 911.799 269.228 911.354 268.598 910.91C267.968 910.465 267.128 909.799 266.078 909.132C263.977 907.799 262.297 906.911 262.297 906.689C262.297 906.466 264.187 907.133 266.288 908.466C267.338 909.132 268.178 909.799 268.808 910.465C269.438 911.132 269.438 911.799 269.438 911.799Z" fill="#232049"/>
<path d="M305.354 871.141C305.354 871.141 304.094 871.363 301.994 870.697C299.893 870.03 297.373 868.475 294.432 867.142C291.492 865.587 288.971 864.254 287.081 863.143C285.191 862.032 284.141 861.366 284.141 861.144C284.141 861.144 285.401 861.588 287.291 862.477C289.181 863.365 291.912 864.698 294.642 866.254C297.583 867.809 300.103 869.364 301.994 870.03C304.094 870.919 305.354 870.919 305.354 871.141Z" fill="#232049"/>
<path d="M253.051 763.165L262.292 838.926L320.472 839.815L311.86 782.717C311.86 782.717 340.635 811.599 353.237 799.602C365.839 787.604 367.729 775.829 367.729 775.829L360.798 770.941C360.798 770.941 350.507 791.826 341.055 785.383C330.343 778.051 306.609 747.836 284.346 751.612C269.433 753.612 255.361 744.947 253.051 763.165Z" fill="#FFC359"/>
<path d="M287.289 718.065L292.749 732.729C294.01 736.061 292.329 739.616 289.389 740.949L287.499 741.616L288.339 752.28L274.266 753.613L271.746 723.397L287.289 718.065Z" fill="#F7D3A9"/>
<path d="M279.515 745.837C279.515 745.837 284.976 740.949 284.556 736.505C284.556 736.505 276.575 732.951 278.675 730.507C280.775 728.063 285.396 732.284 285.396 732.284C285.396 732.284 282.246 725.841 282.876 724.064C282.876 724.064 293.167 723.175 291.067 716.732C291.067 716.732 287.917 714.288 281.406 714.51C274.894 714.733 272.164 726.73 272.164 726.73L279.515 745.837Z" fill="#624FB5"/>
<path d="M282.456 715.177C276.365 713.4 269.434 715.177 264.604 719.398C259.773 723.62 257.042 730.507 257.672 737.172C258.092 741.838 259.773 746.725 258.092 750.947C257.252 753.169 255.572 754.946 253.892 756.501C249.061 761.167 243.81 765.832 240.03 771.609C236.249 777.385 233.728 784.495 234.779 791.382C235.199 794.27 236.249 797.158 238.139 799.602C239.189 800.713 240.24 801.824 241.08 803.157C244.02 807.823 242.34 814.266 244.23 819.598C246.541 826.263 254.102 829.373 260.823 830.04C270.064 830.929 280.146 828.929 287.077 822.264C294.008 815.599 296.529 803.601 291.278 795.381C288.757 791.382 284.137 787.827 284.557 782.94C284.767 779.829 287.077 777.607 288.127 774.719C290.648 769.165 288.967 762.055 284.347 758.278C282.666 756.945 280.566 756.057 279.096 754.501C277.626 752.946 276.575 750.502 277.416 748.503C278.046 746.948 279.726 746.059 280.566 744.504C281.616 742.282 280.356 739.394 278.676 737.394C276.995 735.395 275.105 733.395 274.895 730.951C274.685 728.952 275.525 727.174 276.575 725.397C278.256 722.064 279.936 718.51 281.616 715.177" fill="#624FB5"/>
<path d="M614.947 288.384H813.429C813.429 288.384 802.927 231.064 750.418 244.839C750.418 244.839 711.562 128.643 673.336 244.839C673.336 244.839 640.781 187.296 614.947 186.852C559.287 186.185 542.905 288.384 614.947 288.384Z" fill="#C4B9FF"/>
<path d="M105.191 183.963H291.911C291.911 183.963 282.04 129.976 232.682 143.084C232.682 143.084 196.136 33.7755 160.22 143.084C160.22 143.084 129.555 88.8741 105.191 88.6519C52.8925 87.9854 37.56 183.963 105.191 183.963Z" fill="#C4B9FF"/>
<path opacity="0.36" d="M748.104 136.641H854.801C854.801 136.641 849.13 105.759 820.776 113.313C820.776 113.313 799.773 50.8826 779.399 113.313C779.399 113.313 761.756 82.4309 747.894 82.2087C718.069 81.7644 709.458 136.641 748.104 136.641Z" fill="#C4B9FF"/>
<path opacity="0.36" d="M38.8216 279.053H95.7408C95.7408 279.053 92.8003 262.612 77.6779 266.611C77.6779 266.611 66.5461 233.286 55.6243 266.611C55.6243 266.611 46.1728 250.171 38.8216 249.949C22.859 249.726 18.2382 279.053 38.8216 279.053Z" fill="#C4B9FF"/>
<path opacity="0.36" d="M898.911 41.552H955.831C955.831 41.552 952.89 25.1113 937.768 29.1104C937.768 29.1104 926.636 -4.21532 915.714 29.1104C915.714 29.1104 906.262 12.6697 898.911 12.4475C882.949 12.2254 878.328 41.552 898.911 41.552Z" fill="#C4B9FF"/>
<path opacity="0.36" d="M202.018 54.438H308.716C308.716 54.438 303.045 23.5562 274.69 31.11C274.69 31.11 253.687 -31.3202 233.313 31.11C233.313 31.11 215.67 0.228171 201.808 0.00599862C171.983 -0.660517 163.372 54.438 202.018 54.438Z" fill="#C4B9FF"/>
<path d="M79.3559 838.703C58.7725 855.144 25.3771 840.258 6.89412 823.151C3.74361 820.263 1.2232 816.264 0.383064 811.82C-3.81762 790.492 27.8975 785.382 28.7377 766.275C29.1577 758.055 23.2768 750.945 18.8661 744.058C8.78442 728.284 6.05398 708.288 8.15432 689.404C10.2547 670.519 16.9758 652.523 24.747 635.416C31.048 621.419 42.5999 605.423 56.8822 608.978C66.1237 611.2 72.0047 620.753 74.7351 630.529C78.5157 643.637 77.8856 657.856 75.3652 671.408C74.3151 677.407 72.8448 683.628 74.3151 689.404C78.3057 704.512 98.2589 707.844 105.4 721.397C112.751 735.171 103.93 752.056 95.9486 765.387C89.0174 776.717 84.8168 783.827 89.2275 793.602C90.4877 796.268 92.168 798.49 94.2683 800.267C98.679 804.267 106.87 816.486 79.3559 838.703Z" fill="#58BB85"/>
<path d="M55.8302 891.137C55.6202 891.137 55.4102 851.368 55.4102 802.49C55.4102 753.612 55.6202 713.844 55.8302 713.844C56.0403 713.844 56.2503 753.612 56.2503 802.49C56.2503 851.368 56.0403 891.137 55.8302 891.137Z" fill="#453C87"/>
<path d="M53.1043 827.817C53.1043 827.817 52.6842 827.595 51.8441 826.928C51.0039 826.262 49.7437 825.151 48.2735 824.04C45.333 821.596 41.3423 818.041 36.7216 814.487C32.1009 810.71 28.1102 807.599 24.9597 805.155C23.4895 804.044 22.2292 803.156 21.3891 802.267C20.549 801.601 20.1289 801.156 20.1289 801.156C20.1289 801.156 20.759 801.378 21.5991 802.045C22.4393 802.711 23.6995 803.6 25.3798 804.711C28.5303 806.933 32.731 810.043 37.3517 813.82C41.9725 817.597 45.9631 820.93 48.6935 823.596C50.1638 824.929 51.214 826.04 52.0541 826.706C52.8942 827.372 53.3143 827.817 53.1043 827.817Z" fill="#453C87"/>
<path d="M78.5145 734.505C78.5145 734.505 77.2543 736.504 74.9439 739.393C72.6335 742.281 69.6931 746.28 66.1225 750.723C62.7619 755.167 59.6114 759.166 57.5111 762.054C55.2007 764.942 53.9405 766.72 53.7305 766.72C53.7305 766.72 53.9405 766.275 54.5706 765.387C55.2007 764.498 56.0408 763.387 57.091 761.832C59.1913 758.722 62.1318 754.722 65.4924 750.279C68.8529 745.836 72.0034 741.837 74.5238 739.17C75.784 737.837 76.6242 736.727 77.2543 735.838C78.0944 734.949 78.5145 734.505 78.5145 734.505Z" fill="#453C87"/>
<rect x="410.445" y="367.701" width="112.278" height="118.766" stroke="#7972A8" stroke-width="0.05"/>
<path d="M981.662 841.369C968.85 851.589 948.267 842.258 936.715 831.816C934.615 830.038 933.144 827.594 932.724 824.928C930.204 811.82 949.737 808.488 950.367 796.712C950.577 791.603 947.007 787.381 944.276 782.938C938.185 773.162 936.295 760.721 937.765 749.168C939.025 737.393 943.226 726.284 948.057 715.62C952.047 706.955 958.979 697.18 968.01 699.179C973.681 700.512 977.462 706.511 979.142 712.509C981.452 720.73 981.032 729.394 979.562 737.837C978.932 741.614 977.882 745.391 978.932 748.946C981.242 758.277 993.634 760.276 998.255 768.719C1002.88 777.384 997.415 787.603 992.374 796.046C988.173 803.155 985.443 807.599 988.173 813.597C989.014 815.153 990.064 816.486 991.324 817.819C993.634 820.041 998.675 827.594 981.662 841.369Z" fill="#76CC9B"/>
<path d="M963.6 892.69C963.39 892.69 963.18 852.922 963.18 804.044C963.18 755.166 963.39 715.397 963.6 715.397C963.81 715.397 964.02 755.166 964.02 804.044C964.02 852.922 963.81 892.69 963.6 892.69Z" fill="#453C87"/>
<path d="M945.747 831.593C925.163 848.034 891.768 833.148 873.285 816.041C870.134 813.153 867.614 809.153 866.774 804.71C862.573 783.382 894.288 778.272 895.128 759.165C895.548 750.945 889.667 743.835 885.257 736.948C875.175 721.174 872.445 701.178 874.545 682.294C876.645 663.409 883.366 645.413 891.138 628.306C897.439 614.309 908.991 598.313 923.273 601.868C932.514 604.089 938.395 613.643 941.126 623.418C944.906 636.526 944.276 650.745 941.756 664.298C940.706 670.296 939.235 676.517 940.706 682.294C944.696 697.401 964.649 700.734 971.791 714.286C979.142 728.061 970.32 744.946 962.129 758.276C955.198 769.607 950.997 776.716 955.408 786.492C956.668 789.158 958.348 791.38 960.449 793.157C965.07 797.378 973.261 809.598 945.747 831.593Z" fill="#58BB85"/>
<path d="M922.221 884.025C922.011 884.025 921.801 844.257 921.801 795.379C921.801 746.501 922.011 706.732 922.221 706.732C922.431 706.732 922.641 746.501 922.641 795.379C922.641 844.479 922.431 884.025 922.221 884.025Z" fill="#453C87"/>
<path d="M922.226 820.929C922.226 820.929 921.805 820.707 920.965 820.04C920.125 819.374 918.865 818.263 917.395 817.152C914.454 814.708 910.464 811.154 905.843 807.599C901.222 803.822 897.231 800.711 894.081 798.268C892.611 797.157 891.35 796.268 890.51 795.379C889.67 794.713 889.25 794.269 889.25 794.269C889.25 794.269 889.88 794.491 890.72 795.157C891.56 795.824 892.821 796.712 894.501 797.823C897.651 800.045 901.852 803.155 906.473 806.932C911.094 810.709 915.084 814.042 917.815 816.708C919.285 818.041 920.335 819.152 921.175 819.818C921.805 820.263 922.226 820.707 922.226 820.929Z" fill="#453C87"/>
<path d="M944.905 727.616C944.905 727.616 943.645 729.616 941.334 732.504C939.024 735.392 936.084 739.391 932.513 743.835C929.153 748.278 926.002 752.277 923.902 755.166C921.591 758.054 920.331 759.831 920.121 759.831C920.121 759.831 920.331 759.387 920.961 758.498C921.591 757.609 922.431 756.499 923.482 754.943C925.582 751.833 928.522 747.834 931.883 743.39C935.244 738.947 938.394 734.948 940.914 732.282C942.175 730.949 943.015 729.838 943.645 728.949C944.485 728.061 944.905 727.616 944.905 727.616Z" fill="#453C87"/>
<ellipse cx="122.83" cy="563.654" rx="37.5961" ry="39.7687" fill="#FFD052"/>
<path d="M138.375 597.425L156.648 603.423L155.178 583.428L138.375 597.425Z" fill="#FFD052"/>
<path d="M122.469 471.092H126.043L125.78 490.433H122.732L122.469 471.092ZM124.256 498.212C123.607 498.212 123.051 497.98 122.587 497.515C122.123 497.051 121.891 496.495 121.891 495.847C121.891 495.198 122.123 494.642 122.587 494.178C123.051 493.714 123.607 493.482 124.256 493.482C124.904 493.482 125.46 493.714 125.924 494.178C126.389 494.642 126.621 495.198 126.621 495.847C126.621 496.285 126.516 496.679 126.305 497.029C126.086 497.388 125.797 497.673 125.438 497.883C125.079 498.102 124.685 498.212 124.256 498.212Z" fill="#F5F1EB"/>
<path d="M861.316 200.181C861.316 200.181 862.577 199.737 865.307 198.848C868.247 197.96 872.448 196.627 877.279 195.071C887.571 191.961 902.273 187.518 919.706 182.408L920.546 182.186L920.756 183.074C923.487 193.961 926.637 205.958 929.788 218.399C929.998 218.177 928.527 220.843 929.157 219.733H928.947H928.737L928.317 219.955L927.267 220.177L925.167 220.843C923.696 221.288 922.436 221.732 920.966 221.954C918.236 222.843 915.505 223.509 912.775 224.176C907.524 225.731 902.273 227.064 897.232 228.619C887.361 231.285 878.329 233.952 870.348 236.173L869.718 236.395L869.508 235.729C866.987 224.842 864.887 215.956 863.207 209.513C862.577 206.624 861.947 204.403 861.527 202.403C861.316 200.848 861.316 199.959 861.316 200.181C861.316 200.181 861.736 201.07 862.157 202.847C862.787 204.625 863.417 207.069 864.257 209.957C865.937 216.4 868.247 225.065 871.188 235.507L870.348 235.062C878.329 232.841 887.361 230.175 897.232 227.286C902.273 225.953 907.314 224.398 912.775 222.843C915.505 222.176 918.236 221.288 920.966 220.621C922.436 220.177 923.696 219.732 925.167 219.51L927.267 218.844L928.317 218.622L928.737 218.399H928.947H929.157C929.788 217.289 928.317 219.955 928.527 219.732C925.377 207.291 922.226 195.294 919.496 184.407L920.546 185.074C903.533 189.961 888.831 193.738 878.539 196.627C873.498 197.96 869.298 199.071 866.357 199.959C862.997 199.737 861.316 200.181 861.316 200.181Z" fill="#40337B"/>
<path d="M920.123 183.295C920.334 183.518 917.813 186.85 913.612 192.182C909.412 197.514 903.531 204.846 896.81 212.844C894.709 213.511 896.18 213.066 895.76 213.066H895.55H895.339H894.709L893.869 212.844L892.189 212.178C890.929 211.733 889.879 211.289 888.828 210.845C886.518 209.956 884.418 209.289 882.317 208.401C878.327 206.846 874.756 205.512 871.396 204.402C865.094 201.958 861.314 200.403 861.524 200.18C861.524 199.958 865.515 201.069 871.816 203.069C875.176 204.179 878.957 205.512 882.947 206.846C885.048 207.512 887.148 208.401 889.458 209.067C890.509 209.512 891.769 209.956 892.819 210.178L894.499 210.845L895.339 211.067L895.759 211.289H895.969H896.18C895.759 211.511 897.23 211.067 895.129 211.511C901.85 203.513 907.941 196.403 912.352 191.071C916.973 186.184 919.913 183.073 920.123 183.295Z" fill="#40337B"/>
<path d="M927.687 183.296C928.527 186.851 926.636 190.628 923.066 191.739C919.705 192.628 916.135 190.628 915.085 186.851C914.244 183.296 916.135 179.519 919.705 178.409C923.066 177.52 926.636 179.519 927.687 183.296Z" fill="#F19E36"/>
<path d="M67.1742 375.697C67.1742 375.697 68.6444 375.919 71.1648 376.586C74.1053 377.475 78.0959 378.363 82.9267 379.696C93.0084 382.362 107.501 386.361 124.303 391.027L125.144 391.249L124.934 392.138C122.203 402.802 119.263 414.355 116.322 426.575C116.532 426.352 114.222 427.908 115.062 427.241H114.852H114.642L114.222 427.019L113.172 426.797L111.071 426.13C109.811 425.686 108.341 425.464 107.081 425.019C104.35 424.353 101.83 423.464 99.3094 422.798C94.0585 421.242 89.2278 419.909 84.397 418.576C74.9454 415.688 66.124 413.244 58.3528 411.022L57.7227 410.8L57.9327 410.134C60.6631 399.692 62.9735 391.249 64.8638 385.028C65.7039 382.362 66.3341 380.141 66.7541 378.363C66.9641 376.364 67.1742 375.697 67.1742 375.697C67.1742 375.697 66.9642 376.586 66.7541 378.363C66.3341 380.141 65.7039 382.585 65.0738 385.251C63.6036 391.471 61.5032 399.914 59.1929 410.134L58.7728 409.245C66.5441 411.467 75.1555 413.911 84.817 416.577C89.6478 417.91 94.6886 419.465 99.7295 420.798C102.25 421.465 104.98 422.353 107.501 423.02C108.761 423.464 110.231 423.686 111.491 424.131L113.592 424.797L114.642 425.019L115.062 425.242H115.272H115.482C116.532 424.575 114.012 426.13 114.432 425.908C117.582 413.689 120.523 402.136 123.253 391.694L123.883 392.805C107.501 387.917 93.4284 383.695 83.3468 380.807C78.516 379.252 74.5254 378.141 71.5849 377.253C68.8544 376.364 67.3842 375.697 67.1742 375.697Z" fill="#40337B"/>
<path d="M124.096 391.916C124.096 392.138 120.525 393.693 114.434 396.137C108.343 398.359 100.152 401.469 90.7001 404.802C88.5998 404.135 90.07 404.58 89.65 404.58L89.4399 404.357L89.2299 403.913L88.5998 403.246L87.3396 401.913C86.4995 401.025 85.8694 400.136 85.0292 399.025C83.559 397.248 82.0887 395.47 80.6185 393.693C77.8881 390.361 75.5777 387.25 73.2673 384.584C69.0666 379.474 66.7563 376.142 66.9663 375.919C67.1763 375.697 69.9068 378.808 74.3175 383.695C76.6279 386.361 79.1483 389.25 81.8787 392.582C83.349 394.36 84.8192 395.915 86.2894 397.914C87.1296 398.803 87.7597 399.692 88.5998 400.803L89.86 402.136L90.4901 402.802L90.7001 403.246L90.9102 403.469C90.4901 403.246 91.9603 403.691 89.86 403.246C99.1015 399.914 107.503 397.026 113.594 395.026C120.315 392.804 124.096 391.694 124.096 391.916Z" fill="#40337B"/>
<path d="M957.928 450.125C957.718 450.125 957.928 445.46 956.038 437.239C955.198 433.24 953.307 428.352 950.367 423.242C947.426 418.132 943.226 412.8 937.555 408.357C931.884 403.914 924.743 400.137 916.551 398.581C908.36 397.026 899.119 397.471 890.297 401.025C885.886 402.58 881.686 405.024 877.695 408.135C875.595 409.69 873.914 411.467 872.024 413.245C870.344 415.244 868.664 417.022 867.193 419.243C861.102 427.908 857.532 439.017 857.532 450.347C857.532 461.678 861.102 472.787 867.193 481.451C868.664 483.673 870.344 485.673 872.024 487.672C873.914 489.45 875.595 491.227 877.695 492.782C881.686 495.893 885.886 498.336 890.297 499.892C899.119 503.446 908.36 503.669 916.551 502.336C924.743 500.78 931.884 497.003 937.555 492.56C943.226 488.117 947.426 482.784 950.367 477.674C953.307 472.565 954.988 467.677 956.038 463.678C958.138 454.791 957.718 449.903 957.928 450.125C957.928 450.125 957.928 450.347 957.928 451.014C957.928 451.68 957.928 452.569 957.928 453.458C957.928 454.569 957.928 455.902 957.508 457.679C957.298 459.234 957.088 461.234 956.458 463.233C955.618 467.455 953.937 472.342 950.997 477.674C948.057 483.007 943.856 488.339 938.185 493.004C932.514 497.67 925.163 501.669 916.761 503.224C908.36 504.779 898.908 504.557 889.877 501.002C885.256 499.447 880.846 496.781 876.855 493.671C874.755 492.116 872.864 490.338 870.974 488.561C869.294 486.561 867.403 484.562 865.933 482.34C859.632 473.453 856.061 462.122 855.852 450.347C855.852 438.572 859.422 427.242 865.933 418.355C867.403 416.133 869.294 414.133 870.974 412.134C872.864 410.356 874.755 408.357 876.855 407.024C880.846 403.914 885.256 401.247 889.877 399.692C898.908 396.137 908.36 395.915 916.761 397.47C925.163 399.026 932.514 403.025 938.185 407.69C943.856 412.356 948.057 417.91 950.997 423.02C953.937 428.352 955.618 433.24 956.458 437.461C957.088 439.461 957.298 441.46 957.508 443.016C957.718 444.571 957.928 446.126 957.928 447.237C957.928 448.348 957.928 449.236 957.928 449.681V450.125Z" fill="#40337B"/>
<path d="M961.711 450.126C961.711 450.126 961.711 449.903 961.501 449.237C961.501 448.57 961.291 447.682 961.291 446.571C961.291 445.46 961.081 443.905 960.871 442.127C960.661 440.35 960.451 438.35 959.61 436.129C958.56 431.685 956.67 426.575 953.519 421.021C950.369 415.467 945.958 409.912 939.867 405.025C933.776 400.137 926.215 396.138 917.394 394.583C908.572 393.027 898.701 393.25 889.249 397.027C884.418 398.804 880.008 401.47 875.807 404.803C873.707 406.358 871.816 408.357 869.716 410.357C867.826 412.356 865.935 414.578 864.465 417.022C857.954 426.353 854.173 438.128 854.173 450.348C854.173 456.569 855.224 462.567 856.904 468.121C858.584 473.898 861.315 479.008 864.465 483.673C865.935 486.117 867.826 488.117 869.716 490.339C871.606 492.338 873.707 494.115 875.807 495.893C880.008 499.225 884.628 501.891 889.249 503.669C898.701 507.446 908.572 507.668 917.394 506.113C926.215 504.558 933.986 500.336 939.867 495.671C945.958 490.783 950.369 485.007 953.519 479.674C956.67 474.12 958.56 469.01 959.61 464.567C960.241 462.345 960.451 460.345 960.871 458.568C961.291 456.791 961.291 455.458 961.291 454.125C961.291 453.014 961.501 452.125 961.501 451.459C961.501 450.348 961.501 450.126 961.711 450.126C961.711 450.126 961.711 450.348 961.711 451.014C961.711 451.681 961.711 452.569 961.711 453.68C961.711 454.791 961.711 456.346 961.291 458.124C961.081 459.901 960.871 461.901 960.241 464.122C959.4 468.566 957.51 473.898 954.36 479.452C951.209 485.006 946.798 491.005 940.497 495.893C934.406 500.781 926.635 505.002 917.604 506.779C908.572 508.557 898.491 508.112 888.829 504.335C883.998 502.558 879.167 499.892 874.967 496.559C872.656 495.004 870.766 493.004 868.666 491.005C866.775 488.783 864.885 486.784 863.205 484.34C859.844 479.452 857.114 474.12 855.434 468.343C853.543 462.567 852.703 456.346 852.703 450.125C852.703 437.462 856.694 425.242 863.415 415.911C865.095 413.467 866.985 411.245 868.876 409.246C870.976 407.246 872.866 405.247 875.177 403.692C879.587 400.359 884.208 397.693 889.039 395.916C898.701 392.139 908.782 391.917 917.814 393.472C926.845 395.249 934.616 399.47 940.707 404.358C946.798 409.468 951.419 415.244 954.57 420.799C957.72 426.353 959.611 431.685 960.451 436.129C961.081 438.35 961.291 440.35 961.501 442.127C961.711 443.905 961.921 445.46 961.921 446.571C961.921 447.682 961.921 448.57 961.921 449.237C961.711 449.681 961.711 450.126 961.711 450.126Z" fill="#40337B"/>
<path d="M907.521 407.69C907.101 407.69 906.891 405.246 906.891 402.135C906.891 399.025 907.311 396.581 907.521 396.581C907.941 396.581 908.151 399.025 908.151 402.135C908.151 405.246 907.941 407.69 907.521 407.69Z" fill="#40337B"/>
<path d="M879.587 419.688C879.377 419.91 877.487 418.355 875.597 415.911C873.706 413.467 872.446 411.468 872.866 411.246C873.076 411.023 874.966 412.579 876.857 415.023C878.537 417.244 879.797 419.466 879.587 419.688Z" fill="#40337B"/>
<path d="M943.017 487.007C942.807 487.229 940.916 485.674 939.026 483.23C937.136 480.786 935.876 478.786 936.296 478.564C936.506 478.342 938.396 479.897 940.286 482.341C942.177 484.563 943.437 486.562 943.017 487.007Z" fill="#40337B"/>
<path d="M947.426 450.126C947.426 449.681 949.736 449.459 952.677 449.459C955.617 449.459 957.927 449.903 957.927 450.126C957.927 450.57 955.617 450.792 952.677 450.792C949.736 450.792 947.426 450.348 947.426 450.126Z" fill="#40337B"/>
<path d="M856.691 450.126C856.691 449.681 859.002 449.459 861.942 449.459C864.883 449.459 867.193 449.903 867.193 450.126C867.193 450.57 864.883 450.792 861.942 450.792C859.002 450.792 856.691 450.348 856.691 450.126Z" fill="#40337B"/>
<path d="M907.521 503.446C907.101 503.446 906.891 501.003 906.891 497.892C906.891 494.782 907.311 492.338 907.521 492.338C907.941 492.338 908.151 494.782 908.151 497.892C908.151 501.003 907.941 503.446 907.521 503.446Z" fill="#40337B"/>
<path d="M876.857 477.229C877.067 477.451 875.596 479.451 873.286 481.45C870.976 483.45 869.085 484.783 868.875 484.339C868.665 484.116 870.136 482.117 872.446 480.117C874.546 478.118 876.647 476.785 876.857 477.229Z" fill="#40337B"/>
<path d="M943.853 411.913C944.063 412.135 942.593 414.134 940.282 416.134C937.972 418.134 936.082 419.467 935.871 419.022C935.661 418.8 937.132 416.801 939.442 414.801C941.542 412.801 943.433 411.468 943.853 411.913Z" fill="#40337B"/>
<path d="M927.263 458.79C927.263 459.012 924.953 459.234 920.752 459.234C916.761 459.456 911.09 459.456 904.579 459.456H903.949V458.79C903.949 456.568 903.949 454.124 903.949 451.68C903.949 443.016 903.949 435.24 904.159 429.685C904.369 424.131 904.369 420.576 904.579 420.576C904.789 420.576 904.999 424.131 904.999 429.685C905.21 435.24 905.21 443.016 905.21 451.68C905.21 454.124 905.21 456.568 905.21 458.79L904.579 458.123C911.091 458.123 916.761 458.345 920.752 458.345C924.743 458.567 927.263 458.79 927.263 458.79Z" fill="#40337B"/>
<path d="M297.162 233.287C297.162 233.509 295.901 233.287 293.801 234.175C291.911 234.842 288.76 237.064 287.71 241.063C287.08 243.062 287.29 245.506 287.29 247.95C287.29 250.616 287.29 253.282 287.29 256.392C287.29 257.948 287.29 259.503 287.5 260.836C287.71 262.391 288.34 263.724 289.18 265.057C290.86 267.723 293.801 269.501 297.162 269.501H297.792V270.167C297.792 272.833 297.792 275.944 297.792 278.832L296.741 278.387C299.892 275.499 303.042 272.611 306.403 269.723L306.613 269.501H306.823C312.284 269.501 317.955 269.501 323.836 269.501C325.306 269.501 326.776 269.501 328.247 269.501C329.717 269.501 330.977 269.501 332.237 269.056C334.758 268.39 336.858 266.39 338.118 263.946C338.748 262.835 338.958 261.502 339.168 260.169C339.168 258.836 339.168 257.281 339.168 255.948C339.168 253.06 339.168 250.394 339.168 247.728C339.168 245.062 339.378 242.396 338.538 240.174C337.698 237.952 336.018 236.175 334.338 235.064C332.447 233.953 330.347 233.731 328.247 233.731C326.146 233.731 324.256 233.731 322.156 233.731C314.594 233.731 308.503 233.509 304.093 233.509C301.992 233.509 300.522 233.509 299.262 233.287C297.792 233.287 297.162 233.287 297.162 233.287C297.162 233.287 297.792 233.287 298.842 233.064C300.102 233.064 301.782 233.064 303.673 232.842C308.083 232.842 314.174 232.62 321.736 232.62C323.626 232.62 325.726 232.62 327.826 232.62C329.927 232.62 332.237 232.62 334.338 233.953C336.438 235.064 338.118 237.064 339.168 239.507C339.588 240.84 340.008 242.173 340.008 243.507C340.008 244.84 340.008 246.173 340.008 247.506C340.008 250.172 340.008 252.838 340.008 255.726C340.008 257.059 340.008 258.392 340.008 259.947C340.008 261.502 339.588 263.058 338.958 264.391C337.698 267.057 335.178 269.501 332.447 270.389C330.977 270.834 329.507 270.834 328.037 270.834C326.566 270.834 325.096 270.834 323.626 270.834C317.745 270.834 312.074 270.834 306.613 270.834L307.033 270.611C303.672 273.5 300.522 276.61 297.371 279.276L296.321 280.165V278.832C296.321 275.721 296.321 272.833 296.531 270.167L297.161 270.834C293.381 270.834 290.02 268.834 288.34 265.724C287.5 264.168 286.87 262.613 286.66 261.058C286.45 259.281 286.66 257.948 286.66 256.392C286.66 253.504 286.66 250.616 286.66 247.95C286.66 245.284 286.45 242.84 287.29 240.84C288.76 236.619 291.911 234.397 294.011 233.731C295.901 232.842 297.162 233.287 297.162 233.287Z" fill="#40337B"/>
</svg>
