<svg width="188" height="250" viewBox="0 0 188 250" fill="none" xmlns="http://www.w3.org/2000/svg">
<path d="M50.0356 24.0698C50.2895 24.1472 50.5433 24.2246 50.8049 24.3044C53.2774 25.0759 55.6872 25.9993 58.0997 26.9383C59.2147 27.3708 60.3354 27.7662 61.4746 28.132C64.5473 29.12 67.4787 30.4984 70.4089 31.8401C70.8793 32.0534 70.8793 32.0534 71.3592 32.271C71.6621 32.4093 71.9649 32.5477 72.2769 32.6902C72.5469 32.8135 72.8169 32.9367 73.0951 33.0636C73.8794 33.4488 74.614 33.8867 75.3621 34.337C75.8592 34.5535 76.3566 34.7694 76.8575 34.9771C78.0644 35.4904 79.2436 36.0651 80.4274 36.6289C80.7025 36.7598 80.9777 36.8908 81.2611 37.0257C85.1054 38.8605 88.9451 40.6951 92.5766 42.9271C93.8338 43.686 95.1272 44.3502 96.4456 44.9954C98.9389 46.2159 101.357 47.5564 103.777 48.9141C104.567 49.3527 105.366 49.7728 106.165 50.1942C107.484 50.9057 108.68 51.7343 109.895 52.6072C110.921 53.3026 112.001 53.8676 113.095 54.4473C114.513 55.2205 115.936 56.0274 117.23 56.9955C117.23 57.1922 117.23 57.389 117.23 57.5917C117.724 57.6901 118.217 57.7885 118.725 57.8899C118.725 58.0866 118.725 58.2834 118.725 58.4862C118.941 58.5649 119.156 58.6437 119.377 58.7249C120.24 59.0906 120.969 59.5226 121.753 60.0327C122.649 60.6137 123.545 61.1908 124.455 61.7494C124.754 61.9331 125.053 62.1168 125.361 62.306C125.774 62.558 125.774 62.558 126.196 62.815C126.395 62.9606 126.595 63.1063 126.8 63.2564C126.8 63.4531 126.8 63.6499 126.8 63.8526C127.018 63.9318 127.236 64.011 127.461 64.0925C128.293 64.4481 128.945 64.8547 129.678 65.3806C129.939 65.5662 130.199 65.7518 130.467 65.9431C130.737 66.1387 131.007 66.3343 131.286 66.5359C131.553 66.7284 131.82 66.921 132.095 67.1193C132.646 67.5174 133.196 67.9165 133.745 68.3166C134.288 68.7118 134.832 69.1055 135.378 69.4975C139.208 72.2516 142.89 75.1752 146.538 78.1633C146.706 78.3002 146.875 78.4372 147.049 78.5783C148.721 79.9465 150.236 81.3324 150.501 83.574C150.653 86.6622 149.271 89.2241 147.873 91.9009C147.385 92.8711 146.964 93.8602 146.538 94.859C146.223 95.5373 145.905 96.2142 145.585 96.8901C144.764 98.634 143.961 100.386 143.173 102.145C143.075 102.363 142.977 102.582 142.875 102.807C142.417 103.835 141.982 104.864 141.593 105.92C141.185 107.026 140.707 108.086 140.202 109.151C140.113 109.339 140.024 109.528 139.932 109.722C139.54 110.551 139.146 111.378 138.751 112.205C137.163 115.521 137.163 115.521 135.75 118.913C135.433 119.703 135.082 120.472 134.725 121.244C134.155 122.482 133.628 123.727 133.128 124.994C132.416 126.782 131.673 128.557 130.936 130.334C130.72 130.855 130.507 131.376 130.294 131.898C129.542 133.73 128.721 135.522 127.869 137.31C127.338 138.436 126.869 139.563 126.445 140.735C125.325 143.732 123.836 146.576 122.434 149.449C121.576 151.218 120.749 153.001 119.922 154.785C119.762 155.123 119.603 155.462 119.439 155.811C118.767 157.245 118.112 158.671 117.548 160.151C116.94 161.714 116.125 163.147 115.315 164.614C114.846 165.502 114.482 166.368 114.157 167.315C113.905 167.998 113.599 168.643 113.286 169.3C112.288 171.454 111.476 173.678 110.64 175.898C110.155 177.185 109.649 178.463 109.133 179.738C108.187 182.084 107.796 183.446 108.605 185.912C108.953 186.981 109.065 187.949 109.156 189.071C109.175 189.26 109.194 189.45 109.214 189.646C109.638 197.111 103.985 204.334 99.3661 209.698C98.6466 210.489 98.6466 210.489 98.3895 211.431C98.0468 211.773 97.7031 212.113 97.3533 212.448C96.1082 213.733 94.9542 215.17 94.2027 216.797C94.0053 216.797 93.8079 216.797 93.6046 216.797C93.5306 217.013 93.4566 217.228 93.3803 217.45C93.0065 218.288 93.0065 218.288 92.4644 218.959C91.7511 219.853 91.2449 220.772 90.7168 221.782C90.3149 222.462 90.3149 222.462 89.7437 223.153C88.999 224.106 88.4748 225.089 87.9412 226.17C87.8376 226.379 87.7341 226.588 87.6274 226.804C85.4212 231.35 83.4664 237.023 84.87 242.103C85.1489 242.75 85.455 243.332 85.8291 243.928C85.9524 244.156 86.0758 244.383 86.2029 244.617C87.9232 246.271 89.9236 246.518 92.2214 246.481C92.6525 246.477 92.6525 246.477 93.0923 246.472C99.915 246.278 106.58 242.832 112.29 239.313C113.225 238.751 114.178 238.224 115.137 237.704C115.464 237.527 115.791 237.349 116.127 237.166C116.931 236.773 116.931 236.773 117.529 236.773C117.529 236.576 117.529 236.379 117.529 236.176C118.051 235.838 118.591 235.526 119.137 235.226C122.862 233.156 122.862 233.156 125.415 229.863C126.01 228.837 126.704 227.923 127.435 226.99C127.561 226.829 127.687 226.669 127.816 226.503C128.174 226.049 128.533 225.597 128.893 225.145C129.206 224.743 129.206 224.743 129.525 224.332C130.225 223.492 131.043 222.86 131.884 222.164C132.051 221.936 132.217 221.709 132.389 221.474C132.518 221.308 132.648 221.142 132.781 220.971C133.077 220.971 133.373 220.971 133.678 220.971C133.738 220.805 133.798 220.639 133.859 220.468C134.441 219.507 135.271 218.941 136.164 218.288C136.506 218.034 136.847 217.779 137.189 217.524C137.437 217.341 137.437 217.341 137.69 217.154C138.126 216.826 138.551 216.486 138.976 216.144C139.845 215.458 140.785 214.942 141.753 214.412C141.96 214.292 142.167 214.172 142.38 214.048C145.345 212.343 148.583 211.283 151.811 210.185C152.319 210.009 152.824 209.826 153.328 209.637C155.68 208.788 157.94 208.448 160.425 208.226C160.79 208.189 161.155 208.151 161.531 208.113C164.879 207.79 168.181 207.657 171.509 208.207C171.736 208.238 171.962 208.268 172.196 208.299C173.741 208.548 174.569 208.946 175.546 210.238C175.912 211.129 175.912 211.129 176.163 212.12C176.307 212.671 176.307 212.671 176.453 213.233C176.55 213.626 176.646 214.019 176.743 214.412C176.845 214.815 176.948 215.218 177.051 215.62C177.438 217.139 177.813 218.662 178.182 220.185C178.509 221.523 178.847 222.826 179.322 224.12C179.924 225.848 180.321 227.858 179.733 229.617C178.761 230.263 177.689 230.421 176.556 230.642C174.784 231.006 173.084 231.465 171.36 232.002C170.688 232.204 170.015 232.403 169.341 232.599C169.028 232.691 168.715 232.783 168.392 232.878C166.977 233.265 165.538 233.552 164.102 233.854C163.035 234.079 161.969 234.312 160.903 234.547C154.293 235.995 154.293 235.995 151.013 236.366C150.197 236.466 149.415 236.613 148.613 236.791C142.792 237.999 134.033 238.358 128.371 236.362C127.186 236.036 126.242 236.007 125.131 236.563C124.878 236.739 124.625 236.914 124.364 237.095C122.66 238.238 120.909 239.256 119.118 240.257C118.825 240.423 118.532 240.588 118.23 240.759C116.621 241.662 115.002 242.525 113.342 243.332C112.991 243.507 112.639 243.682 112.277 243.863C111.237 244.381 110.196 244.9 109.156 245.419C108.966 245.517 108.776 245.616 108.581 245.717C107.168 246.444 105.744 247.015 104.24 247.524C104.016 247.601 103.793 247.678 103.563 247.757C103.126 247.907 102.69 248.056 102.253 248.204C101.789 248.362 101.328 248.527 100.867 248.692C98.1148 249.67 95.4485 249.951 92.5392 249.984C92.2777 249.989 92.0163 249.994 91.7469 250C89.3742 249.997 86.8619 249.577 84.9319 248.102C84.9319 247.905 84.9319 247.708 84.9319 247.506C84.7654 247.45 84.5988 247.395 84.4272 247.338C82.7575 246.303 81.8666 244.359 81.2638 242.551C79.7305 235.51 82.6351 228.247 86.0347 222.201C86.1654 221.968 86.2961 221.735 86.4307 221.495C86.5282 221.322 86.6258 221.15 86.7263 220.971C86.9236 220.971 87.121 220.971 87.3244 220.971C87.3984 220.719 87.4724 220.467 87.5487 220.207C87.9643 219.068 88.494 218.133 89.1187 217.096C89.3161 217.096 89.5135 217.096 89.7168 217.096C89.7966 216.878 89.8764 216.66 89.9586 216.435C90.3111 215.614 90.7103 214.97 91.2308 214.245C91.5066 213.86 91.5066 213.86 91.788 213.467C92.6777 212.257 93.5841 211.061 94.4971 209.869C95.1042 209.068 95.1042 209.068 95.5718 208.25C95.9688 207.601 96.3533 207.187 96.8942 206.661C97.3074 206.127 97.7117 205.585 98.1091 205.04C98.3162 204.757 98.5232 204.475 98.7365 204.184C99.1851 203.529 99.5558 202.908 99.8848 202.189C100.082 202.189 100.28 202.189 100.483 202.189C100.585 201.903 100.585 201.903 100.689 201.611C101.335 200.107 102.155 198.689 103.023 197.301C104.461 194.823 105.108 192.39 105.118 189.555C105.12 189.336 105.122 189.116 105.124 188.89C105.089 187.365 104.878 185.92 104.072 184.599C103.212 183.917 103.212 183.917 102.184 183.481C100.837 182.838 99.6187 182.166 98.3895 181.319C97.9916 181.054 97.5932 180.789 97.1944 180.525C96.9804 180.382 96.7663 180.24 96.5458 180.094C96.0807 179.785 95.6156 179.475 95.1504 179.166C94.0344 178.425 92.9186 177.683 91.8044 176.939C91.4326 176.691 91.0607 176.443 90.6888 176.195C90.5088 176.075 90.3288 175.955 90.1434 175.831C88.5237 174.755 86.8836 173.712 85.238 172.675C84.2078 171.993 83.23 171.29 82.3712 170.4C81.9566 169.96 81.9566 169.96 81.3806 169.729C80.5099 169.269 79.9465 168.597 79.2498 167.903C78.6179 167.425 77.9775 166.965 77.3281 166.511C77.1728 166.38 77.0174 166.249 76.8574 166.114C76.8574 165.917 76.8574 165.72 76.8574 165.518C76.6924 165.495 76.5274 165.472 76.3574 165.449C75.4087 165.136 74.842 164.587 74.0911 163.934C72.2351 162.27 72.2351 162.27 69.979 161.344C68.9843 161.553 68.1716 162.049 67.2875 162.536C66.604 162.857 65.9184 163.173 65.2315 163.487C64.8458 163.666 64.4603 163.846 64.075 164.027C63.4092 164.339 62.7434 164.65 62.0771 164.961C61.3213 165.313 60.5661 165.667 59.8111 166.021C59.5752 166.131 59.3393 166.24 59.0963 166.354C57.3381 167.18 55.6762 168.103 54.0168 169.114C52.3571 170.055 50.3704 170.906 48.4469 170.586C47.5047 170.163 46.6388 169.627 45.7553 169.095C45.1956 168.774 44.6342 168.456 44.0726 168.137C43.2366 167.664 42.4027 167.187 41.5685 166.71C41.5685 166.513 41.5685 166.317 41.5685 166.114C41.3619 166.051 41.1553 165.989 40.9424 165.924C39.8043 165.392 39.03 164.646 38.1294 163.785C37.8801 163.552 37.8801 163.552 37.6259 163.314C36.6288 162.377 35.6574 161.417 34.6902 160.449C34.5187 160.289 34.3471 160.128 34.1704 159.963C32.8383 158.704 31.7914 157.313 30.7417 155.814C30.2514 155.107 30.2514 155.107 29.7685 154.651C28.994 153.874 28.3923 152.973 27.7558 152.083C27.5479 151.798 27.5479 151.798 27.3358 151.507C26.3166 150.087 26.3166 150.087 26.3166 149.418C26.1192 149.418 25.9218 149.418 25.7185 149.418C25.2679 148.787 24.8539 148.158 24.4475 147.499C24.2043 147.112 23.961 146.725 23.7174 146.338C23.5398 146.054 23.5398 146.054 23.3586 145.765C22.9476 145.12 22.5122 144.493 22.0737 143.865C21.1973 142.572 20.5257 141.197 19.8553 139.788C19.4761 138.999 19.4761 138.999 19.0107 138.424C18.3343 137.512 17.8639 136.516 17.3636 135.499C17.257 135.284 17.1505 135.069 17.0407 134.848C16.3063 133.36 15.6041 131.863 14.9524 130.337C14.8078 130.006 14.6633 129.674 14.5143 129.332C13.1855 126.277 13.1855 126.277 12.6908 124.915C12.2537 123.715 11.7142 122.567 11.1785 121.408C8.60313 115.737 6.38534 109.822 4.78444 103.803C4.63525 103.256 4.63525 103.256 4.48305 102.698C3.83298 100.22 3.29818 97.7219 2.78449 95.213C2.68821 94.749 2.68821 94.749 2.58999 94.2755C1.99543 91.3062 1.74026 88.3813 1.73779 85.3558C1.73413 85.1129 1.73047 84.8701 1.72669 84.6198C1.72353 83.3293 1.77351 82.3136 2.39198 81.1446C2.69104 80.8465 2.69104 80.8465 3.84989 80.6602C5.38526 80.3323 6.47911 79.6238 7.77035 78.7572C8.73983 78.1187 9.73519 77.5389 10.7469 76.9707C12.0777 76.2222 13.3974 75.4599 14.7094 74.6788C16.0958 73.869 17.5028 73.1794 18.9745 72.5382C19.6974 72.2182 20.3988 71.8722 21.1018 71.5111C22.1298 71.0079 22.1298 71.0079 22.7279 71.0079C22.7526 70.6943 22.7772 70.3807 22.8027 70.0576C23.2319 66.7225 24.6373 63.6089 26.0175 60.5731C26.1516 60.2783 26.1516 60.2783 26.2883 59.9776C26.5638 59.374 26.8414 58.7714 27.1203 58.1694C27.2056 57.9848 27.2909 57.8001 27.3789 57.6099C27.7416 56.8372 28.1148 56.0948 28.5665 55.3697C29.1326 54.3963 29.5063 53.3733 29.8866 52.3184C32.1558 46.1049 34.7775 39.9843 37.9565 34.1763C38.1512 33.8199 38.3459 33.4635 38.5406 33.1072C38.6371 32.9314 38.7337 32.7556 38.8331 32.5746C39.4528 31.4244 40.0078 30.2568 40.537 29.0625C40.6679 28.7672 40.7989 28.4719 40.9338 28.1676C41.1902 27.5834 41.4429 26.9975 41.6916 26.41C43.5499 22.1647 46.0904 22.8389 50.0356 24.0698Z" fill="#010101"/>
<path d="M65.5879 54.7041C65.9336 54.8207 65.9336 54.8207 66.2862 54.9396C73.0583 57.3681 79.1322 62.3033 84.3351 67.1327C84.5633 67.3407 84.7915 67.5486 85.0267 67.7628C90.2367 72.6952 93.6872 79.892 96.8955 86.2136C97.1197 86.6492 97.344 87.0847 97.5684 87.5202C99.1148 90.5395 100.389 93.5193 101.344 96.7777C101.625 97.6646 101.937 98.5211 102.268 99.3899C102.889 101.079 103.291 102.768 103.643 104.53C103.701 104.807 103.76 105.083 103.82 105.368C104.018 106.335 104.197 107.304 104.372 108.276C104.411 108.48 104.449 108.685 104.489 108.895C105.251 112.984 105.409 116.992 105.386 121.145C105.381 122.177 105.386 123.21 105.392 124.242C105.395 127.658 105.266 130.94 104.592 134.294C104.374 135.396 104.223 136.49 104.092 137.605C103.85 139.427 103.562 141.238 103.232 143.046C103.19 143.301 103.147 143.555 103.104 143.818C102.798 145.42 102.452 146.328 101.082 147.332C100.109 147.843 99.1104 148.262 98.0918 148.673C97.8103 148.791 97.5288 148.908 97.2388 149.029C95.7522 149.644 94.2568 150.225 92.7461 150.779C91.1514 151.376 89.6752 152.134 88.1853 152.949C86.1401 154.063 84.0362 155.04 81.9191 156.01C81.3949 156.253 80.8747 156.504 80.3551 156.757C80.071 156.893 79.7868 157.03 79.4941 157.17C79.2555 157.287 79.0169 157.404 78.771 157.524C77.8919 157.822 77.1828 157.842 76.2606 157.767C75.6811 157.264 75.6811 157.264 75.3634 156.574C75.3821 155.81 75.3821 155.81 75.6624 155.083C76.6004 154.241 77.61 153.862 78.7839 153.425C81.3034 152.46 83.718 151.296 86.1458 150.125C88.7546 148.874 91.3813 147.813 94.1106 146.847C94.44 146.73 94.7694 146.612 95.1088 146.491C96.5969 145.961 98.0867 145.441 99.5871 144.947C99.7469 143.723 99.9062 142.5 100.065 141.276C100.119 140.863 100.173 140.449 100.227 140.036C100.361 139.012 100.493 137.988 100.622 136.963C100.726 136.141 100.837 135.319 100.953 134.498C101.429 131.001 101.5 127.529 101.494 124.003C101.493 123.702 101.493 123.402 101.493 123.093C101.483 118.055 101.156 113.23 100.185 108.276C100.131 107.986 100.076 107.697 100.02 107.398C99.226 103.258 97.9666 99.3014 96.5645 95.3295C96.3409 94.6864 96.1294 94.0422 95.9271 93.3922C95.0543 90.6962 93.7167 88.3219 92.3221 85.8677C91.6401 84.6654 91.0142 83.45 90.4097 82.2073C89.4078 80.1788 88.2523 78.276 87.0266 76.375C86.8323 76.0672 86.638 75.7593 86.4379 75.4422C85.1088 73.3837 83.6432 71.5794 81.9426 69.816C81.7121 69.5708 81.4816 69.3256 81.2441 69.073C79.3444 67.1056 77.2749 65.4504 75.0643 63.8532C74.8784 63.7174 74.6924 63.5816 74.5008 63.4417C71.633 61.3598 68.7018 59.6916 65.4945 58.1886C65.2084 58.0133 64.9224 57.8381 64.6277 57.6575C62.4507 56.8047 60.1972 57.789 58.1115 58.5613C57.8498 58.6554 57.5881 58.7495 57.3185 58.8465C56.7942 59.0353 56.2704 59.2253 55.7471 59.4165C54.7929 59.7649 53.8355 60.1041 52.878 60.4433C52.5503 60.5605 52.2226 60.6777 51.885 60.7985C51.121 61.0702 50.3564 61.3397 49.5907 61.6067C46.5102 62.6816 43.4567 63.809 40.4297 65.0271C39.1024 65.5586 37.7676 66.0693 36.4298 66.5737C36.2308 66.6494 36.0317 66.7251 35.8266 66.8031C32.0072 68.2352 32.0072 68.2352 30.5047 68.0271C29.9627 67.6731 29.9627 67.6731 29.6075 67.1327C29.4954 66.3874 29.4954 66.3874 29.6075 65.642C30.2968 64.7582 31.0429 64.4985 32.0935 64.1572C32.5712 63.9984 32.5712 63.9984 33.0587 63.8364C33.4001 63.7251 33.7416 63.6138 34.0934 63.4992C36.4529 62.7105 38.7718 61.8975 41.0465 60.8905C43.638 59.7536 46.3055 58.8727 48.9945 57.9989C51.7971 57.0882 54.5653 56.1189 57.3059 55.0354C60.1975 53.8993 62.6302 53.7018 65.5879 54.7041Z" fill="#F6F6F6"/>
<path d="M8.37328 81.4424C9.59216 81.3494 10.1282 81.5147 11.0835 82.2623C12.3477 83.1981 13.6464 84.0022 15.0086 84.7894C17.4867 86.2234 19.7384 87.7096 21.8694 89.6191C22.6812 90.3447 23.5166 91.0185 24.3729 91.6909C27.4216 94.1781 30.0168 96.9729 32.3972 100.092C33.0299 100.918 33.6942 101.706 34.3817 102.487C40.0446 108.943 44.3209 116.487 47.0826 124.598C47.6439 126.227 48.215 127.848 48.8427 129.454C49.6327 131.478 50.2958 133.522 50.8955 135.61C51.0023 135.982 51.0023 135.982 51.1112 136.361C52.9693 142.99 54.3431 149.972 54.4282 156.871C54.4354 157.189 54.4427 157.506 54.4502 157.833C54.4739 158.897 54.4898 159.962 54.5029 161.027C54.5127 161.539 54.5127 161.539 54.5226 162.062C54.5238 162.381 54.525 162.7 54.5263 163.029C54.5291 163.315 54.5319 163.6 54.5348 163.895C54.4282 164.623 54.4282 164.623 54.04 165.173C53.531 165.517 53.531 165.517 52.4656 165.461C51.4376 165.219 51.4376 165.219 50.8395 164.623C50.7536 163.974 50.7536 163.974 50.7367 163.167C50.7278 162.868 50.7189 162.568 50.7098 162.26C50.7 161.788 50.7 161.788 50.6899 161.306C50.5941 156.94 49.9658 152.667 49.2912 148.36C49.1931 147.731 49.0975 147.102 49.0019 146.473C48.9386 146.065 48.8751 145.658 48.8115 145.251C48.7558 144.891 48.7001 144.531 48.6427 144.16C48.4532 143.189 48.1767 142.301 47.8489 141.368C47.7103 140.73 47.5799 140.09 47.4564 139.449C46.709 135.905 45.4042 132.546 44.1373 129.162C43.5896 127.693 43.0797 126.219 42.5967 124.728C40.0366 117.031 35.715 110.303 30.6296 104.035C30.2006 103.5 29.782 102.958 29.3646 102.415C25.4338 97.3605 20.778 92.6173 15.5507 88.8959C15.1873 88.635 14.824 88.3742 14.4607 88.1133C13.7507 87.6056 13.0387 87.101 12.3253 86.5981C8.89311 84.1577 8.89311 84.1577 8.07422 82.9331C8.18637 82.1319 8.18637 82.1319 8.37328 81.4424Z" fill="#F7F7F7"/>
<path d="M184.818 102.312C185.395 102.37 185.395 102.37 186.014 102.611C186.371 103.122 186.371 103.122 186.65 103.785C186.743 103.996 186.836 104.208 186.932 104.426C189.431 112.224 187.223 120.298 183.622 127.356C183.024 128.419 182.383 129.461 181.528 130.337C181.331 130.337 181.133 130.337 180.93 130.337C180.868 130.503 180.807 130.67 180.743 130.841C180.158 131.822 179.477 132.378 178.538 133.021C177.715 133.021 177.715 133.021 177.042 132.723C176.322 131.646 176.228 131.31 176.444 130.039C176.896 129.44 177.401 128.915 177.917 128.37C179.672 126.344 181.033 123.837 182.126 121.393C182.22 121.189 182.314 120.985 182.41 120.775C182.746 119.996 183.037 119.21 183.322 118.412C183.457 118.052 183.592 117.693 183.73 117.322C185.225 112.955 185.36 107.974 184.643 103.425C184.602 103.156 184.561 102.887 184.519 102.611C184.617 102.512 184.716 102.414 184.818 102.312Z" fill="#121212"/>
<path d="M27.2136 11.0819C27.8117 11.6782 27.8117 11.6782 27.8701 12.2581C27.8506 12.8598 27.8312 13.4616 27.8117 14.0633C27.5769 14.1605 27.3421 14.2577 27.1003 14.3579C26.629 14.5533 26.629 14.5533 26.1482 14.7527C25.8394 14.8807 25.5306 15.0087 25.2125 15.1405C21.0476 16.8808 17.2764 18.6613 13.756 21.5167C13.4414 21.7504 13.1268 21.9841 12.8027 22.2248C11.2721 23.649 9.83274 25.297 8.79815 27.1173C8.37293 27.7776 8.37293 27.7776 7.45707 28.0571C7.16717 28.0633 6.87727 28.0694 6.57858 28.0758C6.38121 27.879 6.18383 27.6822 5.98047 27.4795C6.1043 24.9282 6.1043 24.9282 7.1767 23.9018C7.37408 23.9018 7.57146 23.9018 7.77482 23.9018C7.80219 23.735 7.82956 23.5682 7.85776 23.3964C8.52717 21.2681 10.5322 19.5321 12.3319 18.3129C12.8673 17.9554 12.8673 17.9554 13.2969 17.4988C13.8317 16.9697 14.398 16.5821 15.027 16.1689C15.2444 16.0248 15.4618 15.8806 15.6858 15.7321C16.6215 15.147 17.5779 14.6021 18.5409 14.0633C18.7221 13.9614 18.9034 13.8594 19.0901 13.7544C19.6465 13.4438 20.2055 13.1382 20.7651 12.8335C20.9496 12.7301 21.1341 12.6267 21.3241 12.5202C23.163 11.5244 25.0887 10.8801 27.2136 11.0819Z" fill="#0B0B0B"/>
<path d="M24.8218 0.0512478C25.5894 1.19917 25.3699 1.71656 25.1208 3.03263C24.9027 3.11602 24.6845 3.19942 24.4597 3.28535C23.7876 3.54259 23.1159 3.80085 22.4445 4.05981C21.5925 4.3876 20.7378 4.70745 19.8815 5.0241C17.3882 5.95456 15.0807 6.91289 12.8595 8.39911C12.2623 8.7856 11.6641 9.17067 11.0651 9.5544C10.7937 9.73195 10.5223 9.90951 10.2427 10.0924C9.56985 10.4861 9.56985 10.4861 8.97173 10.4861C8.97173 10.6828 8.97173 10.8796 8.97173 11.0824C8.31415 11.5836 7.65591 12.0545 6.97178 12.5171C5.60923 13.4418 4.45788 14.3857 3.28963 15.5544C2.84553 15.702 2.84553 15.702 2.39246 15.8526C1.88231 16.3375 1.38232 16.8335 0.897173 17.3433C0.601106 17.2449 0.305039 17.1465 0 17.0451C0.17143 15.8915 0.714609 15.2109 1.49529 14.3619C1.69267 14.3619 1.89004 14.3619 2.0934 14.3619C2.21368 14.0759 2.21368 14.0759 2.33639 13.7842C2.69152 13.1693 2.69152 13.1693 3.58869 12.8712C3.79468 12.477 3.99332 12.079 4.18681 11.6786C4.66343 11.1895 4.66343 11.1895 5.23351 10.7097C5.44708 10.5298 5.66065 10.35 5.88069 10.1646C6.11122 9.97556 6.34175 9.78648 6.57927 9.59166C6.81597 9.39643 7.05267 9.2012 7.29654 9.00005C8.99512 7.62185 10.743 6.33749 12.5604 5.11959C12.7563 4.98816 12.9521 4.85672 13.1539 4.7213C15.7763 3.02519 18.6182 1.75513 21.5322 0.647524C21.7874 0.540299 22.0426 0.433074 22.3055 0.3226C23.1995 -0.0134152 23.8744 -0.0536992 24.8218 0.0512478Z" fill="#121212"/>
<path d="M175.865 101.996C176.3 102.005 176.3 102.005 176.744 102.015C177.8 104.2 178.135 106.047 178.09 108.462C178.086 108.775 178.082 109.089 178.079 109.412C177.971 113.653 176.744 117.279 174.95 121.096C174.752 121.096 174.555 121.096 174.351 121.096C174.154 121.489 173.957 121.883 173.753 122.288C173.063 122.288 172.372 122.288 171.66 122.288C171.217 121.586 171.044 121.229 171.157 120.395C171.359 119.614 171.621 118.937 171.958 118.205C172.076 117.942 172.193 117.679 172.315 117.408C172.561 116.867 172.808 116.325 173.058 115.785C174.51 112.526 174.735 109.541 174.669 106.002C174.659 105.309 174.65 104.616 174.642 103.922C174.637 103.62 174.632 103.318 174.626 103.006C174.664 101.943 174.778 102.018 175.865 101.996Z" fill="#070707"/>
<path d="M168.668 211.729C168.964 212.025 168.964 212.025 169.266 212.326C169.21 213.071 169.21 213.071 168.967 213.816C167.888 214.534 167.207 214.55 165.92 214.674C163.746 214.908 161.69 215.364 159.58 215.922C158.709 216.147 157.851 216.338 156.967 216.5C155.051 216.862 153.192 217.441 151.323 217.99C150.625 218.19 149.927 218.389 149.229 218.587C149.131 218.98 149.032 219.374 148.93 219.779C147.943 219.779 146.956 219.779 145.94 219.779C145.841 219.386 145.742 218.992 145.641 218.587C150.464 214.603 157.283 213.43 163.285 212.251C163.546 212.199 163.807 212.147 164.075 212.093C165.632 211.797 167.083 211.624 168.668 211.729Z" fill="#EFEFEF"/>
<path d="M167.771 217.692C167.919 218.43 167.919 218.43 168.07 219.183C167.039 219.854 166.159 220.237 164.957 220.493C164.64 220.562 164.323 220.63 163.997 220.701C163.487 220.807 163.487 220.807 162.967 220.916C162.615 220.991 162.263 221.066 161.9 221.144C161.152 221.304 160.405 221.462 159.657 221.62C158.493 221.867 157.331 222.122 156.168 222.379C155.419 222.544 154.67 222.708 153.921 222.872C153.568 222.95 153.216 223.029 152.852 223.109C152.521 223.181 152.19 223.253 151.849 223.326C151.559 223.39 151.269 223.453 150.971 223.519C150.077 223.663 149.235 223.678 148.332 223.655C148.631 222.76 148.631 222.76 149.17 222.486C149.403 222.411 149.636 222.336 149.876 222.258C150.136 222.173 150.395 222.088 150.662 222C150.942 221.913 151.221 221.825 151.51 221.735C151.795 221.644 152.081 221.552 152.375 221.457C154.697 220.72 157.031 220.065 159.397 219.481C160.039 219.322 160.681 219.163 161.323 219.004C161.921 218.856 162.519 218.711 163.118 218.565C164.174 218.304 164.174 218.304 165.155 217.957C166.067 217.663 166.818 217.647 167.771 217.692Z" fill="#EAEAEA"/>
<path d="M166.575 223.655C166.874 223.953 166.874 223.953 166.893 224.717C166.886 224.957 166.88 225.196 166.874 225.443C164.922 226.05 162.936 226.423 160.93 226.804C160.591 226.87 160.252 226.936 159.903 227.003C157.323 227.497 154.834 227.875 152.201 227.847C151.697 227.843 151.697 227.843 151.182 227.839C150.932 227.836 150.683 227.832 150.426 227.829C150.426 227.533 150.426 227.238 150.426 226.934C153.117 226.28 155.801 225.671 158.529 225.191C160.317 224.865 162.048 224.392 163.792 223.884C164.763 223.659 165.582 223.589 166.575 223.655Z" fill="#ECECEC"/>
<path d="M136.071 218.288C136.268 218.386 136.465 218.485 136.669 218.586C136.06 219.699 135.429 220.45 134.463 221.269C132.515 222.968 130.71 224.8 128.893 226.636C128.597 226.538 128.301 226.439 127.996 226.338C129.179 224.736 130.324 223.401 131.884 222.164C132.05 221.936 132.217 221.709 132.389 221.474C132.583 221.225 132.583 221.225 132.781 220.971C133.077 220.971 133.373 220.971 133.678 220.971C133.771 220.722 133.771 220.722 133.865 220.468C134.441 219.503 135.185 218.979 136.071 218.288Z" fill="#161616"/>
<path d="M175.864 101.996C176.299 102.005 176.299 102.005 176.743 102.015C177.663 103.629 177.663 103.629 177.546 104.512C177.478 104.672 177.411 104.831 177.341 104.996C177.156 104.707 176.971 104.418 176.78 104.12C176.247 103.199 176.247 103.199 175.546 102.909C175.594 103.1 175.641 103.29 175.69 103.487C175.895 104.69 175.924 105.865 175.939 107.083C175.948 107.32 175.956 107.557 175.965 107.8C175.968 108.031 175.97 108.262 175.973 108.499C175.977 108.707 175.981 108.914 175.986 109.128C175.785 110.04 175.26 110.568 174.649 111.257C174.642 109.989 174.636 108.72 174.633 107.452C174.631 107.02 174.629 106.588 174.627 106.157C174.623 105.537 174.621 104.918 174.62 104.299C174.618 103.925 174.617 103.552 174.615 103.168C174.662 101.985 174.668 102.02 175.864 101.996Z" fill="#343434"/>
<path d="M173.154 115.729C173.505 116.777 173.374 117.102 173.042 118.132C172.96 118.394 172.877 118.656 172.792 118.925C172.556 119.604 172.556 119.604 172.257 120.201C172.06 120.201 171.862 120.201 171.659 120.201C171.659 120.496 171.659 120.791 171.659 121.095C172.48 121.27 172.48 121.27 173.453 121.095C174.15 120.47 174.701 119.765 175.248 119.008C175.547 119.902 175.547 119.902 175.266 120.555C175.162 120.733 175.057 120.911 174.949 121.095C174.751 121.095 174.554 121.095 174.35 121.095C174.153 121.489 173.956 121.882 173.752 122.288C173.062 122.288 172.371 122.288 171.659 122.288C171.233 121.613 171.045 121.237 171.136 120.434C171.41 119.418 171.823 118.523 172.276 117.573C172.522 117.054 172.522 117.054 172.772 116.524C172.898 116.261 173.024 115.999 173.154 115.729Z" fill="#4C4C4C"/>
<path d="M76.8581 164.922C77.6997 165.487 78.4635 166.074 79.2506 166.711C79.628 167.01 80.0058 167.308 80.3837 167.606C81.184 168.239 81.9837 168.873 82.7809 169.51C82.9504 169.646 83.12 169.781 83.2947 169.921C83.7364 170.288 83.7364 170.288 84.3346 170.885C83.4374 171.183 83.4374 171.183 82.8019 170.941C82.2411 170.586 82.2411 170.586 81.9421 169.99C81.7694 169.91 81.5967 169.83 81.4187 169.748C80.5282 169.279 79.963 168.614 79.2506 167.903C78.6187 167.426 77.9782 166.965 77.3289 166.512C77.1735 166.381 77.0182 166.249 76.8581 166.114C76.8581 165.918 76.8581 165.721 76.8581 165.518C76.562 165.42 76.266 165.321 75.9609 165.22C76.257 165.122 76.5531 165.023 76.8581 164.922Z" fill="#343434"/>
<path d="M142.95 101.418C143.25 102.312 143.25 102.312 143.049 102.838C142.942 103.027 142.836 103.217 142.726 103.412C142.205 104.386 141.807 105.356 141.433 106.398C140.841 107.863 140.087 109.257 139.362 110.66C139.164 110.267 138.967 109.873 138.764 109.468C139.06 109.025 139.06 109.025 139.362 108.573C139.559 108.573 139.757 108.573 139.96 108.573C139.901 108.402 139.842 108.23 139.781 108.054C139.413 105.996 141.583 103.368 142.651 101.716C142.75 101.618 142.849 101.519 142.95 101.418Z" fill="#2D2D2D"/>
<path d="M154.015 214.114C154.015 214.311 154.015 214.508 154.015 214.711C153.656 214.841 153.656 214.841 153.291 214.974C149.337 216.303 149.337 216.303 145.94 218.586C145.94 218.881 145.94 219.177 145.94 219.481C146.927 219.678 147.914 219.874 148.931 220.077C148.931 220.175 148.931 220.274 148.931 220.375C146.513 220.849 146.513 220.849 145.454 220.17C145.043 219.481 145.043 219.481 145.092 218.907C145.752 217.274 147.839 216.233 149.38 215.53C152.864 214.114 152.864 214.114 154.015 214.114Z" fill="#1F1F1F"/>
<path d="M154.911 209.344C154.911 209.639 154.911 209.934 154.911 210.238C154.136 210.496 153.359 210.733 152.575 210.965C151.735 211.215 150.902 211.471 150.07 211.747C149.418 211.964 148.755 212.151 148.089 212.325C147.775 212.424 147.46 212.522 147.136 212.623C147.037 212.82 146.939 213.017 146.837 213.22C146.442 213.023 146.047 212.826 145.641 212.623C147.423 211.688 149.213 210.965 151.117 210.313C151.384 210.219 151.651 210.124 151.926 210.027C153.899 209.344 153.899 209.344 154.911 209.344Z" fill="#3F3F3F"/>
<path d="M115.435 240.946C115.83 241.143 116.225 241.34 116.632 241.543C115.54 242.149 114.443 242.743 113.342 243.331C113.161 243.429 112.981 243.526 112.795 243.626C112.238 243.923 111.678 244.215 111.118 244.505C110.773 244.686 110.428 244.867 110.072 245.054C109.155 245.418 109.155 245.418 108.434 245.326C108.278 245.258 108.121 245.19 107.959 245.12C108.156 244.923 108.354 244.727 108.557 244.524C108.853 244.622 109.149 244.721 109.454 244.822C109.553 244.527 109.652 244.232 109.753 243.928C110.424 243.519 111.068 243.168 111.772 242.828C111.958 242.733 112.144 242.637 112.335 242.539C113.409 242.009 114.234 241.72 115.435 241.841C115.435 241.546 115.435 241.25 115.435 240.946Z" fill="#414141"/>
<path d="M23.6259 66.834C24.224 67.7284 24.224 67.7284 24.1493 68.5855C23.7358 70.3029 23.2768 71.395 21.8316 72.4986C20.9344 72.7042 20.059 72.7748 19.14 72.7967C19.14 73.0919 19.14 73.3871 19.14 73.6912C18.5793 73.8775 18.5793 73.8775 17.9438 73.9893C17.7464 73.7925 17.5491 73.5958 17.3457 73.393C17.9133 73.1101 18.4809 72.8273 19.0489 72.5452C19.5034 72.3179 19.9568 72.0881 20.4087 71.8557C20.6192 71.7481 20.8297 71.6405 21.0465 71.5297C21.2401 71.4297 21.4336 71.3298 21.633 71.2269C22.1306 71.0079 22.1306 71.0079 22.7287 71.0079C22.7658 70.6513 22.8028 70.2946 22.8409 69.9272C22.9749 68.8387 23.2385 67.864 23.6259 66.834Z" fill="#545454"/>
<path d="M55.3262 26.2871C57.1822 26.6235 58.9305 27.1621 60.7092 27.7778C60.9384 27.8557 61.1675 27.9335 61.4036 28.0138C63.0656 28.6003 63.0656 28.6003 63.4007 29.2685C61.4591 29.4368 60.0794 28.8409 58.3167 28.0759C57.3276 27.7472 56.3293 27.4646 55.3262 27.1815C55.3262 26.8864 55.3262 26.5912 55.3262 26.2871Z" fill="#393939"/>
<path d="M125.006 236.773C123.011 238.189 120.93 239.295 118.726 240.351C118.326 240.549 117.927 240.747 117.529 240.947C117.603 240.396 117.603 240.396 117.828 239.755C118.362 239.364 118.362 239.364 119.043 239.028C120.199 238.435 121.284 237.791 122.367 237.076C123.374 236.517 123.898 236.405 125.006 236.773Z" fill="#313131"/>
<path d="M177.939 104.996C177.956 106.139 177.967 107.282 177.976 108.425C177.981 108.746 177.986 109.067 177.991 109.398C178.002 111.224 177.881 112.79 177.341 114.537C176.575 113.392 176.804 113.181 177.042 111.853C177.082 110.723 177.07 109.593 177.06 108.462C177.059 108.157 177.058 107.852 177.056 107.538C177.053 106.79 177.048 106.042 177.042 105.294C177.64 104.996 177.64 104.996 177.939 104.996Z" fill="#0B0B0B"/>
<path d="M148.332 88.5986C148.628 88.5986 148.924 88.5986 149.229 88.5986C148.764 90.1073 148.284 91.4317 147.435 92.7726C147.131 93.4662 146.832 94.162 146.538 94.8595C146.243 95.458 145.945 96.055 145.64 96.6484C145.308 95.6538 145.312 95.2454 145.64 94.2633C146.257 93.8719 146.257 93.8719 146.837 93.667C146.769 93.4598 146.702 93.2527 146.632 93.0393C146.506 91.8838 146.868 91.3087 147.416 90.2943C147.585 89.9757 147.755 89.6571 147.929 89.3288C148.062 89.0879 148.195 88.8469 148.332 88.5986Z" fill="#424242"/>
<path d="M108.559 51.9277C109.939 52.5927 111.249 53.3345 112.558 54.1265C112.755 54.2447 112.951 54.3628 113.154 54.4845C114.521 55.3087 115.881 56.1444 117.231 56.9961C117.133 57.1929 117.034 57.3896 116.932 57.5924C116.636 57.494 116.34 57.3956 116.035 57.2942C116.035 57.0974 116.035 56.9007 116.035 56.6979C115.714 56.618 115.394 56.5381 115.063 56.4557C114.014 56.1245 113.59 55.8478 112.745 55.2073C111.892 54.745 111.029 54.3047 110.163 53.8656C109.456 53.4184 109.456 53.4184 109.157 52.524C108.959 52.524 108.762 52.524 108.559 52.524C108.559 52.3272 108.559 52.1305 108.559 51.9277Z" fill="#3F3F3F"/>
<path d="M22.7287 89.791C26.1614 92.2757 26.1614 92.2757 27.5137 93.6668C27.5137 93.8636 27.5137 94.0604 27.5137 94.2631C27.6879 94.3361 27.8622 94.4091 28.0417 94.4844C28.8185 94.9203 29.2601 95.4101 29.8314 96.0892C30.0149 96.3052 30.1984 96.5212 30.3874 96.7437C30.5247 96.9089 30.6619 97.0742 30.8033 97.2445C30.6059 97.4412 30.4085 97.638 30.2052 97.8407C30.0595 97.6705 29.9137 97.5002 29.7636 97.3248C27.8967 95.1963 25.8702 93.2903 23.7703 91.3936C23.3118 90.9696 22.8692 90.5326 22.4297 90.0892C22.5284 89.9908 22.6271 89.8924 22.7287 89.791Z" fill="#101010"/>
<path d="M122.613 146.735C122.909 146.735 123.206 146.735 123.511 146.735C123.152 147.955 122.672 148.983 122.019 150.073C121.711 150.62 121.468 151.168 121.23 151.748C120.819 152.698 120.819 152.698 120.221 153.294C120.015 152.754 120.015 152.754 119.922 152.102C120.214 151.797 120.514 151.5 120.819 151.207C120.863 150.985 120.906 150.762 120.951 150.532C121.136 149.631 121.46 148.947 121.884 148.133C122.021 147.87 122.157 147.606 122.297 147.335C122.401 147.137 122.506 146.939 122.613 146.735Z" fill="#3F3F3F"/>
<path d="M186.91 108.275C187.206 108.275 187.502 108.275 187.807 108.275C187.807 110.538 187.807 112.801 187.807 115.133C187.61 115.034 187.413 114.936 187.209 114.834C187.209 114.342 187.209 113.851 187.209 113.344C187.111 113.344 187.012 113.344 186.91 113.344C186.91 111.671 186.91 109.999 186.91 108.275Z" fill="#353535"/>
<path d="M7.47656 111.257C7.67394 111.257 7.87132 111.257 8.07468 111.257C8.27497 111.719 8.47432 112.182 8.67046 112.646C8.90103 113.18 9.14114 113.709 9.38539 114.237C9.59703 114.708 9.59703 114.708 9.81295 115.189C9.95058 115.488 10.0882 115.787 10.23 116.096C10.4671 116.921 10.4671 116.921 10.209 117.626C10.0968 117.787 9.98461 117.948 9.86902 118.114C8.84808 115.864 7.90045 113.708 7.47656 111.257Z" fill="#373737"/>
<path d="M186.612 116.623C186.809 116.623 187.007 116.623 187.21 116.623C187.05 117.799 186.794 118.94 186.5 120.089C186.429 120.363 186.359 120.638 186.287 120.92C186.006 121.714 185.657 122.243 185.116 122.884C184.733 121.723 185.003 121.075 185.466 119.953C185.717 119.301 185.891 118.662 186.051 117.983C186.313 116.921 186.313 116.921 186.612 116.623Z" fill="#373737"/>
<path d="M158.799 233.791C159.095 233.889 159.391 233.988 159.696 234.089C159.696 234.286 159.696 234.483 159.696 234.685C158.874 234.886 158.052 235.084 157.229 235.282C156.997 235.339 156.764 235.395 156.525 235.454C156.186 235.535 156.186 235.535 155.841 235.617C155.634 235.667 155.428 235.717 155.215 235.769C154.612 235.878 154.612 235.878 153.416 235.878C153.595 235.293 153.595 235.293 154.014 234.685C154.891 234.525 154.891 234.525 155.939 234.499C157.467 234.48 157.467 234.48 158.799 233.791Z" fill="#3E3E3E"/>
<path d="M113.043 168.201C113.366 169.16 113.335 169.639 112.913 170.554C112.818 170.765 112.722 170.976 112.624 171.194C112.522 171.412 112.419 171.629 112.314 171.853C112.213 172.075 112.112 172.298 112.007 172.527C111.757 173.074 111.503 173.619 111.249 174.164C110.898 173.711 110.898 173.711 110.65 172.971C110.885 172.158 111.138 171.45 111.473 170.679C111.556 170.474 111.639 170.269 111.725 170.057C112.359 168.542 112.359 168.542 113.043 168.201Z" fill="#333333"/>
<path d="M184.818 102.312C185.397 102.387 185.397 102.387 186.014 102.611C186.612 103.505 186.612 103.505 186.5 104.306C186.439 104.534 186.377 104.761 186.313 104.996C186.116 104.897 185.919 104.799 185.715 104.698C185.617 105.386 185.518 106.075 185.416 106.785C185.317 106.785 185.219 106.785 185.117 106.785C184.401 103.861 184.401 103.861 184.519 102.611C184.618 102.512 184.716 102.414 184.818 102.312Z" fill="#424242"/>
<path d="M21.8303 12.2744C22.0277 12.3728 22.2251 12.4712 22.4284 12.5726C22.4284 12.7693 22.4284 12.9661 22.4284 13.1688C22.2372 13.2057 22.046 13.2426 21.849 13.2806C21.6454 13.3421 21.4419 13.4036 21.2322 13.467C21.1335 13.6637 21.0348 13.8605 20.9331 14.0632C20.2883 14.3928 19.6322 14.7004 18.9706 14.9949C18.6124 15.1556 18.2543 15.3162 17.8853 15.4817C17.6081 15.6039 17.331 15.7262 17.0454 15.8521C16.848 15.6553 16.6506 15.4585 16.4473 15.2558C17.1433 14.8549 17.8414 14.4584 18.5407 14.0632C18.9616 13.8217 18.9616 13.8217 19.3911 13.5753C19.8306 13.328 19.8306 13.328 20.2789 13.0757C20.5584 12.9169 20.8379 12.7582 21.1259 12.5947C21.3583 12.489 21.5908 12.3833 21.8303 12.2744Z" fill="#373737"/>
<path d="M90.3164 175.654C90.8099 175.654 91.3033 175.654 91.8117 175.654C91.9104 175.851 92.0091 176.048 92.1108 176.251C92.6379 176.558 93.1755 176.847 93.7182 177.126C95.6388 178.114 95.6388 178.114 96.2976 178.934C96.2976 179.131 96.2976 179.327 96.2976 179.53C94.8684 179.046 93.7057 178.261 92.4659 177.424C92.2587 177.287 92.0515 177.15 91.838 177.009C91.3247 176.666 90.8197 176.31 90.3164 175.952C90.3164 175.854 90.3164 175.756 90.3164 175.654Z" fill="#343434"/>
<path d="M20.6348 93.0703C22.2433 94.4108 23.7499 95.8232 25.2328 97.3001C25.449 97.5121 25.6653 97.724 25.8881 97.9424C26.1963 98.2488 26.1963 98.2488 26.5108 98.5614C26.6964 98.7452 26.8819 98.929 27.0731 99.1183C27.5131 99.6293 27.5131 99.6293 27.8122 100.524C27.6148 100.524 27.4174 100.524 27.214 100.524C27.214 100.327 27.214 100.13 27.214 99.9275C27.0425 99.8572 26.8709 99.7868 26.6942 99.7144C25.8661 99.2453 25.3859 98.6908 24.7655 97.971C23.609 96.6513 22.3984 95.4184 21.1289 94.207C20.6348 93.6666 20.6348 93.6666 20.6348 93.0703Z" fill="#191919"/>
<path d="M12.2613 18.2373C12.4586 18.3357 12.656 18.4341 12.8594 18.5354C11.5476 20.3518 10.1392 21.9226 8.37351 23.3057C8.17613 23.2073 7.97875 23.1089 7.77539 23.0075C10.5344 19.5175 10.5344 19.5175 12.2613 18.2373Z" fill="#454545"/>
<path d="M81.6433 233.195C82.408 234.324 82.2519 235.405 82.1293 236.698C82.1123 236.906 82.0953 237.114 82.0779 237.328C82.0358 237.839 81.9895 238.35 81.9424 238.86C81.6463 238.86 81.3502 238.86 81.0452 238.86C80.9705 236.877 81.1231 235.112 81.6433 233.195Z" fill="#3F3F3F"/>
<path d="M136.071 218.288C136.269 218.386 136.466 218.485 136.669 218.586C135.96 220.001 134.976 220.977 133.679 221.866C132.8 222.127 132.8 222.127 132.184 222.164C132.381 221.77 132.578 221.377 132.782 220.971C133.078 220.971 133.374 220.971 133.679 220.971C133.741 220.805 133.802 220.639 133.866 220.468C134.441 219.503 135.186 218.979 136.071 218.288Z" fill="#454545"/>
<path d="M65.7933 54.3124C65.6946 54.5091 65.5959 54.7059 65.4943 54.9086C64.298 54.6105 64.298 54.6105 63.7747 54.4428C62.2507 54.1474 60.8797 54.2323 59.4009 54.6478C59.0432 54.7339 58.6855 54.8199 58.3169 54.9086C58.1195 54.7119 57.9221 54.5151 57.7188 54.3124C60.4975 53.2487 63.0017 53.1841 65.7933 54.3124Z" fill="#1A1A1A"/>
<path d="M69.9805 31.9521C71.2025 32.1706 72.2517 32.7531 73.3449 33.3124C73.5392 33.4106 73.7335 33.5088 73.9336 33.61C74.4108 33.8513 74.8872 34.0941 75.3635 34.3373C75.3635 34.4356 75.3635 34.534 75.3635 34.6354C74.1607 34.7128 73.4066 34.5066 72.3355 33.9646C72.0819 33.8401 71.8282 33.7155 71.5669 33.5872C70.8395 33.1202 70.4507 32.6691 69.9805 31.9521Z" fill="#252525"/>
<path d="M101.38 245.418C100.985 245.517 100.591 245.615 100.184 245.717C100.184 245.913 100.184 246.11 100.184 246.313C99.2956 246.165 99.2956 246.165 98.3895 246.015C98.3895 246.212 98.3895 246.408 98.3895 246.611C96.1541 247.28 96.1541 247.28 95.3589 246.914C95.1747 246.814 94.9905 246.714 94.8008 246.611C95.6721 246.353 96.5443 246.099 97.4175 245.847C97.6643 245.773 97.911 245.7 98.1652 245.624C98.4042 245.556 98.6432 245.488 98.8895 245.417C99.1087 245.353 99.328 245.289 99.5539 245.223C100.255 245.109 100.71 245.201 101.38 245.418Z" fill="#353535"/>
<path d="M84.6327 225.146C84.9318 226.04 84.9318 226.04 84.9318 226.636C84.6357 226.784 84.6357 226.784 84.3336 226.934C83.9932 227.995 83.7261 229.059 83.4552 230.139C83.1586 231.044 82.9797 231.433 82.2402 232.003C82.3227 229.948 83.1 226.673 84.6327 225.146Z" fill="#373737"/>
<path d="M96.5963 207.257C96.7972 207.777 96.7972 207.777 96.8953 208.449C96.5636 209.056 96.5636 209.056 96.0729 209.661C95.9141 209.861 95.7553 210.061 95.5916 210.267C95.1486 210.779 94.6913 211.259 94.2038 211.729C93.9077 211.631 93.6117 211.532 93.3066 211.431C93.6857 210.902 94.066 210.374 94.4468 209.847C94.6584 209.553 94.8701 209.259 95.0881 208.956C95.5634 208.33 96.0205 207.787 96.5963 207.257Z" fill="#414141"/>
<path d="M105.268 187.282C105.564 187.282 105.86 187.282 106.165 187.282C106.165 188.758 106.165 190.234 106.165 191.754C105.869 191.853 105.573 191.951 105.268 192.052C105.268 190.478 105.268 188.904 105.268 187.282Z" fill="#202020"/>
<path d="M108.258 188.475C108.357 188.77 108.456 189.065 108.557 189.369C108.755 189.369 108.952 189.369 109.155 189.369C109.221 191.158 109.008 192.706 108.557 194.437C107.935 193.506 107.888 193.382 107.966 192.347C107.982 192.121 107.997 191.895 108.013 191.663C108.032 191.428 108.051 191.194 108.071 190.953C108.088 190.715 108.105 190.477 108.123 190.233C108.165 189.646 108.211 189.06 108.258 188.475Z" fill="#3E3E3E"/>
<path d="M14.6543 129.145C15.215 129.2 15.215 129.2 15.8505 129.443C16.1683 130.095 16.1683 130.095 16.4486 130.933C16.6213 131.235 16.7941 131.536 16.972 131.846C17.3458 132.722 17.3458 132.722 17.1028 133.43C16.9856 133.59 16.8684 133.75 16.7477 133.915C15.8041 132.437 15.0014 130.875 14.6543 129.145Z" fill="#3C3C3C"/>
<path d="M29.0077 54.6104C29.2051 54.9055 29.4025 55.2007 29.6058 55.5048C29.4269 55.7446 29.2481 55.9844 29.0638 56.2315C28.3814 57.2327 28.0685 58.2619 27.7542 59.4237C27.6744 59.6062 27.5946 59.7888 27.5124 59.9768C27.2163 60.0752 26.9203 60.1736 26.6152 60.275C26.8001 58.9175 27.3532 57.805 27.9797 56.6041C28.1274 56.3156 28.1274 56.3156 28.2782 56.0213C28.5197 55.5501 28.7635 55.0801 29.0077 54.6104Z" fill="#303030"/>
<path d="M29.3077 65.3438C29.5051 65.4421 29.7024 65.5405 29.9058 65.6419C29.8935 65.8756 29.8811 66.1092 29.8684 66.35C29.8199 67.1806 29.8199 67.1806 30.5039 67.7289C31.2365 67.7356 31.2365 67.7356 32.0366 67.6171C32.3088 67.584 32.5809 67.5509 32.8613 67.5169C33.0703 67.4885 33.2792 67.46 33.4945 67.4307C33.4945 67.6275 33.4945 67.8243 33.4945 68.027C32.4731 68.6536 31.6934 68.7927 30.5039 68.6233C29.5583 67.906 29.0597 67.5059 28.8965 66.3127C29.0086 65.6419 29.0086 65.6419 29.3077 65.3438Z" fill="#222222"/>
<path d="M179.733 229.618C178.665 230.249 177.627 230.409 176.406 230.587C176.035 230.644 175.664 230.7 175.282 230.759C174.975 230.776 174.667 230.793 174.35 230.81C174.153 230.614 173.955 230.417 173.752 230.214C174.073 230.177 174.393 230.14 174.724 230.102C175.696 229.941 176.198 229.754 177.042 229.32C178.682 228.919 178.682 228.919 179.733 229.618Z" fill="#424242"/>
<path d="M117.53 157.767C117.826 157.767 118.122 157.767 118.427 157.767C118.052 158.731 117.655 159.685 117.249 160.636C117.154 160.861 117.059 161.087 116.961 161.319C116.626 161.954 116.269 162.359 115.735 162.835C115.436 161.941 115.436 161.941 115.829 161.139C115.995 160.912 116.162 160.684 116.333 160.45C116.531 160.45 116.728 160.45 116.932 160.45C116.919 160.173 116.907 159.896 116.894 159.611C116.932 158.661 116.932 158.661 117.53 157.767Z" fill="#404040"/>
<path d="M174.949 104.697C175.246 104.796 175.542 104.894 175.847 104.995C175.879 105.76 175.903 106.523 175.921 107.287C175.931 107.502 175.941 107.717 175.952 107.939C175.958 108.255 175.958 108.255 175.963 108.577C175.973 108.865 175.973 108.865 175.982 109.158C175.847 109.766 175.847 109.766 174.65 111.256C174.749 109.092 174.848 106.927 174.949 104.697Z" fill="#5D5D5D"/>
<path d="M49.9434 24.2002C51.8078 24.6741 53.5808 25.1769 55.3264 25.989C55.0303 26.1858 54.7343 26.3826 54.4292 26.5853C54.4292 26.3885 54.4292 26.1918 54.4292 25.989C54.1759 26.0738 54.1759 26.0738 53.9176 26.1602C53.0997 26.3119 52.636 26.1913 51.8499 25.9331C51.5017 25.8253 51.5017 25.8253 51.1466 25.7153C50.4087 25.3219 50.2391 24.9658 49.9434 24.2002Z" fill="#3E3E3E"/>
<path d="M10.7652 77.8655C10.3803 78.6329 10.0421 78.7001 9.26987 79.0581C8.79511 79.3167 8.32161 79.5776 7.84935 79.8407C7.61034 79.9737 7.37132 80.1066 7.12507 80.2437C6.85445 80.3947 6.85445 80.3947 6.57835 80.5488C6.47967 80.2536 6.38098 79.9585 6.2793 79.6544C6.70832 79.3612 7.13842 79.0695 7.56898 78.7786C7.80838 78.616 8.04778 78.4534 8.29443 78.286C9.27026 77.6794 9.65073 77.4952 10.7652 77.8655Z" fill="#3A3A3A"/>
<path d="M31.9994 46.8594C32.3359 47.3811 32.3359 47.3811 32.5975 48.0519C32.3732 48.5737 32.3732 48.5737 31.9994 49.2445C31.8846 49.652 31.7794 50.0623 31.6817 50.4743C31.4013 51.6296 31.4013 51.6296 31.1023 52.2259C30.8062 52.2259 30.5101 52.2259 30.2051 52.2259C30.7328 50.405 31.3103 48.626 31.9994 46.8594Z" fill="#3D3D3D"/>
<path d="M83.7365 236.772C83.9338 236.772 84.1312 236.772 84.3346 236.772C84.3346 238.15 84.3346 239.527 84.3346 240.946C84.0385 240.946 83.7424 240.946 83.4374 240.946C83.4294 240.307 83.4236 239.667 83.4187 239.027C83.4152 238.671 83.4118 238.315 83.4082 237.948C83.4374 237.071 83.4374 237.071 83.7365 236.772Z" fill="#444444"/>
<path d="M45.457 168.499C46.8846 168.636 47.6209 168.85 48.7467 169.692C49.839 169.908 49.839 169.908 50.8401 169.99C50.242 170.586 50.242 170.586 49.4756 170.716C48.0452 170.535 46.9342 169.911 45.7561 169.095C45.6574 168.899 45.5587 168.702 45.457 168.499Z" fill="#4C4C4C"/>
<path d="M70.8758 160.449C71.2309 161.064 71.2309 161.064 71.4739 161.642C71.2827 161.574 71.0915 161.507 70.8945 161.437C69.5674 161.302 68.5147 161.766 67.2871 162.238C67.3642 161.676 67.3642 161.676 67.5862 161.046C68.1072 160.723 68.1072 160.723 68.745 160.505C68.954 160.43 69.1629 160.354 69.3782 160.276C69.9786 160.151 69.9786 160.151 70.8758 160.449Z" fill="#343434"/>
<path d="M175.248 119.009C175.547 119.903 175.547 119.903 175.267 120.555C175.162 120.734 175.057 120.912 174.949 121.096C174.752 121.096 174.555 121.096 174.351 121.096C174.154 121.489 173.956 121.883 173.753 122.288C173.26 122.288 172.766 122.288 172.258 122.288C172.258 121.993 172.258 121.698 172.258 121.394C172.582 121.302 172.582 121.302 172.912 121.208C174.03 120.663 174.498 119.991 175.248 119.009Z" fill="#323232"/>
<path d="M154.614 216.798C154.614 217.093 154.614 217.388 154.614 217.692C154.415 217.75 154.216 217.808 154.012 217.867C152.36 218.351 152.36 218.351 150.744 218.941C150.128 219.183 150.128 219.183 149.23 219.183C149.23 218.986 149.23 218.789 149.23 218.587C150.015 218.287 150.8 217.989 151.586 217.692C151.809 217.607 152.032 217.522 152.262 217.434C153.948 216.798 153.948 216.798 154.614 216.798Z" fill="#252525"/>
<path d="M41.5684 165.518C41.8714 165.701 41.8714 165.701 42.1805 165.888C42.4473 166.049 42.714 166.209 42.9889 166.375C43.2526 166.534 43.5163 166.693 43.7879 166.857C44.4342 167.234 45.081 167.579 45.7552 167.903C45.6565 168.099 45.5578 168.296 45.4561 168.499C44.0124 168.078 42.8495 167.476 41.5684 166.71C41.5684 166.317 41.5684 165.923 41.5684 165.518Z" fill="#3E3E3E"/>
<path d="M61.0069 164.325C61.303 164.522 61.599 164.719 61.9041 164.921C61.2767 165.279 60.6474 165.633 60.0163 165.984C59.8384 166.086 59.6604 166.188 59.4771 166.293C59.0024 166.555 58.5098 166.784 58.0163 167.008C57.7202 166.91 57.4242 166.812 57.1191 166.71C57.5139 166.612 57.9087 166.514 58.3154 166.412C58.3154 166.117 58.3154 165.822 58.3154 165.518C58.7428 165.302 59.1733 165.092 59.6051 164.884C59.8445 164.767 60.0839 164.649 60.3305 164.528C60.5537 164.461 60.7769 164.394 61.0069 164.325Z" fill="#404040"/>
<path d="M8.37305 80.847C9.73972 80.7153 10.4527 81.096 11.5879 81.8346C11.8763 82.0179 12.1646 82.2013 12.4617 82.3901C13.158 82.934 13.158 82.934 13.457 83.8284C12.48 83.5037 11.7289 83.0825 10.915 82.4682C10.0795 81.8484 9.43187 81.5393 8.37305 81.4433C8.37305 81.2465 8.37305 81.0498 8.37305 80.847Z" fill="#292929"/>
<path d="M99.5858 141.369C99.7832 141.369 99.9806 141.369 100.184 141.369C100.158 141.848 100.125 142.326 100.09 142.804C100.073 143.07 100.056 143.337 100.038 143.611C99.8623 144.46 99.6736 144.729 98.9877 145.245C98.0345 145.599 98.0345 145.599 97.1934 145.841C97.1934 145.644 97.1934 145.448 97.1934 145.245C97.4771 145.159 97.7608 145.073 98.0532 144.984C99.1409 144.247 99.161 144.037 99.3989 142.804C99.4688 142.327 99.5335 141.849 99.5858 141.369Z" fill="#141414"/>
<path d="M106.764 246.313C105.919 246.736 105.075 247.158 104.222 247.562C103.997 247.67 103.771 247.779 103.539 247.891C102.784 248.131 102.416 248.066 101.68 247.804C102.074 247.705 102.469 247.607 102.876 247.506C102.876 247.309 102.876 247.112 102.876 246.909C104.221 246.239 105.292 246.263 106.764 246.313Z" fill="#454545"/>
<path d="M103.174 183.108C104.6 183.78 104.6 183.78 105.268 184.301C105.585 185.214 105.585 185.214 105.567 186.09C105.271 186.533 105.271 186.533 104.969 186.984C104.851 186.609 104.734 186.234 104.614 185.848C104.26 184.891 104.12 184.635 103.268 184.003C102.925 183.855 102.925 183.855 102.576 183.705C102.774 183.508 102.971 183.311 103.174 183.108Z" fill="#363636"/>
<path d="M133.381 123.183C133.68 124.077 133.68 124.077 133.468 124.644C133.304 124.945 133.304 124.945 133.138 125.251C133.031 125.45 132.924 125.65 132.814 125.855C132.705 126.056 132.596 126.256 132.483 126.462C132.283 126.859 132.083 127.256 131.885 127.655C131.511 127.189 131.511 127.189 131.287 126.462C131.606 125.696 132.024 125.075 132.483 124.375C132.681 124.375 132.878 124.375 133.081 124.375C133.18 123.982 133.279 123.588 133.381 123.183Z" fill="#2B2B2B"/>
<path d="M87.9233 224.251C88.2193 224.251 88.5154 224.251 88.8204 224.251C88.4119 225.307 87.9504 226.316 87.4373 227.326C87.3039 227.589 87.1705 227.852 87.0331 228.123C86.9321 228.321 86.8311 228.519 86.727 228.723C86.5296 228.428 86.3323 228.133 86.1289 227.829C86.2276 227.632 86.3263 227.435 86.428 227.232C86.6253 227.232 86.8227 227.232 87.0261 227.232C87.0076 227.017 86.9891 226.802 86.97 226.58C87.0377 225.568 87.305 225.05 87.9233 224.251Z" fill="#3E3E3E"/>
<path d="M164.781 207.854C166.064 207.854 167.347 207.854 168.669 207.854C168.57 208.149 168.472 208.444 168.37 208.748C167.284 208.748 166.199 208.748 165.08 208.748C164.982 208.453 164.883 208.158 164.781 207.854Z" fill="#535353"/>
<path d="M99.8846 202.188C100.082 202.287 100.279 202.385 100.483 202.487C100.108 203.825 99.665 204.764 98.6884 205.766C98.0506 205.956 98.0506 205.956 97.4922 206.064C97.6148 205.884 97.7374 205.705 97.8637 205.519C98.0248 205.281 98.186 205.043 98.352 204.797C98.5116 204.562 98.6712 204.327 98.8356 204.084C99.2322 203.466 99.5704 202.851 99.8846 202.188Z" fill="#3E3E3E"/>
<path d="M32.5977 158.064C33.3378 158.212 33.3378 158.212 34.0929 158.363C34.1916 158.658 34.2903 158.953 34.392 159.257C34.5894 159.355 34.7868 159.454 34.9901 159.555C35.1875 159.654 35.3849 159.752 35.5882 159.853C35.6869 160.148 35.7856 160.444 35.8873 160.748C35.6899 160.944 35.4925 161.141 35.2892 161.344C34.8397 160.854 34.3913 160.363 33.9434 159.872C33.6936 159.599 33.4438 159.325 33.1864 159.044C32.5977 158.363 32.5977 158.363 32.5977 158.064Z" fill="#2A2A2A"/>
<path d="M94.5022 146.735C93.4859 147.411 92.4568 147.746 91.306 148.114C91.0961 148.183 90.8862 148.251 90.6699 148.322C90.1534 148.49 89.6363 148.656 89.1191 148.822C89.1191 148.626 89.1191 148.429 89.1191 148.226C89.4922 148.032 89.8662 147.84 90.2406 147.648C90.4488 147.541 90.657 147.434 90.8714 147.323C91.4857 147.045 92.0517 146.883 92.7078 146.735C93.605 146.437 93.605 146.437 94.5022 146.735Z" fill="#1C1C1C"/>
<path d="M104.67 131.232C105.281 132.229 105.322 132.911 105.212 134.065C105.19 134.345 105.167 134.624 105.143 134.913C104.953 135.781 104.654 136.234 104.072 136.897C104.219 134.999 104.37 133.113 104.67 131.232Z" fill="#474747"/>
<path d="M45.8123 23.1195C46.0817 23.1526 46.3512 23.1856 46.6288 23.2197C46.9371 23.2623 46.9371 23.2623 47.2515 23.3058C46.2091 23.9987 45.49 24.0312 44.2609 24.2003C43.418 24.4911 43.418 24.4911 42.7656 24.7965C43.4398 23.2456 44.1583 22.9054 45.8123 23.1195Z" fill="#484848"/>
<path d="M40.3741 119.009C41.0712 119.867 41.5201 120.684 41.9254 121.711C42.0284 121.966 42.1313 122.222 42.2374 122.485C42.4675 123.183 42.4675 123.183 42.4675 124.077C42.2701 124.077 42.0727 124.077 41.8694 124.077C41.6168 123.513 41.3684 122.948 41.1217 122.381C40.9829 122.067 40.8442 121.752 40.7012 121.428C40.3892 120.542 40.3051 119.935 40.3741 119.009Z" fill="#313131"/>
<path d="M23.6261 66.834C24.2243 67.7284 24.2243 67.7284 24.1495 68.5855C23.7559 70.2204 23.7559 70.2204 23.3271 71.0079C22.6916 71.2502 22.6916 71.2502 22.1309 71.3061C22.3282 71.2077 22.5256 71.1093 22.729 71.0079C22.808 70.427 22.8848 69.8456 22.9428 69.2622C23.0565 68.4092 23.3239 67.6374 23.6261 66.834Z" fill="#555555"/>
<path d="M55.3262 26.2871C56.7725 26.5824 58.1601 26.8706 59.513 27.4797C58.9709 27.7964 58.9709 27.7964 58.3167 28.0759C58.0207 27.9776 57.7246 27.8792 57.4196 27.7778C56.7222 27.5775 56.0245 27.3785 55.3262 27.1815C55.3262 26.8864 55.3262 26.5912 55.3262 26.2871Z" fill="#404040"/>
<path d="M16.4476 18.2373C16.7437 18.4341 17.0397 18.6308 17.3448 18.8336C16.1605 19.7191 14.9762 20.6045 13.7561 21.5168C13.6574 21.1233 13.5587 20.7297 13.457 20.3243C14.3725 19.542 14.573 19.4299 15.8495 19.4299C15.8495 19.2331 15.8495 19.0363 15.8495 18.8336C16.0469 18.8336 16.2442 18.8336 16.4476 18.8336C16.4476 18.6368 16.4476 18.44 16.4476 18.2373Z" fill="#464646"/>
<path d="M115.436 240.946C115.831 241.143 116.226 241.34 116.633 241.543C113.53 243.199 113.53 243.199 111.848 243.331C112.485 242.632 113.051 242.18 113.941 241.841C114.763 241.803 114.763 241.803 115.436 241.841C115.436 241.546 115.436 241.25 115.436 240.946Z" fill="#383838"/>
<path d="M130.09 235.878C130.916 236.034 131.683 236.208 132.483 236.474C133.048 236.54 133.616 236.595 134.183 236.642C134.481 236.667 134.778 236.692 135.084 236.718C135.425 236.745 135.425 236.745 135.772 236.772C135.772 236.871 135.772 236.969 135.772 237.07C135 237.087 134.227 237.098 133.454 237.108C133.236 237.113 133.018 237.118 132.793 237.123C131.644 237.133 130.764 237.123 129.791 236.474C129.89 236.277 129.988 236.081 130.09 235.878Z" fill="#444444"/>
<path d="M153.117 220.972C153.117 221.168 153.117 221.365 153.117 221.568C151.538 222.06 149.959 222.552 148.332 223.059C148.431 222.763 148.529 222.468 148.631 222.164C149.49 221.816 149.49 221.816 150.556 221.512C150.907 221.409 151.259 221.307 151.62 221.201C152.519 220.972 152.519 220.972 153.117 220.972Z" fill="#1D1D1D"/>
<path d="M84.0349 155.381C82.5197 156.601 81.2332 157.311 79.25 157.17C80.0448 156.378 80.9077 156.106 81.9415 155.68C82.1636 155.557 82.3856 155.434 82.6144 155.307C83.1378 155.083 83.1378 155.083 84.0349 155.381Z" fill="#2A2A2A"/>
<path d="M17.3452 73.9899C16.3812 74.8137 15.5425 75.3424 14.3547 75.7787C13.9106 76.0739 13.9106 76.0739 13.4575 76.375C13.2601 76.1782 13.0627 75.9815 12.8594 75.7787C13.4365 75.421 14.0165 75.0678 14.5976 74.7166C15.0816 74.4209 15.0816 74.4209 15.5754 74.1192C16.4481 73.6918 16.4481 73.6918 17.3452 73.9899Z" fill="#404040"/>
<path d="M42.168 60.5732C41.2814 61.1624 40.4371 61.5567 39.4578 61.9707C39.1397 62.1071 38.8217 62.2436 38.494 62.3841C38.2261 62.4752 37.9581 62.5663 37.6821 62.6601C37.4847 62.5618 37.2873 62.4634 37.084 62.362C37.084 62.1652 37.084 61.9685 37.084 61.7657C40.5296 60.3966 40.5296 60.3966 42.168 60.5732Z" fill="#242424"/>
<path d="M27.2152 11.0818C27.4126 11.2785 27.6099 11.4753 27.8133 11.678C27.7012 12.3116 27.7012 12.3116 27.5142 12.8706C27.3169 12.6738 27.1195 12.477 26.9161 12.2743C25.994 12.2246 25.994 12.2246 25.1218 12.2743C25.1218 12.0775 25.1218 11.8808 25.1218 11.678C24.8257 11.5796 24.5296 11.4813 24.2246 11.3799C25.2372 11.0693 26.1586 11.0131 27.2152 11.0818Z" fill="#444444"/>
<path d="M81.0449 168.499C82.2544 169.03 83.2761 169.809 84.3346 170.586C84.0385 170.783 83.7424 170.98 83.4374 171.182C82.2785 170.661 82.2785 170.661 81.9421 169.99C81.646 169.793 81.35 169.596 81.0449 169.393C81.0449 169.098 81.0449 168.803 81.0449 168.499Z" fill="#272727"/>
<path d="M37.9807 114.536C38.9989 115.696 39.8474 116.955 40.3732 118.412C40.2745 118.609 40.1758 118.805 40.0741 119.008C39.2743 118.298 38.8325 117.556 38.3545 116.604C38.2204 116.343 38.0862 116.081 37.948 115.811C37.8601 115.587 37.7722 115.363 37.6816 115.132C37.7803 114.936 37.879 114.739 37.9807 114.536Z" fill="#262626"/>
<path d="M82.2402 243.928C82.3389 244.125 82.4376 244.321 82.5393 244.524C82.8354 244.622 83.1314 244.721 83.4365 244.822C83.4365 245.117 83.4365 245.412 83.4365 245.717C83.6277 245.79 83.8189 245.864 84.0159 245.94C84.6327 246.313 84.6327 246.313 84.857 246.946C84.894 247.223 84.894 247.223 84.9318 247.505C83.6125 247.067 82.8828 246.001 82.2402 244.822C82.2402 244.527 82.2402 244.232 82.2402 243.928Z" fill="#3E3E3E"/>
<path d="M107.661 180.723C107.957 180.723 108.253 180.723 108.558 180.723C108.361 181.805 108.163 182.887 107.96 184.002C107.565 183.904 107.17 183.805 106.764 183.704C107.06 182.72 107.356 181.736 107.661 180.723Z" fill="#353535"/>
<path d="M176.443 131.53C176.758 131.586 177.073 131.641 177.397 131.698C178.409 131.814 179.064 131.793 180.032 131.53C179.378 132.294 179.378 132.294 178.537 133.021C177.733 133.04 177.733 133.04 177.041 132.723C176.649 132.108 176.649 132.108 176.443 131.53Z" fill="#4C4C4C"/>
<path d="M183.621 125.865C183.72 126.062 183.818 126.259 183.92 126.462C183.654 127.086 183.654 127.086 183.247 127.803C183.051 128.158 183.051 128.158 182.85 128.521C182.425 129.145 182.425 129.145 181.528 129.741C181.429 129.544 181.33 129.347 181.229 129.145C181.461 128.63 181.461 128.63 181.808 128.064C182.011 127.732 182.215 127.4 182.425 127.058C182.721 127.058 183.017 127.058 183.322 127.058C183.421 126.664 183.519 126.271 183.621 125.865Z" fill="#404040"/>
<path d="M177.342 110.064C177.54 110.064 177.737 110.064 177.94 110.064C178.008 111.68 177.781 112.979 177.342 114.537C176.744 113.642 176.744 113.642 176.856 112.785C176.918 112.478 176.98 112.17 177.043 111.853C177.043 111.577 177.043 111.3 177.043 111.015C177.043 110.363 177.043 110.363 177.342 110.064Z" fill="#555555"/>
<path d="M127.286 235.114C127.653 235.16 127.653 235.16 128.027 235.206C128.308 235.244 128.308 235.244 128.595 235.282C127.741 235.849 127.273 236.016 126.296 236.214C126.054 236.264 125.812 236.314 125.563 236.365C125.379 236.401 125.195 236.437 125.006 236.475C125.118 235.897 125.118 235.897 125.305 235.282C126.059 234.906 126.458 235.008 127.286 235.114Z" fill="#323232"/>
<path d="M177.341 217.99C177.841 218.873 178.037 219.591 178.126 220.599C178.148 220.837 178.171 221.075 178.194 221.321C178.216 221.591 178.216 221.591 178.238 221.866C177.942 221.768 177.646 221.669 177.341 221.568C176.957 219.012 176.957 219.012 177.341 217.99Z" fill="#3A3A3A"/>
<path d="M63.9979 162.835C64.5901 162.835 65.1822 162.835 65.7923 162.835C64.6244 163.893 63.7056 164.271 62.2036 164.624C62.0062 164.427 61.8088 164.23 61.6055 164.028C62.6417 163.88 62.6417 163.88 63.6989 163.729C63.7976 163.434 63.8963 163.139 63.9979 162.835Z" fill="#3F3F3F"/>
<path d="M131.287 66.834C131.725 67.0611 132.16 67.2915 132.595 67.5234C132.838 67.6514 133.081 67.7794 133.331 67.9112C133.979 68.3247 133.979 68.3247 134.577 69.2191C134.281 69.3667 134.281 69.3667 133.979 69.5172C133.88 69.3205 133.781 69.1237 133.68 68.921C133.384 68.921 133.087 68.921 132.782 68.921C131.979 68.3806 131.979 68.3806 131.287 67.7284C131.287 67.4332 131.287 67.1381 131.287 66.834Z" fill="#363636"/>
<path d="M59.2142 58.1885C59.2142 58.3852 59.2142 58.582 59.2142 58.7848C58.7425 58.9938 58.2685 59.1978 57.7936 59.3997C57.3981 59.5709 57.3981 59.5709 56.9946 59.7455C56.1779 59.991 55.8142 59.9706 55.0273 59.6792C57.9029 58.1885 57.9029 58.1885 59.2142 58.1885Z" fill="#242424"/>
<path d="M69.0823 55.8027C70.4592 56.1949 71.5295 56.7246 72.671 57.5916C72.671 57.7883 72.671 57.9851 72.671 58.1878C71.3258 57.685 70.0605 57.0499 68.7832 56.399C68.8819 56.2022 68.9806 56.0055 69.0823 55.8027Z" fill="#272727"/>
<path d="M90.0157 216.201C90.1144 216.398 90.2131 216.595 90.3148 216.797C90.0344 217.431 90.0344 217.431 89.7167 217.99C89.5193 217.99 89.3219 217.99 89.1186 217.99C88.9212 218.679 88.7238 219.367 88.5204 220.077C88.3231 220.077 88.1257 220.077 87.9223 220.077C87.9223 220.274 87.9223 220.471 87.9223 220.673C87.725 220.575 87.5276 220.476 87.3242 220.375C87.9164 219.293 88.5085 218.211 89.1186 217.096C89.3159 217.096 89.5133 217.096 89.7167 217.096C89.8154 216.8 89.9141 216.505 90.0157 216.201Z" fill="#525252"/>
<path d="M154.911 209.344C154.911 209.639 154.911 209.934 154.911 210.238C154.615 210.337 154.319 210.435 154.014 210.536C153.662 210.693 153.662 210.693 153.304 210.853C152.487 211.144 151.883 211.182 151.023 211.133C151.921 210.536 151.921 210.536 152.519 210.536C152.519 210.34 152.519 210.143 152.519 209.94C153.388 209.565 153.953 209.344 154.911 209.344Z" fill="#343434"/>
<path d="M84.9319 171.778C86.1265 171.962 86.9489 172.585 87.9224 173.269C87.7251 173.466 87.5277 173.663 87.3243 173.865C86.4361 173.373 85.5479 172.881 84.6328 172.375C84.7315 172.178 84.8302 171.981 84.9319 171.778Z" fill="#3D3D3D"/>
<path d="M136.969 113.344C137.265 113.344 137.561 113.344 137.866 113.344C137.732 113.779 137.594 114.214 137.455 114.648C137.379 114.89 137.303 115.132 137.224 115.382C136.969 116.027 136.969 116.027 136.371 116.623C136.086 115.976 136.029 115.561 136.252 114.887C136.478 114.367 136.723 113.855 136.969 113.344Z" fill="#343434"/>
<path d="M136.67 70.71C138.108 71.4692 139.159 72.1978 140.259 73.3932C139.604 73.505 139.604 73.505 138.763 73.3932C137.96 72.5174 137.96 72.5174 137.268 71.6044C137.071 71.506 136.873 71.4076 136.67 71.3062C136.67 71.1095 136.67 70.9127 136.67 70.71Z" fill="#424242"/>
<path d="M89.7168 41.4922C91.005 41.9592 92.1277 42.5903 93.3055 43.281C93.3055 43.3794 93.3055 43.4778 93.3055 43.5792C91.9094 43.79 91.2023 43.258 90.1222 42.4728C89.9884 42.346 89.8546 42.2191 89.7168 42.0885C89.7168 41.8917 89.7168 41.6949 89.7168 41.4922Z" fill="#373737"/>
<path d="M110.054 240.648C110.152 240.845 110.251 241.042 110.353 241.245C110.174 241.325 109.995 241.405 109.811 241.487C109.147 241.803 109.147 241.803 108.708 242.307C108.167 242.824 107.806 242.962 107.063 243.034C106.866 242.837 106.668 242.64 106.465 242.437C107.649 241.847 108.833 241.257 110.054 240.648Z" fill="#5C5C5C"/>
<path d="M119.024 153.891C119.32 153.891 119.616 153.891 119.921 153.891C119.722 155.199 119.267 156.27 118.725 157.468C118.626 157.468 118.528 157.468 118.426 157.468C118.373 156.112 118.427 155.119 119.024 153.891Z" fill="#3D3D3D"/>
<path d="M13.1582 125.865C14.3544 126.163 14.3544 126.163 14.8965 127.021C15.2516 127.952 15.2516 127.952 14.9525 128.847C14.7552 128.847 14.5578 128.847 14.3544 128.847C13.9597 127.863 13.5649 126.879 13.1582 125.865Z" fill="#3A3A3A"/>
<path d="M174.35 111.555C174.646 111.555 174.942 111.555 175.247 111.555C175.148 112.44 175.05 113.326 174.948 114.238C174.652 114.238 174.356 114.238 174.051 114.238C174.149 113.352 174.248 112.467 174.35 111.555Z" fill="#313131"/>
<path d="M77.4551 35.5293C77.886 35.6563 78.3157 35.7876 78.7448 35.9206C78.9842 35.9932 79.2236 36.0659 79.4702 36.1407C80.1764 36.4362 80.547 36.7459 81.0438 37.3181C80.3529 37.2197 79.6621 37.1214 78.9504 37.02C78.9504 36.8232 78.9504 36.6264 78.9504 36.4237C78.6543 36.5221 78.3582 36.6205 78.0532 36.7218C77.8558 36.6235 77.6584 36.5251 77.4551 36.4237C77.4551 36.1286 77.4551 35.8334 77.4551 35.5293Z" fill="#4F4F4F"/>
<path d="M13.4582 17.6416C13.6556 17.6416 13.8529 17.6416 14.0563 17.6416C13.6104 18.7731 12.9327 19.3143 11.9629 20.0267C11.9629 19.1323 11.9629 19.1323 12.3741 18.6292C12.8601 18.2379 12.8601 18.2379 13.4582 18.2379C13.4582 18.0411 13.4582 17.8443 13.4582 17.6416Z" fill="#070707"/>
<path d="M149.23 235.58C149.921 235.678 150.612 235.777 151.323 235.878C150.438 236.376 149.717 236.572 148.707 236.661C148.468 236.683 148.229 236.705 147.982 236.728C147.802 236.743 147.621 236.758 147.436 236.773C147.436 236.477 147.436 236.182 147.436 235.878C148.324 236.026 148.324 236.026 149.23 236.176C149.23 235.98 149.23 235.783 149.23 235.58Z" fill="#4A4A4A"/>
<path d="M157.005 227.829C156.737 227.893 156.737 227.893 156.463 227.959C155.94 228.093 155.424 228.255 154.911 228.425C154.194 228.399 153.477 228.353 152.762 228.295C152.381 228.264 152.001 228.234 151.609 228.203C151.317 228.178 151.025 228.153 150.725 228.127C150.725 228.028 150.725 227.93 150.725 227.829C152.883 227.592 154.854 227.507 157.005 227.829Z" fill="#323232"/>
<path d="M131.885 222.164C131.984 222.361 132.082 222.558 132.184 222.76C131.888 222.908 131.888 222.908 131.586 223.058C131.281 223.552 130.982 224.049 130.689 224.549C130.491 224.746 130.294 224.943 130.091 225.145C129.794 225.047 129.498 224.949 129.193 224.847C129.529 224.455 129.865 224.064 130.203 223.673C130.39 223.455 130.577 223.238 130.77 223.013C131.287 222.462 131.287 222.462 131.885 222.164Z" fill="#434343"/>
<path d="M86.7275 220.972C87.0235 221.07 87.3196 221.168 87.6247 221.27C87.2508 222.295 87.2508 222.295 86.7275 223.357C86.3327 223.455 85.938 223.554 85.5312 223.655C85.926 222.769 86.3208 221.884 86.7275 220.972Z" fill="#3A3A3A"/>
<path d="M145.342 218.288C145.54 218.386 145.737 218.485 145.941 218.586C145.941 218.881 145.941 219.177 145.941 219.481C146.927 219.677 147.914 219.874 148.931 220.077C148.931 220.175 148.931 220.274 148.931 220.375C146.514 220.849 146.514 220.849 145.455 220.17C145.043 219.481 145.043 219.481 145.118 218.81C145.192 218.638 145.266 218.465 145.342 218.288Z" fill="#141414"/>
<path d="M36.4853 37.3184C36.7814 37.4167 37.0774 37.5151 37.3825 37.6165C36.9877 38.4036 36.593 39.1907 36.1862 40.0016C35.8902 39.9032 35.5941 39.8048 35.2891 39.7035C35.6838 38.9164 36.0786 38.1293 36.4853 37.3184Z" fill="#292929"/>
<path d="M167.472 217.394C167.472 217.492 167.472 217.59 167.472 217.692C165.229 218.139 165.229 218.139 162.986 218.586C162.986 218.389 162.986 218.193 162.986 217.99C164.44 217.217 165.873 217.338 167.472 217.394Z" fill="#282828"/>
<path d="M104.97 192.351C105.282 193.455 105.275 194.209 104.97 195.332C104.353 196.04 104.353 196.04 103.773 196.525C103.962 195.018 104.412 193.753 104.97 192.351Z" fill="#545454"/>
<path d="M22.7287 89.791C23.1164 90.0687 23.5023 90.3486 23.8876 90.6295C24.1027 90.7852 24.3178 90.9408 24.5394 91.1012C25.1212 91.5798 25.1212 91.5798 25.7193 92.4743C24.5892 92.4743 24.3852 92.177 23.5698 91.4308C23.3559 91.2371 23.1419 91.0434 22.9215 90.8438C22.7592 90.6932 22.5969 90.5425 22.4297 90.3873C22.5284 90.1905 22.6271 89.9937 22.7287 89.791Z" fill="#252525"/>
<path d="M89.717 80.8467C91.5114 82.9933 91.5114 82.9933 91.5114 84.4243C91.314 84.4243 91.1166 84.4243 90.9133 84.4243C90.6549 83.9414 90.4001 83.4565 90.1469 82.9709C89.9335 82.5662 89.9335 82.5662 89.7159 82.1534C89.6176 81.9189 89.5193 81.6845 89.418 81.443C89.5167 81.2462 89.6153 81.0494 89.717 80.8467Z" fill="#2E2E2E"/>
<path d="M25.1214 11.6786C25.1214 11.8754 25.1214 12.0722 25.1214 12.2749C23.2416 12.999 23.2416 12.999 22.1309 12.5731C22.9397 11.4347 23.8118 11.6047 25.1214 11.6786Z" fill="#222222"/>
<path d="M15.8497 3.62891C15.8497 3.92406 15.8497 4.21922 15.8497 4.52332C14.9615 4.91686 14.0733 5.3104 13.1582 5.71587C13.1582 5.42072 13.1582 5.12556 13.1582 4.82146C14.6962 3.62891 14.6962 3.62891 15.8497 3.62891Z" fill="#393939"/>
<path d="M105.867 198.313C106.163 198.313 106.459 198.313 106.764 198.313C106.438 199.439 106.193 200.243 105.269 200.997C104.97 200.102 104.97 200.102 105.4 199.152C105.554 198.875 105.708 198.599 105.867 198.313Z" fill="#3F3F3F"/>
<path d="M186.611 116.623C186.808 116.623 187.006 116.623 187.209 116.623C187.066 117.881 186.86 118.649 186.013 119.604C185.597 118.359 186.066 117.775 186.611 116.623Z" fill="#2C2C2C"/>
<path d="M142.95 101.418C143.249 102.312 143.249 102.312 143.017 102.921C142.902 103.132 142.788 103.343 142.67 103.561C142.556 103.774 142.443 103.987 142.325 104.207C142.191 104.45 142.191 104.45 142.053 104.697C141.856 104.304 141.658 103.91 141.455 103.505C141.949 102.816 142.442 102.128 142.95 101.418Z" fill="#474747"/>
<path d="M82.2402 65.0449C83.3166 65.2105 83.7353 65.5663 84.4084 66.4052C84.642 66.6917 84.642 66.6917 84.8804 66.984C84.996 67.1312 85.1117 67.2784 85.2308 67.43C84.3336 67.43 84.3336 67.43 83.7881 66.984C83.6042 66.793 83.4203 66.602 83.2309 66.4052C83.0447 66.2149 82.8585 66.0247 82.6666 65.8287C82.2402 65.3431 82.2402 65.3431 82.2402 65.0449Z" fill="#272727"/>
<path d="M24.821 63.5547C24.9197 63.5547 25.0184 63.5547 25.1201 63.5547C25.0214 64.5385 24.9227 65.5224 24.821 66.5361C24.5249 66.6345 24.2289 66.7328 23.9238 66.8342C24.0638 65.6249 24.1869 64.6083 24.821 63.5547Z" fill="#404040"/>
<path d="M12.56 21.2188C12.856 21.4155 13.1521 21.6123 13.4571 21.815C13.1148 22.0825 13.1148 22.0825 12.7656 22.3554C12.1567 22.8494 11.6036 23.3364 11.0647 23.902C10.966 23.6068 10.8673 23.3117 10.7656 23.0076C11.3578 22.4173 11.9499 21.827 12.56 21.2188Z" fill="#303030"/>
<path d="M124.109 236.475C124.405 236.573 124.701 236.671 125.006 236.773C123.526 237.658 123.526 237.658 122.016 238.562C122.016 238.168 122.016 237.774 122.016 237.369C122.25 237.277 122.484 237.185 122.726 237.09C123.488 236.794 123.488 236.794 124.109 236.475Z" fill="#444444"/>
<path d="M126.8 227.829C127.096 227.829 127.392 227.829 127.697 227.829C127.697 228.026 127.697 228.223 127.697 228.425C127.401 228.425 127.105 228.425 126.8 228.425C126.701 229.016 126.602 229.606 126.501 230.214C126.205 230.214 125.909 230.214 125.604 230.214C125.782 229.218 126.107 228.573 126.8 227.829Z" fill="#3B3B3B"/>
<path d="M95.6986 213.22C95.9947 213.318 96.2908 213.416 96.5958 213.518C95.905 214.305 95.2142 215.092 94.5024 215.903C94.305 215.805 94.1077 215.706 93.9043 215.605C94.1017 215.211 94.2991 214.818 94.5024 214.412C94.7985 214.412 95.0945 214.412 95.3996 214.412C95.4983 214.019 95.597 213.625 95.6986 213.22Z" fill="#4B4B4B"/>
<path d="M173.453 208.748C174.309 209.13 174.982 209.48 175.547 210.239C175.603 211.04 175.603 211.04 175.547 211.729C174.873 210.928 174.386 210.344 174.051 209.344C173.854 209.344 173.656 209.344 173.453 209.344C173.453 209.148 173.453 208.951 173.453 208.748Z" fill="#444444"/>
<path d="M128.894 132.126C129.19 132.126 129.486 132.126 129.791 132.126C129.707 132.518 129.619 132.909 129.529 133.3C129.48 133.518 129.432 133.736 129.382 133.96C129.193 134.511 129.193 134.511 128.595 134.809C128.219 133.686 128.484 133.208 128.894 132.126Z" fill="#383838"/>
<path d="M93.9043 88.8965C94.966 90.0607 95.3452 90.9767 95.6986 92.4741C94.8015 92.176 94.8015 92.176 94.2968 91.1884C93.9043 90.089 93.9043 90.089 93.9043 88.8965Z" fill="#2A2A2A"/>
<path d="M93.6055 80.25C94.7002 80.6138 94.7788 80.884 95.3064 81.8711C95.5024 82.2303 95.5024 82.2303 95.7024 82.5967C95.9979 83.2314 95.9979 83.2314 95.9979 83.8277C95.8006 83.8277 95.6032 83.8277 95.3998 83.8277C94.8077 82.647 94.2155 81.4664 93.6055 80.25Z" fill="#1B1B1B"/>
<path d="M82.2402 70.1133C82.5788 70.384 82.9147 70.6579 83.2496 70.9332C83.4369 71.0854 83.6243 71.2375 83.8173 71.3943C84.3585 71.9266 84.633 72.4028 84.9318 73.0947C84.6357 73.0947 84.3396 73.0947 84.0346 73.0947C83.5545 72.5939 83.5545 72.5939 83.0813 71.9394C82.8437 71.6177 82.8437 71.6177 82.6012 71.2895C82.2402 70.7096 82.2402 70.7096 82.2402 70.1133Z" fill="#242424"/>
<path d="M42.4658 24.7969C42.5645 24.7969 42.6631 24.7969 42.7648 24.7969C42.6661 25.6823 42.5674 26.5678 42.4658 27.4801C42.2684 27.4801 42.071 27.4801 41.8676 27.4801C41.8676 27.6769 41.8676 27.8737 41.8676 28.0764C41.6703 28.0764 41.4729 28.0764 41.2695 28.0764C41.4123 27.6414 41.5557 27.2067 41.6994 26.772C41.7792 26.5299 41.859 26.2878 41.9412 26.0383C42.1667 25.3932 42.1667 25.3932 42.4658 24.7969Z" fill="#3C3C3C"/>
<path d="M21.5318 16.7469C19.9035 17.4848 19.9035 17.4848 18.2422 18.2376C18.3409 17.8441 18.4396 17.4505 18.5412 17.045C19.7498 16.4828 20.2125 16.4181 21.5318 16.7469Z" fill="#535353"/>
<path d="M21.8321 12.2744C22.0295 12.3728 22.2269 12.4712 22.4303 12.5726C22.4303 12.7693 22.4303 12.9661 22.4303 13.1688C22.239 13.2057 22.0478 13.2426 21.8508 13.2806C21.6473 13.3421 21.4437 13.4036 21.234 13.467C21.1353 13.6637 21.0367 13.8605 20.935 14.0632C20.3428 14.0632 19.7507 14.0632 19.1406 14.0632C20.8441 12.648 20.8441 12.648 21.8321 12.2744Z" fill="#484848"/>
<path d="M13.1579 6.9082C13.5526 7.10497 13.9474 7.30175 14.3541 7.50448C12.8738 8.38995 12.8738 8.38995 11.3635 9.29331C11.2648 9.09654 11.1661 8.89976 11.0645 8.69703C11.4592 8.59865 11.854 8.50026 12.2607 8.39889C12.2607 8.10374 12.2607 7.80858 12.2607 7.50448C12.5568 7.30771 12.8528 7.11094 13.1579 6.9082Z" fill="#4B4B4B"/>
<path d="M166.875 232.599C166.974 232.796 167.072 232.993 167.174 233.196C166.187 233.294 165.2 233.392 164.184 233.494C164.184 233.199 164.184 232.903 164.184 232.599C165.232 232.251 165.811 232.346 166.875 232.599Z" fill="#454545"/>
<path d="M79.2505 167.009C80.2292 167.448 80.6621 167.732 81.1383 168.704C81.2061 168.932 81.274 169.159 81.3439 169.394C80.7457 169.394 80.7457 169.394 79.9981 168.686C79.7514 168.428 79.5047 168.169 79.2505 167.903C79.0531 167.706 78.8557 167.51 78.6523 167.307C78.8497 167.209 79.0471 167.11 79.2505 167.009Z" fill="#3E3E3E"/>
<path d="M114.241 164.623C114.537 164.623 114.833 164.623 115.138 164.623C114.842 165.509 114.546 166.394 114.241 167.306C113.945 167.11 113.649 166.913 113.344 166.71C113.64 166.021 113.936 165.333 114.241 164.623Z" fill="#3C3C3C"/>
<path d="M49.9423 152.698C50.041 152.698 50.1397 152.698 50.2414 152.698C50.4965 153.794 50.5727 154.799 50.5591 155.922C50.5564 156.213 50.5537 156.504 50.551 156.803C50.5475 157.023 50.544 157.242 50.5404 157.468C50.4418 157.468 50.3431 157.468 50.2414 157.468C50.2233 157.278 50.2051 157.088 50.1865 156.892C50.1614 156.646 50.1364 156.399 50.1105 156.145C50.0863 155.9 50.062 155.654 50.037 155.401C50.0053 154.789 50.0053 154.789 49.6433 154.487C49.6059 153.742 49.6059 153.742 49.6433 152.996C49.742 152.898 49.8406 152.8 49.9423 152.698Z" fill="#4F4F4F"/>
<path d="M46.9514 123.48C47.8933 124.501 48.0166 125.401 48.1476 126.76C47.8516 126.908 47.8516 126.908 47.5495 127.058C47.1054 125.435 47.1054 125.435 46.6523 123.779C46.751 123.68 46.8497 123.582 46.9514 123.48Z" fill="#232323"/>
<path d="M182.725 119.604C183.021 119.801 183.317 119.998 183.622 120.201C183.326 120.889 183.03 121.578 182.725 122.288C182.528 122.189 182.33 122.091 182.127 121.99C182.324 121.203 182.522 120.415 182.725 119.604Z" fill="#353535"/>
<path d="M144.146 76.375C144.936 76.9653 145.726 77.5556 146.539 78.1638C146.44 78.3606 146.342 78.5574 146.24 78.7601C145.236 78.3461 144.723 77.8905 144.146 76.9713C144.146 76.7745 144.146 76.5777 144.146 76.375Z" fill="#464646"/>
<path d="M63.4004 29.2686C64.7633 29.3992 65.6662 29.5221 66.69 30.4611C66.0545 30.6847 66.0545 30.6847 65.1947 30.7592C64.2041 30.2002 64.2041 30.2002 63.4004 29.5667C63.4004 29.4683 63.4004 29.3699 63.4004 29.2686Z" fill="#3C3C3C"/>
<path d="M26.317 14.3615C24.4628 15.5939 24.4628 15.5939 23.5507 15.4423C23.378 15.3808 23.2053 15.3193 23.0273 15.256C23.2247 15.256 23.4221 15.256 23.6255 15.256C23.6255 15.0592 23.6255 14.8624 23.6255 14.6597C24.6275 14.0307 25.1868 14.0486 26.317 14.3615Z" fill="#3F3F3F"/>
<path d="M101.38 245.418C100.985 245.517 100.59 245.615 100.183 245.717C100.183 245.913 100.183 246.11 100.183 246.313C99.394 246.214 98.6045 246.116 97.791 246.015C99.0178 245.199 99.9633 244.948 101.38 245.418Z" fill="#404040"/>
<path d="M123.213 232.599C123.311 232.992 123.41 233.386 123.512 233.791C123.271 233.828 123.03 233.865 122.783 233.903C122.403 233.995 122.403 233.995 122.016 234.089C121.918 234.286 121.819 234.483 121.717 234.686C121.52 234.489 121.322 234.292 121.119 234.089C121.81 233.597 122.501 233.105 123.213 232.599Z" fill="#4C4C4C"/>
<path d="M136.071 218.288C136.269 218.386 136.466 218.485 136.67 218.586C136.107 219.651 135.721 220.24 134.576 220.673C134.931 219.667 135.257 218.99 136.071 218.288Z" fill="#353535"/>
<path d="M149.229 211.729C148.72 211.932 148.72 211.932 148.201 212.139C147.122 212.496 147.122 212.496 146.837 213.22C146.442 213.023 146.047 212.826 145.641 212.624C146.012 212.414 146.386 212.21 146.762 212.009C147.074 211.837 147.074 211.837 147.393 211.663C148.141 211.392 148.492 211.466 149.229 211.729Z" fill="#5C5C5C"/>
<path d="M157.304 208.748C157.206 209.142 157.107 209.535 157.005 209.941C156.413 209.941 155.821 209.941 155.211 209.941C155.211 209.645 155.211 209.35 155.211 209.046C156.108 208.748 156.108 208.748 157.304 208.748Z" fill="#414141"/>
<path d="M75.0645 63.8525C75.5079 64.1366 75.95 64.4227 76.3915 64.7097C76.761 64.9483 76.761 64.9483 77.138 65.1918C77.756 65.6414 77.756 65.6414 78.055 66.2376C76.7399 66.0864 76.0007 65.3185 75.0645 64.4488C75.0645 64.252 75.0645 64.0553 75.0645 63.8525Z" fill="#252525"/>
<path d="M79.8479 62.6602C81.8131 63.8527 81.8131 63.8527 82.2403 65.0453C81.0989 64.5817 80.3886 63.842 79.5488 62.9583C79.6475 62.8599 79.7462 62.7615 79.8479 62.6602Z" fill="#2D2D2D"/>
<path d="M96.5957 45.3682C97.8858 45.5111 98.4396 45.8887 99.2872 46.8589C98.9912 46.9572 98.6951 47.0556 98.39 47.157C97.4368 46.4489 97.4368 46.4489 96.5957 45.6663C96.5957 45.5679 96.5957 45.4695 96.5957 45.3682Z" fill="#4C4C4C"/>
<path d="M72.0723 32.8467C73.2812 33.2111 74.3131 33.6301 75.3619 34.3374C75.3619 34.4358 75.3619 34.5341 75.3619 34.6355C74.5711 34.7514 74.0496 34.7534 73.3678 34.3141C72.9188 33.9441 72.4939 33.5456 72.0723 33.1448C72.0723 33.0464 72.0723 32.948 72.0723 32.8467Z" fill="#575757"/>
<path d="M12.2614 18.2373C12.4588 18.3357 12.6561 18.4341 12.8595 18.5354C12.1822 19.4469 11.4799 20.3354 10.7661 21.2187C10.5687 21.1203 10.3713 21.0219 10.168 20.9205C10.4605 20.529 10.7534 20.1378 11.0465 19.7466C11.2095 19.5287 11.3726 19.3108 11.5406 19.0863C11.9623 18.5354 11.9623 18.5354 12.2614 18.2373Z" fill="#272727"/>
<path d="M18.5411 1.83984C18.7385 1.93823 18.9359 2.03661 19.1392 2.13798C18.7445 2.23637 18.3497 2.33475 17.943 2.43612C17.943 2.73128 17.943 3.02643 17.943 3.33053C17.2522 3.42892 16.5614 3.5273 15.8496 3.62867C16.6111 2.74299 17.4712 2.29374 18.5411 1.83984Z" fill="#626262"/>
<path d="M113.342 243.034C112.724 243.868 112.402 243.937 111.342 244.133C111.015 244.164 110.688 244.195 110.352 244.227C110.352 244.03 110.352 243.833 110.352 243.63C111.369 243.006 112.162 242.981 113.342 243.034Z" fill="#494949"/>
<path d="M84.634 225.146C84.933 226.04 84.933 226.04 84.933 226.636C84.637 226.784 84.637 226.784 84.3349 226.934C84.0215 227.523 83.7212 228.119 83.4377 228.723C83.339 228.526 83.2404 228.33 83.1387 228.127C83.4366 227.416 83.4366 227.416 83.8676 226.599C84.0798 226.192 84.0798 226.192 84.2964 225.777C84.4078 225.568 84.5192 225.36 84.634 225.146Z" fill="#5F5F5F"/>
<path d="M145.342 212.922C145.342 213.217 145.342 213.512 145.342 213.816C144.75 214.013 144.157 214.21 143.547 214.413C143.35 214.216 143.153 214.019 142.949 213.816C144.332 212.922 144.332 212.922 145.342 212.922Z" fill="#4A4A4A"/>
<path d="M98.0912 210.537C98.1899 210.832 98.2886 211.127 98.3903 211.432C97.9048 211.941 97.4054 212.438 96.895 212.922C96.6976 212.922 96.5002 212.922 96.2969 212.922C96.4684 212.067 96.5545 211.771 97.194 211.133C97.4901 211.133 97.7862 211.133 98.0912 211.133C98.0912 210.937 98.0912 210.74 98.0912 210.537Z" fill="#404040"/>
<path d="M107.661 195.332C107.866 195.817 107.866 195.817 107.96 196.525C107.53 197.494 107.53 197.494 107.063 198.313C106.964 198.313 106.865 198.313 106.764 198.313C106.764 197.625 106.764 196.936 106.764 196.226C107.06 196.128 107.356 196.03 107.661 195.928C107.661 195.732 107.661 195.535 107.661 195.332Z" fill="#454545"/>
<path d="M113.044 168.201C113.249 168.686 113.249 168.686 113.343 169.394C112.913 170.363 112.913 170.363 112.446 171.183C112.347 171.183 112.248 171.183 112.146 171.183C112.18 170.741 112.219 170.3 112.259 169.86C112.279 169.614 112.3 169.368 112.322 169.115C112.363 168.912 112.403 168.709 112.446 168.499C112.643 168.401 112.84 168.303 113.044 168.201Z" fill="#434343"/>
<path d="M79.2501 157.17C79.1514 157.465 79.0527 157.76 78.9511 158.064C77.8857 158.418 77.8857 158.418 76.8577 158.661C76.759 158.365 76.6603 158.07 76.5586 157.766C78.5772 157.17 78.5772 157.17 79.2501 157.17Z" fill="#242424"/>
<path d="M52.9334 142.859C53.0321 142.859 53.1308 142.859 53.2325 142.859C53.2988 143.343 53.3601 143.828 53.4194 144.313C53.4541 144.583 53.4888 144.852 53.5245 145.13C53.5268 145.365 53.5292 145.599 53.5315 145.841C53.3342 146.038 53.1368 146.234 52.9334 146.437C52.8752 145.953 52.8196 145.468 52.7652 144.984C52.734 144.714 52.7028 144.444 52.6706 144.166C52.6344 143.456 52.6344 143.456 52.9334 142.859Z" fill="#373737"/>
<path d="M22.1309 143.456C22.3282 143.456 22.5256 143.456 22.729 143.456C23.2953 144.021 23.7517 144.602 24.2243 145.245C23.9282 145.688 23.9282 145.688 23.6261 146.139C23.3761 145.749 23.1271 145.357 22.8785 144.965C22.6703 144.639 22.6703 144.639 22.458 144.305C22.1309 143.754 22.1309 143.754 22.1309 143.456Z" fill="#444444"/>
<path d="M126.501 138.983C126.707 139.468 126.707 139.468 126.8 140.176C126.37 141.145 126.37 141.145 125.903 141.965C125.566 141.443 125.566 141.443 125.305 140.772C125.566 140.101 125.566 140.101 125.903 139.58C126.1 139.58 126.298 139.58 126.501 139.58C126.501 139.383 126.501 139.186 126.501 138.983Z" fill="#515151"/>
<path d="M173.753 114.238C174.109 114.685 174.109 114.685 174.352 115.431C174.134 116.262 173.809 117.034 173.454 117.816C173.019 116.468 173.374 115.575 173.753 114.238Z" fill="#292929"/>
<path d="M104.67 108.872C104.769 108.872 104.868 108.872 104.969 108.872C105.068 109.856 105.167 110.84 105.268 111.853C104.972 112.001 104.972 112.001 104.67 112.152C104.612 111.661 104.556 111.17 104.502 110.68C104.471 110.406 104.439 110.133 104.407 109.852C104.395 109.627 104.383 109.402 104.371 109.17C104.47 109.072 104.568 108.973 104.67 108.872Z" fill="#2C2C2C"/>
<path d="M25.1211 97.8408C26.3993 98.3128 26.9948 99.1841 27.8126 100.226C27.5165 100.374 27.5165 100.374 27.2145 100.524C27.2145 100.327 27.2145 100.131 27.2145 99.9278C27.0356 99.8601 26.8568 99.7925 26.6725 99.7228C25.8497 99.2307 25.5622 98.6764 25.1211 97.8408Z" fill="#292929"/>
<path d="M148.631 80.5488C149.463 81.0575 149.783 81.2871 150.051 82.2445C150.076 82.472 150.101 82.6995 150.126 82.9339C149.83 82.9339 149.534 82.9339 149.229 82.9339C148.701 82.0133 148.631 81.6719 148.631 80.5488Z" fill="#404040"/>
<path d="M50.8406 61.1699C50.8406 61.3667 50.8406 61.5635 50.8406 61.7662C49.6084 62.3618 48.6121 62.4156 47.252 62.3625C49.559 61.1699 49.559 61.1699 50.8406 61.1699Z" fill="#1F1F1F"/>
<path d="M29.0087 54.6104C29.2061 54.9055 29.4035 55.2007 29.6068 55.5048C29.1134 56.1935 28.62 56.8822 28.1116 57.5917C28.0129 57.395 27.9142 57.1982 27.8125 56.9955C28.045 56.4155 28.045 56.4155 28.3919 55.7656C28.5056 55.5496 28.6194 55.3337 28.7365 55.1111C28.8264 54.9459 28.9162 54.7806 29.0087 54.6104Z" fill="#434343"/>
<path d="M47.5508 23.6045C48.2416 23.7029 48.9324 23.8013 49.6442 23.9026C49.6442 24.1978 49.6442 24.4929 49.6442 24.797C48.9534 24.6987 48.2625 24.6003 47.5508 24.4989C47.5508 24.2037 47.5508 23.9086 47.5508 23.6045Z" fill="#2D2D2D"/>
<path d="M86.4277 245.121C88.4464 245.941 88.4464 245.941 89.1193 246.612C88.5772 246.798 88.5772 246.798 87.923 246.91C87.627 246.713 87.3309 246.516 87.0258 246.314C87.0258 246.117 87.0258 245.92 87.0258 245.717C86.8285 245.717 86.6311 245.717 86.4277 245.717C86.4277 245.521 86.4277 245.324 86.4277 245.121Z" fill="#4F4F4F"/>
<path d="M163.285 208.152C162.89 208.25 162.495 208.348 162.088 208.45C162.088 208.647 162.088 208.843 162.088 209.046C161.003 208.948 159.917 208.849 158.799 208.748C158.799 208.65 158.799 208.551 158.799 208.45C160.315 208.238 161.754 208.12 163.285 208.152Z" fill="#7E7E7E"/>
<path d="M101.98 199.207C102.279 200.4 102.279 200.4 102.073 201.052C101.681 201.592 101.681 201.592 100.484 201.89C100.978 201.005 101.471 200.119 101.98 199.207Z" fill="#444444"/>
<path d="M82.5394 151.803C81.6047 152.591 80.7188 152.949 79.5488 153.294C79.8479 152.399 79.8479 152.399 80.7077 151.877C81.6422 151.505 81.6422 151.505 82.5394 151.803Z" fill="#303030"/>
<path d="M26.3164 149.717C26.8771 149.773 26.8771 149.773 27.5126 150.015C27.9052 150.742 27.9052 150.742 28.1108 151.506C28.0121 151.702 27.9134 151.899 27.8117 152.102C27.5616 151.761 27.3126 151.419 27.0641 151.077C26.9253 150.887 26.7865 150.697 26.6435 150.501C26.3164 150.015 26.3164 150.015 26.3164 149.717Z" fill="#414141"/>
<path d="M123.81 144.052C124.106 144.052 124.402 144.052 124.707 144.052C124.411 144.937 124.115 145.823 123.81 146.735C123.212 145.542 123.212 145.542 123.474 144.723C123.585 144.501 123.696 144.28 123.81 144.052Z" fill="#454545"/>
<path d="M34.6914 109.468C35.6128 110.294 36.0933 110.977 36.4858 112.151C35.5886 111.853 35.5886 111.853 35.0839 111.145C34.6914 110.362 34.6914 110.362 34.6914 109.468Z" fill="#232323"/>
<path d="M148.333 88.5986C148.629 88.5986 148.925 88.5986 149.23 88.5986C149.033 89.1889 148.835 89.7793 148.632 90.3875C148.434 90.3875 148.237 90.3875 148.034 90.3875C147.935 90.5842 147.836 90.781 147.735 90.9837C147.636 90.787 147.537 90.5902 147.436 90.3875C147.715 89.7818 148.013 89.1844 148.333 88.5986Z" fill="#2C2C2C"/>
<path d="M93.6057 43.5791C94.6419 44.0218 94.6419 44.0218 95.6991 44.4735C95.6004 44.6703 95.5017 44.8671 95.4 45.0698C94.5216 44.958 94.5216 44.958 93.6057 44.7717C93.507 44.5749 93.4083 44.3781 93.3066 44.1754C93.4053 43.9786 93.504 43.7818 93.6057 43.5791Z" fill="#333333"/>
<path d="M113.343 238.562C113.639 238.66 113.935 238.758 114.24 238.86C113.717 239.475 113.717 239.475 113.044 240.052C112.371 239.978 112.371 239.978 111.848 239.754C112.539 239.139 112.539 239.139 113.343 238.562Z" fill="#555555"/>
<path d="M103.474 196.524C103.671 196.82 103.868 197.115 104.072 197.419C103.776 197.862 103.776 197.862 103.474 198.313C103.276 198.313 103.079 198.313 102.875 198.313C102.875 198.608 102.875 198.904 102.875 199.208C102.678 199.109 102.481 199.011 102.277 198.91C102.672 198.122 103.067 197.335 103.474 196.524Z" fill="#444444"/>
<path d="M55.624 167.009C56.1174 167.009 56.6109 167.009 57.1193 167.009C56.2716 167.979 55.7178 168.357 54.4277 168.499C54.5264 168.204 54.6251 167.909 54.7268 167.605C55.0229 167.703 55.3189 167.802 55.624 167.903C55.624 167.608 55.624 167.313 55.624 167.009Z" fill="#464646"/>
<path d="M75.3618 154.785C75.5592 154.884 75.7565 154.982 75.9599 155.083C75.9044 155.311 75.8489 155.538 75.7917 155.773C75.5926 156.601 75.5926 156.601 75.9599 157.468C75.5651 157.272 75.1704 157.075 74.7637 156.872C75.0253 155.121 75.0253 155.121 75.3618 154.785Z" fill="#1A1A1A"/>
<path d="M28.1113 152.399C28.8515 152.547 28.8515 152.547 29.6066 152.698C29.804 153.386 30.0014 154.075 30.2047 154.785C30.0074 154.785 29.81 154.785 29.6066 154.785C29.0504 154.012 28.5384 153.251 28.1113 152.399Z" fill="#4B4B4B"/>
<path d="M121.118 150.611C121.342 151.114 121.342 151.114 121.417 151.804C120.838 152.624 120.838 152.624 120.221 153.295C119.997 152.791 119.997 152.791 119.922 152.102C120.501 151.282 120.501 151.282 121.118 150.611Z" fill="#505050"/>
<path d="M20.3359 140.475C20.5333 140.475 20.7307 140.475 20.9341 140.475C20.9341 140.671 20.9341 140.868 20.9341 141.071C21.2301 141.071 21.5262 141.071 21.8312 141.071C21.7325 141.464 21.6338 141.858 21.5322 142.263C21.8282 142.362 22.1243 142.46 22.4293 142.562C22.232 142.758 22.0346 142.955 21.8312 143.158C21.5812 142.767 21.3322 142.376 21.0836 141.984C20.8754 141.657 20.8754 141.657 20.663 141.324C20.3359 140.773 20.3359 140.773 20.3359 140.475Z" fill="#5C5C5C"/>
<path d="M14.6543 129.145C15.0491 129.243 15.4438 129.341 15.8505 129.443C16.0374 130.002 16.0374 130.002 16.1496 130.635C15.9522 130.832 15.7548 131.029 15.5515 131.231C14.6543 129.815 14.6543 129.815 14.6543 129.145Z" fill="#454545"/>
<path d="M138.763 110.66C139.062 111.555 139.062 111.555 138.632 112.505C138.4 112.92 138.4 112.92 138.165 113.343C137.967 112.95 137.77 112.556 137.566 112.151C137.764 111.856 137.961 111.561 138.165 111.256C138.362 111.256 138.559 111.256 138.763 111.256C138.763 111.06 138.763 110.863 138.763 110.66Z" fill="#3E3E3E"/>
<path d="M177.94 104.996C177.94 105.783 177.94 106.57 177.94 107.381C177.644 107.529 177.644 107.529 177.342 107.679C177.243 106.892 177.145 106.105 177.043 105.294C177.641 104.996 177.641 104.996 177.94 104.996Z" fill="#3D3D3D"/>
<path d="M98.6897 101.716C99.3238 102.769 99.4469 103.786 99.5869 104.995C98.7628 104.388 98.6799 104.054 98.4654 103.02C98.4407 102.688 98.416 102.356 98.3906 102.014C98.4893 101.916 98.588 101.817 98.6897 101.716Z" fill="#333333"/>
<path d="M125.604 62.958C125.998 63.0564 126.393 63.1548 126.8 63.2561C126.8 63.4529 126.8 63.6497 126.8 63.8524C127.096 63.9508 127.392 64.0492 127.697 64.1506C127.697 64.3473 127.697 64.5441 127.697 64.7468C126.839 64.5759 126.542 64.49 125.903 63.8524C125.804 63.5573 125.705 63.2621 125.604 62.958Z" fill="#383838"/>
<path d="M10.1674 8.99512C10.3648 9.19189 10.5621 9.38866 10.7655 9.59139C9.64404 10.4858 9.64404 10.4858 8.97116 10.4858C8.87247 10.6826 8.77378 10.8793 8.6721 11.0821C8.57342 10.7869 8.47473 10.4918 8.37305 10.1877C8.57042 9.9909 8.7678 9.79413 8.97116 9.59139C9.36592 9.59139 9.76067 9.59139 10.1674 9.59139C10.1674 9.39462 10.1674 9.19785 10.1674 8.99512Z" fill="#404040"/>
<path d="M21.5329 0.647461C21.7302 0.745846 21.9276 0.844232 22.131 0.945599C22.131 1.14237 22.131 1.33914 22.131 1.54187C20.1123 1.87728 20.1123 1.87728 19.4395 1.54187C20.1284 1.2239 20.8271 0.926455 21.5329 0.647461Z" fill="#545454"/>
<path d="M119.324 235.282C119.422 235.577 119.521 235.873 119.623 236.177C118.831 236.612 118.458 236.773 117.529 236.773C117.529 236.576 117.529 236.379 117.529 236.177C118.121 235.881 118.714 235.586 119.324 235.282Z" fill="#3E3E3E"/>
<path d="M154.014 234.686C154.508 234.686 155.001 234.686 155.509 234.686C155.213 234.833 155.213 234.833 154.911 234.984C154.813 235.279 154.714 235.574 154.612 235.878C154.217 235.878 153.823 235.878 153.416 235.878C153.613 235.485 153.811 235.091 154.014 234.686Z" fill="#383838"/>
<path d="M84.6326 232.897C84.7313 232.897 84.83 232.897 84.9316 232.897C84.8329 234.078 84.7343 235.259 84.6326 236.475C83.9995 235.213 83.9759 235.056 84.3335 233.792C84.4322 233.497 84.5309 233.202 84.6326 232.897Z" fill="#5B5B5B"/>
<path d="M163.883 233.493C162.853 234.178 162.107 234.25 160.893 234.388C160.893 234.191 160.893 233.994 160.893 233.791C162.024 233.244 162.671 233.148 163.883 233.493Z" fill="#515151"/>
<path d="M160.295 219.182C159.342 219.816 158.72 219.928 157.604 220.077C157.604 219.88 157.604 219.683 157.604 219.481C158.628 218.998 159.213 218.783 160.295 219.182Z" fill="#141414"/>
<path d="M96.5964 207.257C96.7833 207.797 96.7833 207.797 96.8954 208.449C96.5994 208.892 96.5994 208.892 96.2973 209.344C96.1 209.344 95.9026 209.344 95.6992 209.344C95.8114 208.468 95.8114 208.468 95.9983 207.555C96.1957 207.457 96.393 207.358 96.5964 207.257Z" fill="#262626"/>
<path d="M98.3909 180.425C98.983 180.72 99.5751 181.015 100.185 181.319C100.087 181.516 99.9878 181.713 99.8861 181.915C99.3254 181.822 99.3254 181.822 98.6899 181.617C98.4925 181.322 98.2952 181.027 98.0918 180.723C98.1905 180.625 98.2892 180.526 98.3909 180.425Z" fill="#353535"/>
<path d="M48.7463 169.691C49.4371 169.79 50.128 169.888 50.8397 169.99C50.2416 170.586 50.2416 170.586 49.3071 170.623C48.8815 170.605 48.8815 170.605 48.4473 170.586C48.546 170.291 48.6446 169.996 48.7463 169.691Z" fill="#5D5D5D"/>
<path d="M53.5304 168.201C53.8265 168.398 54.1226 168.595 54.4276 168.797C53.736 169.263 53.736 169.263 52.9323 169.692C52.6363 169.593 52.3402 169.495 52.0352 169.394C52.6333 168.499 52.6333 168.499 53.5304 168.201Z" fill="#494949"/>
<path d="M98.3903 148.226C98.5877 148.324 98.785 148.422 98.9884 148.524C98.1473 149.139 98.1473 149.139 97.194 149.716C96.898 149.618 96.6019 149.52 96.2969 149.418C97.0103 148.854 97.5146 148.517 98.3903 148.226Z" fill="#393939"/>
<path d="M11.6641 121.691C11.9601 121.839 11.9601 121.839 12.2622 121.99C12.2622 122.285 12.2622 122.58 12.2622 122.884C12.5582 122.982 12.8543 123.081 13.1594 123.182C12.962 123.576 12.7646 123.969 12.5612 124.375C11.6641 122.698 11.6641 122.698 11.6641 121.691Z" fill="#525252"/>
<path d="M139.362 108.573C139.658 108.573 139.954 108.573 140.259 108.573C139.938 109.442 139.727 109.998 139.063 110.66C138.876 110.12 138.876 110.12 138.764 109.468C138.961 109.172 139.158 108.877 139.362 108.573Z" fill="#424242"/>
<path d="M149.23 85.915C149.526 85.915 149.822 85.915 150.127 85.915C149.93 86.8005 149.732 87.686 149.529 88.5983C149.281 87.6107 149.202 86.9109 149.23 85.915Z" fill="#424242"/>
<path d="M21.5322 71.3066C22.205 71.3812 22.205 71.3812 22.7284 71.6048C22.3733 72.052 22.3733 72.052 21.8312 72.4992C21.0275 72.5551 21.0275 72.5551 20.3359 72.4992C20.8593 71.8843 20.8593 71.8843 21.5322 71.3066Z" fill="#323232"/>
<path d="M79.8477 67.7285C80.1992 68.0047 80.5475 68.285 80.8944 68.567C81.0887 68.7227 81.2829 68.8783 81.4831 69.0387C81.9411 69.5173 81.9411 69.5173 81.9411 70.4118C81.5895 70.1355 81.2412 69.8552 80.8944 69.5732C80.6029 69.3398 80.6029 69.3398 80.3056 69.1016C79.8477 68.6229 79.8477 68.6229 79.8477 67.7285Z" fill="#121212"/>
<path d="M21.2328 4.22499C20.4568 4.9986 19.9173 5.02993 18.8403 5.1194C18.6429 4.92263 18.4455 4.72586 18.2422 4.52313C19.3123 3.82561 20.0133 3.94868 21.2328 4.22499Z" fill="#4A4A4A"/>
<path d="M89.1191 246.611C89.5139 246.611 89.9087 246.611 90.3154 246.611C90.3154 246.808 90.3154 247.005 90.3154 247.208C90.7101 247.208 91.1049 247.208 91.5116 247.208C91.5116 247.404 91.5116 247.601 91.5116 247.804C90.7221 247.705 89.9326 247.607 89.1191 247.506C89.1191 247.211 89.1191 246.915 89.1191 246.611Z" fill="#1B1B1B"/>
<path d="M84.9319 230.512C85.228 230.61 85.5241 230.708 85.8291 230.81C85.6317 231.499 85.4344 232.187 85.231 232.897C84.6329 232.002 84.6329 232.002 84.745 231.201C84.8067 230.974 84.8684 230.746 84.9319 230.512Z" fill="#4A4A4A"/>
<path d="M139.661 215.605C140.315 215.699 140.315 215.699 140.857 215.904C140.483 216.369 140.483 216.369 139.96 216.798C139.306 216.705 139.306 216.705 138.764 216.5C139.137 216.034 139.137 216.034 139.661 215.605Z" fill="#2F2F2F"/>
<path d="M92.1105 212.922C92.4066 213.119 92.7027 213.315 93.0077 213.518C92.3161 214.263 92.3161 214.263 91.5124 215.009C91.2163 215.009 90.9203 215.009 90.6152 215.009C91.1087 214.32 91.6021 213.631 92.1105 212.922Z" fill="#515151"/>
<path d="M103.174 183.108C103.959 183.537 103.959 183.537 104.67 184.003C104.571 184.396 104.472 184.79 104.371 185.195C103.772 184.599 103.174 184.003 102.576 183.407C102.774 183.308 102.971 183.21 103.174 183.108Z" fill="#616161"/>
<path d="M100.483 181.617C100.779 181.814 101.075 182.011 101.38 182.213C101.38 182.41 101.38 182.607 101.38 182.81C101.775 182.908 102.17 183.007 102.576 183.108C102.28 183.255 102.28 183.255 101.978 183.406C101.238 183.074 100.579 182.636 99.8848 182.213C100.082 182.017 100.28 181.82 100.483 181.617Z" fill="#474747"/>
<path d="M32.5977 158.064C33.3378 158.212 33.3378 158.212 34.0929 158.363C34.1916 158.855 34.2903 159.346 34.392 159.853C33.7877 159.364 33.1897 158.867 32.5977 158.363C32.5977 158.264 32.5977 158.166 32.5977 158.064Z" fill="#454545"/>
<path d="M95.9982 149.716C95.1571 150.331 95.1571 150.331 94.2038 150.909C93.9077 150.81 93.6117 150.712 93.3066 150.611C94.0817 149.838 94.9385 149.188 95.9982 149.716Z" fill="#3B3B3B"/>
<path d="M47.2504 138.089C47.806 139.024 47.9087 139.691 47.8485 140.772C47.6511 140.772 47.4537 140.772 47.2504 140.772C46.9139 138.76 46.9139 138.76 47.2504 138.089Z" fill="#393939"/>
<path d="M127.698 135.107C127.994 135.107 128.29 135.107 128.595 135.107C128.299 135.993 128.003 136.878 127.698 137.791C127.5 137.496 127.303 137.2 127.1 136.896C127.361 136.114 127.361 136.114 127.698 135.406C127.698 135.307 127.698 135.209 127.698 135.107Z" fill="#4F4F4F"/>
<path d="M184.817 123.183C185.116 124.077 185.116 124.077 184.686 125.027C184.455 125.442 184.455 125.442 184.219 125.866C184.022 125.472 183.824 125.079 183.621 124.673C183.917 124.575 184.213 124.477 184.518 124.375C184.738 123.774 184.738 123.774 184.817 123.183Z" fill="#505050"/>
<path d="M133.38 123.183C133.679 124.077 133.679 124.077 133.249 125.027C133.018 125.442 133.018 125.442 132.782 125.866C132.584 125.472 132.387 125.079 132.184 124.673C132.48 124.575 132.776 124.477 133.081 124.375C133.3 123.774 133.3 123.774 133.38 123.183Z" fill="#555555"/>
<path d="M134.575 120.201C134.874 121.096 134.874 121.096 134.444 122.046C134.213 122.461 134.213 122.461 133.977 122.884C133.78 122.491 133.582 122.097 133.379 121.692C133.675 121.593 133.971 121.495 134.276 121.394C134.495 120.793 134.495 120.793 134.575 120.201Z" fill="#474747"/>
<path d="M140.258 106.486C140.554 106.486 140.85 106.486 141.155 106.486C140.975 107.089 140.775 107.685 140.557 108.275C140.261 108.423 140.261 108.423 139.959 108.573C139.772 108.033 139.772 108.033 139.66 107.381C139.858 107.086 140.055 106.79 140.258 106.486Z" fill="#353535"/>
<path d="M12.2611 76.0762C12.4585 76.1746 12.6559 76.2729 12.8593 76.3743C12.3359 76.9892 12.3359 76.9892 11.663 77.5669C10.9901 77.4923 10.9901 77.4923 10.4668 77.2687C11.0589 76.8752 11.6511 76.4816 12.2611 76.0762Z" fill="#4D4D4D"/>
<path d="M122.016 60.2754C122.904 60.8657 122.904 60.8657 123.81 61.4679C123.711 61.6647 123.613 61.8615 123.511 62.0642C122.771 61.7691 122.771 61.7691 122.016 61.4679C122.016 61.0744 122.016 60.6809 122.016 60.2754Z" fill="#464646"/>
</svg>
